<svg xmlns="http://www.w3.org/2000/svg" width="24.151" height="15.823" viewBox="0 0 24.151 15.823">
  <g id="united-states" transform="translate(0 0)">
    <path id="Path_198937" data-name="Path 198937" d="M23.734,104.1H.416A.416.416,0,0,1,0,103.681V88.691a.416.416,0,0,1,.416-.416H23.734a.416.416,0,0,1,.416.416v14.99A.416.416,0,0,1,23.734,104.1Z" transform="translate(0 -88.275)" fill="#f5f5f5"/>
    <g id="Group_110283" data-name="Group 110283" transform="translate(0 0)">
      <path id="Path_198938" data-name="Path 198938" d="M24.151,89.492H0v-.8a.416.416,0,0,1,.416-.416H23.734a.416.416,0,0,1,.416.416v.8Z" transform="translate(0 -88.275)" fill="#ff4b55"/>
      <rect id="Rectangle_40785" data-name="Rectangle 40785" width="24.151" height="1.217" transform="translate(0 4.869)" fill="#ff4b55"/>
      <rect id="Rectangle_40786" data-name="Rectangle 40786" width="24.151" height="1.217" transform="translate(0 2.434)" fill="#ff4b55"/>
      <path id="Path_198939" data-name="Path 198939" d="M24.151,244.314H.416A.416.416,0,0,1,0,243.9v-.8H24.151Z" transform="translate(0 -235.794)" fill="#ff4b55"/>
      <rect id="Rectangle_40787" data-name="Rectangle 40787" width="24.151" height="1.217" transform="translate(0 12.172)" fill="#ff4b55"/>
      <path id="Path_198940" data-name="Path 198940" d="M23.734,399.137H.416A.416.416,0,0,1,0,398.721v-.8H24.151v.8A.416.416,0,0,1,23.734,399.137Z" transform="translate(0 -383.314)" fill="#ff4b55"/>
      <rect id="Rectangle_40788" data-name="Rectangle 40788" width="24.151" height="1.217" transform="translate(0 9.737)" fill="#ff4b55"/>
    </g>
    <path id="Path_198941" data-name="Path 198941" d="M10.826,88.276H.416A.416.416,0,0,0,0,88.692V96.38a.416.416,0,0,0,.416.416h10.41a.416.416,0,0,0,.416-.416V88.692A.416.416,0,0,0,10.826,88.276Z" transform="translate(0 -88.276)" fill="#41479b"/>
    <g id="Group_110284" data-name="Group 110284" transform="translate(0.672 0.929)">
      <path id="Path_198942" data-name="Path 198942" d="M14.75,107.995l.092.276.291,0a.039.039,0,0,1,.023.071l-.234.173.088.278a.039.039,0,0,1-.06.044l-.237-.169-.237.169a.039.039,0,0,1-.06-.044l.088-.278-.234-.173a.039.039,0,0,1,.023-.071l.291,0,.092-.276A.039.039,0,0,1,14.75,107.995Z" transform="translate(-14.253 -107.968)" fill="#f5f5f5"/>
      <path id="Path_198943" data-name="Path 198943" d="M14.75,138.649l.092.276.291,0a.039.039,0,0,1,.023.071l-.234.173.088.278a.039.039,0,0,1-.06.044l-.237-.169-.237.169a.039.039,0,0,1-.06-.044l.088-.278L14.269,139a.039.039,0,0,1,.023-.071l.291,0,.092-.276A.039.039,0,0,1,14.75,138.649Z" transform="translate(-14.253 -137.177)" fill="#f5f5f5"/>
      <path id="Path_198944" data-name="Path 198944" d="M14.75,169.3l.092.276.291,0a.039.039,0,0,1,.023.071l-.234.173.088.278a.039.039,0,0,1-.06.044l-.237-.169-.237.169a.039.039,0,0,1-.06-.044l.088-.278-.234-.173a.039.039,0,0,1,.023-.071l.291,0,.092-.276A.039.039,0,0,1,14.75,169.3Z" transform="translate(-14.253 -166.385)" fill="#f5f5f5"/>
      <path id="Path_198945" data-name="Path 198945" d="M14.75,199.958l.092.276.291,0a.039.039,0,0,1,.023.071l-.234.173.088.278a.039.039,0,0,1-.06.044l-.237-.169-.237.169a.039.039,0,0,1-.06-.044l.088-.278-.234-.173a.039.039,0,0,1,.023-.071l.291,0,.092-.276A.039.039,0,0,1,14.75,199.958Z" transform="translate(-14.253 -195.593)" fill="#f5f5f5"/>
      <path id="Path_198946" data-name="Path 198946" d="M14.75,230.611l.092.276.291,0a.039.039,0,0,1,.023.071l-.234.173.088.278a.039.039,0,0,1-.06.044l-.237-.169-.237.169a.039.039,0,0,1-.06-.044l.088-.278-.234-.173a.039.039,0,0,1,.023-.071l.291,0,.092-.276A.039.039,0,0,1,14.75,230.611Z" transform="translate(-14.253 -224.8)" fill="#f5f5f5"/>
      <path id="Path_198947" data-name="Path 198947" d="M38.543,123.024l.092.276.291,0a.039.039,0,0,1,.023.071l-.234.173.088.278a.039.039,0,0,1-.06.044l-.237-.169-.237.169a.039.039,0,0,1-.06-.044l.088-.278-.234-.173a.039.039,0,0,1,.023-.071l.291,0,.092-.276A.039.039,0,0,1,38.543,123.024Z" transform="translate(-36.923 -122.289)" fill="#f5f5f5"/>
      <path id="Path_198948" data-name="Path 198948" d="M38.543,153.679l.092.276.291,0a.039.039,0,0,1,.023.071l-.234.173.088.278a.039.039,0,0,1-.06.044l-.237-.169-.237.169a.039.039,0,0,1-.06-.044l.088-.278-.234-.173a.039.039,0,0,1,.023-.071l.291,0,.092-.276A.039.039,0,0,1,38.543,153.679Z" transform="translate(-36.923 -151.497)" fill="#f5f5f5"/>
      <path id="Path_198949" data-name="Path 198949" d="M38.543,184.333l.092.276.291,0a.039.039,0,0,1,.023.071l-.234.173.088.278a.039.039,0,0,1-.06.044l-.237-.169-.237.169a.039.039,0,0,1-.06-.044l.088-.278-.234-.173a.039.039,0,0,1,.023-.071l.291,0,.092-.276A.039.039,0,0,1,38.543,184.333Z" transform="translate(-36.923 -180.705)" fill="#f5f5f5"/>
      <path id="Path_198950" data-name="Path 198950" d="M38.543,214.987l.092.276.291,0a.039.039,0,0,1,.023.071l-.234.173.088.278a.039.039,0,0,1-.06.044l-.237-.169-.237.169a.039.039,0,0,1-.06-.044l.088-.278-.234-.173a.039.039,0,0,1,.023-.071l.291,0,.092-.276A.039.039,0,0,1,38.543,214.987Z" transform="translate(-36.923 -209.914)" fill="#f5f5f5"/>
      <path id="Path_198951" data-name="Path 198951" d="M62.336,107.995l.092.276.291,0a.039.039,0,0,1,.023.071l-.234.173.088.278a.039.039,0,0,1-.06.044l-.237-.169-.237.169a.039.039,0,0,1-.06-.044l.088-.278-.234-.173a.039.039,0,0,1,.023-.071l.291,0,.092-.276A.039.039,0,0,1,62.336,107.995Z" transform="translate(-59.594 -107.968)" fill="#f5f5f5"/>
      <path id="Path_198952" data-name="Path 198952" d="M62.336,138.649l.092.276.291,0a.039.039,0,0,1,.023.071l-.234.173.088.278a.039.039,0,0,1-.06.044l-.237-.169-.237.169a.039.039,0,0,1-.06-.044l.088-.278L61.855,139a.039.039,0,0,1,.023-.071l.291,0,.092-.276A.039.039,0,0,1,62.336,138.649Z" transform="translate(-59.594 -137.177)" fill="#f5f5f5"/>
      <path id="Path_198953" data-name="Path 198953" d="M62.336,169.3l.092.276.291,0a.039.039,0,0,1,.023.071l-.234.173.088.278a.039.039,0,0,1-.06.044l-.237-.169-.237.169A.039.039,0,0,1,62,170.1l.088-.278-.234-.173a.039.039,0,0,1,.023-.071l.291,0,.092-.276A.039.039,0,0,1,62.336,169.3Z" transform="translate(-59.594 -166.385)" fill="#f5f5f5"/>
      <path id="Path_198954" data-name="Path 198954" d="M62.336,199.958l.092.276.291,0a.039.039,0,0,1,.023.071l-.234.173.088.278a.039.039,0,0,1-.06.044l-.237-.169-.237.169a.039.039,0,0,1-.06-.044l.088-.278-.234-.173a.039.039,0,0,1,.023-.071l.291,0,.092-.276A.039.039,0,0,1,62.336,199.958Z" transform="translate(-59.594 -195.593)" fill="#f5f5f5"/>
      <path id="Path_198955" data-name="Path 198955" d="M62.336,230.611l.092.276.291,0a.039.039,0,0,1,.023.071l-.234.173.088.278a.039.039,0,0,1-.06.044l-.237-.169-.237.169a.039.039,0,0,1-.06-.044l.088-.278-.234-.173a.039.039,0,0,1,.023-.071l.291,0,.092-.276A.039.039,0,0,1,62.336,230.611Z" transform="translate(-59.594 -224.8)" fill="#f5f5f5"/>
      <path id="Path_198956" data-name="Path 198956" d="M86.13,123.024l.092.276.291,0a.039.039,0,0,1,.023.071l-.234.173.088.278a.039.039,0,0,1-.06.044l-.237-.169-.237.169a.039.039,0,0,1-.06-.044l.088-.278-.234-.173a.039.039,0,0,1,.023-.071l.291,0,.092-.276A.039.039,0,0,1,86.13,123.024Z" transform="translate(-82.266 -122.289)" fill="#f5f5f5"/>
      <path id="Path_198957" data-name="Path 198957" d="M86.13,153.679l.092.276.291,0a.039.039,0,0,1,.023.071l-.234.173.088.278a.039.039,0,0,1-.06.044l-.237-.169-.237.169a.039.039,0,0,1-.06-.044l.088-.278-.234-.173a.039.039,0,0,1,.023-.071l.291,0,.092-.276A.039.039,0,0,1,86.13,153.679Z" transform="translate(-82.266 -151.497)" fill="#f5f5f5"/>
      <path id="Path_198958" data-name="Path 198958" d="M86.13,184.333l.092.276.291,0a.039.039,0,0,1,.023.071l-.234.173.088.278a.039.039,0,0,1-.06.044l-.237-.169-.237.169a.039.039,0,0,1-.06-.044l.088-.278-.234-.173a.039.039,0,0,1,.023-.071l.291,0,.092-.276A.039.039,0,0,1,86.13,184.333Z" transform="translate(-82.266 -180.705)" fill="#f5f5f5"/>
      <path id="Path_198959" data-name="Path 198959" d="M86.13,214.987l.092.276.291,0a.039.039,0,0,1,.023.071l-.234.173.088.278a.039.039,0,0,1-.06.044l-.237-.169-.237.169a.039.039,0,0,1-.06-.044l.088-.278-.234-.173a.039.039,0,0,1,.023-.071l.291,0,.092-.276A.039.039,0,0,1,86.13,214.987Z" transform="translate(-82.266 -209.914)" fill="#f5f5f5"/>
      <path id="Path_198960" data-name="Path 198960" d="M109.922,107.995l.092.276.291,0a.039.039,0,0,1,.023.071l-.234.173.088.278a.039.039,0,0,1-.06.044l-.237-.169-.237.169a.039.039,0,0,1-.06-.044l.088-.278-.234-.173a.039.039,0,0,1,.023-.071l.291,0,.092-.276A.039.039,0,0,1,109.922,107.995Z" transform="translate(-104.935 -107.968)" fill="#f5f5f5"/>
      <path id="Path_198961" data-name="Path 198961" d="M109.922,138.649l.092.276.291,0a.039.039,0,0,1,.023.071l-.234.173.088.278a.039.039,0,0,1-.06.044l-.237-.169-.237.169a.039.039,0,0,1-.06-.044l.088-.278-.234-.173a.039.039,0,0,1,.023-.071l.291,0,.092-.276A.039.039,0,0,1,109.922,138.649Z" transform="translate(-104.935 -137.177)" fill="#f5f5f5"/>
      <path id="Path_198962" data-name="Path 198962" d="M109.922,169.3l.092.276.291,0a.039.039,0,0,1,.023.071l-.234.173.088.278a.039.039,0,0,1-.06.044l-.237-.169-.237.169a.039.039,0,0,1-.06-.044l.088-.278-.234-.173a.039.039,0,0,1,.023-.071l.291,0,.092-.276A.039.039,0,0,1,109.922,169.3Z" transform="translate(-104.935 -166.385)" fill="#f5f5f5"/>
      <path id="Path_198963" data-name="Path 198963" d="M109.922,199.958l.092.276.291,0a.039.039,0,0,1,.023.071l-.234.173.088.278a.039.039,0,0,1-.06.044l-.237-.169-.237.169a.039.039,0,0,1-.06-.044l.088-.278-.234-.173a.039.039,0,0,1,.023-.071l.291,0,.092-.276A.039.039,0,0,1,109.922,199.958Z" transform="translate(-104.935 -195.593)" fill="#f5f5f5"/>
      <path id="Path_198964" data-name="Path 198964" d="M109.922,230.611l.092.276.291,0a.039.039,0,0,1,.023.071l-.234.173.088.278a.039.039,0,0,1-.06.044l-.237-.169-.237.169a.039.039,0,0,1-.06-.044l.088-.278-.234-.173a.039.039,0,0,1,.023-.071l.291,0,.092-.276A.039.039,0,0,1,109.922,230.611Z" transform="translate(-104.935 -224.8)" fill="#f5f5f5"/>
      <path id="Path_198965" data-name="Path 198965" d="M133.716,123.024l.092.276.291,0a.039.039,0,0,1,.023.071l-.234.173.088.278a.039.039,0,0,1-.06.044l-.237-.169-.237.169a.039.039,0,0,1-.06-.044l.088-.278-.234-.173a.039.039,0,0,1,.023-.071l.291,0,.092-.276A.039.039,0,0,1,133.716,123.024Z" transform="translate(-127.607 -122.289)" fill="#f5f5f5"/>
      <path id="Path_198966" data-name="Path 198966" d="M133.716,153.679l.092.276.291,0a.039.039,0,0,1,.023.071l-.234.173.088.278a.039.039,0,0,1-.06.044l-.237-.169-.237.169a.039.039,0,0,1-.06-.044l.088-.278-.234-.173a.039.039,0,0,1,.023-.071l.291,0,.092-.276A.039.039,0,0,1,133.716,153.679Z" transform="translate(-127.607 -151.497)" fill="#f5f5f5"/>
      <path id="Path_198967" data-name="Path 198967" d="M133.716,184.333l.092.276.291,0a.039.039,0,0,1,.023.071l-.234.173.088.278a.039.039,0,0,1-.06.044l-.237-.169-.237.169a.039.039,0,0,1-.06-.044l.088-.278-.234-.173a.039.039,0,0,1,.023-.071l.291,0,.092-.276A.039.039,0,0,1,133.716,184.333Z" transform="translate(-127.607 -180.705)" fill="#f5f5f5"/>
      <path id="Path_198968" data-name="Path 198968" d="M133.716,214.987l.092.276.291,0a.039.039,0,0,1,.023.071l-.234.173.088.278a.039.039,0,0,1-.06.044l-.237-.169-.237.169a.039.039,0,0,1-.06-.044l.088-.278-.234-.173a.039.039,0,0,1,.023-.071l.291,0,.092-.276A.039.039,0,0,1,133.716,214.987Z" transform="translate(-127.607 -209.914)" fill="#f5f5f5"/>
      <path id="Path_198969" data-name="Path 198969" d="M157.51,107.995l.092.276.291,0a.039.039,0,0,1,.023.071l-.234.173.088.278a.039.039,0,0,1-.06.044l-.237-.169-.237.169a.039.039,0,0,1-.06-.044l.088-.278-.234-.173a.039.039,0,0,1,.023-.071l.291,0,.092-.276A.039.039,0,0,1,157.51,107.995Z" transform="translate(-150.279 -107.968)" fill="#f5f5f5"/>
      <path id="Path_198970" data-name="Path 198970" d="M157.51,138.649l.092.276.291,0a.039.039,0,0,1,.023.071l-.234.173.088.278a.039.039,0,0,1-.06.044l-.237-.169-.237.169a.039.039,0,0,1-.06-.044l.088-.278-.234-.173a.039.039,0,0,1,.023-.071l.291,0,.092-.276A.039.039,0,0,1,157.51,138.649Z" transform="translate(-150.279 -137.177)" fill="#f5f5f5"/>
      <path id="Path_198971" data-name="Path 198971" d="M157.51,169.3l.092.276.291,0a.039.039,0,0,1,.023.071l-.234.173.088.278a.039.039,0,0,1-.06.044l-.237-.169-.237.169a.039.039,0,0,1-.06-.044l.088-.278-.234-.173a.039.039,0,0,1,.023-.071l.291,0,.092-.276A.039.039,0,0,1,157.51,169.3Z" transform="translate(-150.279 -166.385)" fill="#f5f5f5"/>
      <path id="Path_198972" data-name="Path 198972" d="M157.51,199.958l.092.276.291,0a.039.039,0,0,1,.023.071l-.234.173.088.278a.039.039,0,0,1-.06.044l-.237-.169-.237.169a.039.039,0,0,1-.06-.044l.088-.278-.234-.173a.039.039,0,0,1,.023-.071l.291,0,.092-.276A.039.039,0,0,1,157.51,199.958Z" transform="translate(-150.279 -195.593)" fill="#f5f5f5"/>
      <path id="Path_198973" data-name="Path 198973" d="M157.51,230.611l.092.276.291,0a.039.039,0,0,1,.023.071l-.234.173.088.278a.039.039,0,0,1-.06.044l-.237-.169-.237.169a.039.039,0,0,1-.06-.044l.088-.278-.234-.173a.039.039,0,0,1,.023-.071l.291,0,.092-.276A.039.039,0,0,1,157.51,230.611Z" transform="translate(-150.279 -224.8)" fill="#f5f5f5"/>
      <path id="Path_198974" data-name="Path 198974" d="M181.3,123.024l.092.276.291,0a.039.039,0,0,1,.023.071l-.234.173.088.278a.039.039,0,0,1-.06.044l-.237-.169-.237.169a.039.039,0,0,1-.06-.044l.088-.278-.234-.173a.039.039,0,0,1,.023-.071l.291,0,.092-.276A.039.039,0,0,1,181.3,123.024Z" transform="translate(-172.949 -122.289)" fill="#f5f5f5"/>
      <path id="Path_198975" data-name="Path 198975" d="M181.3,153.679l.092.276.291,0a.039.039,0,0,1,.023.071l-.234.173.088.278a.039.039,0,0,1-.06.044l-.237-.169-.237.169a.039.039,0,0,1-.06-.044l.088-.278-.234-.173a.039.039,0,0,1,.023-.071l.291,0,.092-.276A.039.039,0,0,1,181.3,153.679Z" transform="translate(-172.949 -151.497)" fill="#f5f5f5"/>
      <path id="Path_198976" data-name="Path 198976" d="M181.3,184.333l.092.276.291,0a.039.039,0,0,1,.023.071l-.234.173.088.278a.039.039,0,0,1-.06.044l-.237-.169-.237.169a.039.039,0,0,1-.06-.044l.088-.278-.234-.173a.039.039,0,0,1,.023-.071l.291,0,.092-.276A.039.039,0,0,1,181.3,184.333Z" transform="translate(-172.949 -180.705)" fill="#f5f5f5"/>
      <path id="Path_198977" data-name="Path 198977" d="M181.3,214.987l.092.276.291,0a.039.039,0,0,1,.023.071l-.234.173.088.278a.039.039,0,0,1-.06.044l-.237-.169-.237.169a.039.039,0,0,1-.06-.044l.088-.278-.234-.173a.039.039,0,0,1,.023-.071l.291,0,.092-.276A.039.039,0,0,1,181.3,214.987Z" transform="translate(-172.949 -209.914)" fill="#f5f5f5"/>
      <path id="Path_198978" data-name="Path 198978" d="M205.1,107.995l.092.276.291,0a.039.039,0,0,1,.023.071l-.234.173.088.278a.039.039,0,0,1-.06.044l-.237-.169-.237.169a.039.039,0,0,1-.06-.044l.088-.278-.234-.173a.039.039,0,0,1,.023-.071l.291,0,.092-.276A.039.039,0,0,1,205.1,107.995Z" transform="translate(-195.621 -107.968)" fill="#f5f5f5"/>
      <path id="Path_198979" data-name="Path 198979" d="M205.1,138.649l.092.276.291,0a.039.039,0,0,1,.023.071l-.234.173.088.278a.039.039,0,0,1-.06.044l-.237-.169-.237.169a.039.039,0,0,1-.06-.044l.088-.278-.234-.173a.039.039,0,0,1,.023-.071l.291,0,.092-.276A.039.039,0,0,1,205.1,138.649Z" transform="translate(-195.621 -137.177)" fill="#f5f5f5"/>
      <path id="Path_198980" data-name="Path 198980" d="M205.1,169.3l.092.276.291,0a.039.039,0,0,1,.023.071l-.234.173.088.278a.039.039,0,0,1-.06.044l-.237-.169-.237.169a.039.039,0,0,1-.06-.044l.088-.278-.234-.173a.039.039,0,0,1,.023-.071l.291,0,.092-.276A.039.039,0,0,1,205.1,169.3Z" transform="translate(-195.621 -166.385)" fill="#f5f5f5"/>
      <path id="Path_198981" data-name="Path 198981" d="M205.1,199.958l.092.276.291,0a.039.039,0,0,1,.023.071l-.234.173.088.278a.039.039,0,0,1-.06.044l-.237-.169-.237.169a.039.039,0,0,1-.06-.044l.088-.278-.234-.173a.039.039,0,0,1,.023-.071l.291,0,.092-.276A.039.039,0,0,1,205.1,199.958Z" transform="translate(-195.621 -195.593)" fill="#f5f5f5"/>
      <path id="Path_198982" data-name="Path 198982" d="M205.1,230.611l.092.276.291,0a.039.039,0,0,1,.023.071l-.234.173.088.278a.039.039,0,0,1-.06.044l-.237-.169-.237.169a.039.039,0,0,1-.06-.044l.088-.278-.234-.173a.039.039,0,0,1,.023-.071l.291,0,.092-.276A.039.039,0,0,1,205.1,230.611Z" transform="translate(-195.621 -224.8)" fill="#f5f5f5"/>
    </g>
  </g>
</svg>
