<svg width="57" height="57" viewBox="0 0 57 57" fill="none" xmlns="http://www.w3.org/2000/svg">
<path fill-rule="evenodd" clip-rule="evenodd" d="M18.7677 0H38.0695L55.1139 17.041V49.7711C55.1139 53.7488 51.8594 57 47.885 57H18.7677C14.7933 57 11.5388 53.7488 11.5388 49.7711V7.22887C11.5388 3.25112 14.7933 0 18.7677 0Z" fill="#00733B"/>
<path fill-rule="evenodd" clip-rule="evenodd" d="M38.0694 0L55.1138 17.041H39.9067C38.8968 17.041 38.0693 16.2168 38.0693 15.2036V0H38.0694Z" fill="#005C2F"/>
<path fill-rule="evenodd" clip-rule="evenodd" d="M3.47277 24.2698H42.7281C43.6011 24.2698 44.3146 24.9832 44.3146 25.8563V40.2586C44.3146 41.1316 43.6011 41.8484 42.7281 41.8484H3.47277C2.59962 41.8484 1.88623 41.1316 1.88623 40.2586V25.8563C1.88623 24.9832 2.59962 24.2698 3.47277 24.2698Z" fill="#005C2F"/>
<path d="M23.0921 37.9881C23.0921 38.4964 22.6801 38.9083 22.1719 38.9083H16.2493C15.741 38.9083 15.3291 38.4963 15.3291 37.9881V28.1304C15.3291 27.6221 15.7411 27.2102 16.2493 27.2102C16.7577 27.2102 17.1696 27.6222 17.1696 28.1304V37.0678H22.1718C22.6801 37.0678 23.0921 37.4798 23.0921 37.9881ZM13.1757 27.3415C12.7399 27.0798 12.1746 27.2207 11.9129 27.6565L9.74053 31.2723L7.56819 27.6565C7.30657 27.221 6.74124 27.0798 6.30539 27.3415C5.86977 27.6033 5.72871 28.1687 5.99045 28.6043L8.66689 33.0592L5.99045 37.5141C5.72871 37.9498 5.86966 38.5152 6.30539 38.7769C6.45379 38.866 6.61722 38.9084 6.77843 38.9084C7.09093 38.9084 7.39563 38.7492 7.56819 38.462L9.74053 34.8461L11.9129 38.462C12.0854 38.7493 12.3901 38.9084 12.7026 38.9084C12.864 38.9084 13.0273 38.866 13.1757 38.7769C13.6113 38.5152 13.7524 37.9498 13.4906 37.5141L10.8142 33.0592L13.4906 28.6043C13.7522 28.1687 13.6113 27.6033 13.1757 27.3415ZM27.407 29.0507H28.8729C29.4649 29.0507 29.9465 29.5322 29.9465 30.1242C29.9465 30.6325 30.3585 31.0444 30.8668 31.0444C31.3751 31.0444 31.7871 30.6324 31.7871 30.1242C31.7871 28.5174 30.4799 27.2102 28.8729 27.2102H27.407C25.5398 27.2102 24.0206 28.7279 24.0206 30.5932C24.0206 32.2443 24.8688 33.0496 25.5805 33.4346C26.4835 33.923 27.6225 33.9795 28.4006 33.9795C29.253 33.9795 29.9465 34.6715 29.9465 35.5219C29.9465 36.3742 29.253 37.0677 28.4006 37.0677H26.9346C26.3427 37.0677 25.8612 36.5862 25.8612 35.9943C25.8612 35.486 25.4492 35.0739 24.9409 35.0739C24.4326 35.0739 24.0207 35.486 24.0207 35.9943C24.0207 37.6011 25.3278 38.9083 26.9347 38.9083H28.4007C30.268 38.9083 31.7872 37.3891 31.7872 35.5219C31.7872 33.6564 30.268 32.1389 28.4007 32.1389C26.0524 32.1389 25.8614 31.4387 25.8614 30.5931C25.8612 29.7428 26.5546 29.0507 27.407 29.0507ZM37.5337 33.0592L40.2103 28.6043C40.472 28.1687 40.3311 27.6033 39.8953 27.3415C39.4596 27.0798 38.8942 27.2207 38.6325 27.6565L36.4602 31.2723L34.2878 27.6565C34.0262 27.221 33.461 27.0798 33.025 27.3415C32.5894 27.6033 32.4484 28.1687 32.7101 28.6043L35.3866 33.0592L32.7101 37.5141C32.4484 37.9498 32.5893 38.5152 33.025 38.7769C33.1734 38.866 33.3368 38.9084 33.4981 38.9084C33.8106 38.9084 34.1153 38.7492 34.2878 38.462L36.4602 34.8461L38.6325 38.462C38.8051 38.7493 39.1099 38.9084 39.4223 38.9084C39.5836 38.9084 39.7469 38.866 39.8953 38.7769C40.3309 38.5152 40.472 37.9498 40.2103 37.5141L37.5337 33.0592Z" fill="white"/>
</svg>
