<svg width="42" height="43" viewBox="0 0 42 43" fill="none" xmlns="http://www.w3.org/2000/svg">
<rect y="0.5" width="42" height="42" rx="21" fill="white"/>
<path d="M13.4937 17.4595C14.9334 23.1147 19.3853 27.5666 25.0405 29.0063C27.1813 29.5513 29 27.7091 29 25.5V24.5C29 23.9477 28.5512 23.5053 28.0016 23.4508C27.073 23.3587 26.1818 23.1397 25.3456 22.8112L23.8263 24.3305C21.3553 23.148 19.352 21.1447 18.1695 18.6737L19.6888 17.1544C19.3603 16.3182 19.1413 15.427 19.0492 14.4984C18.9947 13.9488 18.5523 13.5 18 13.5H17C14.7909 13.5 12.9487 15.3187 13.4937 17.4595Z" stroke="#2997FC" stroke-width="1.5" stroke-linecap="round" stroke-linejoin="round"/>
</svg>
