<svg xmlns="http://www.w3.org/2000/svg" width="21.872" height="16.404" viewBox="0 0 21.872 16.404">
  <g id="Group_108727" data-name="Group 108727" transform="translate(-208 -19077)">
    <g id="Group_100402" data-name="Group 100402" transform="translate(208 19077)">
      <g id="Group_100402-2" data-name="Group 100402">
        <path id="Path_198072" data-name="Path 198072" d="M20.168,3.964l.26.737.521-.184V3.964Zm0,6.631h.781v-.553l-.521-.184Zm-20.31,0L-.4,9.858l-.521.184v.553Zm0-6.631H-.923v.552L-.4,4.7ZM2.983-.923A3.906,3.906,0,0,0-.923,2.983H.639A2.343,2.343,0,0,1,2.983.639Zm14.061,0H2.983V.639H17.043Zm3.906,3.906A3.906,3.906,0,0,0,17.043-.923V.639a2.343,2.343,0,0,1,2.343,2.343Zm0,.981V2.983H19.387v.981ZM18.605,7.279A2.736,2.736,0,0,1,20.428,4.7l-.52-1.473a4.3,4.3,0,0,0-2.865,4.052Zm1.823,2.579a2.736,2.736,0,0,1-1.823-2.579H17.043a4.3,4.3,0,0,0,2.865,4.052Zm.521,1.718v-.981H19.387v.981Zm-3.906,3.906a3.906,3.906,0,0,0,3.906-3.906H19.387a2.343,2.343,0,0,1-2.343,2.343Zm-14.061,0H17.043V13.919H2.983ZM-.923,11.575a3.906,3.906,0,0,0,3.906,3.906V13.919A2.343,2.343,0,0,1,.639,11.575Zm0-.981v.981H.639v-.981ZM1.421,7.279A2.735,2.735,0,0,1-.4,9.858l.52,1.473A4.3,4.3,0,0,0,2.983,7.279ZM-.4,4.7A2.735,2.735,0,0,1,1.421,7.279H2.983A4.3,4.3,0,0,0,.118,3.227ZM-.923,2.983v.981H.639V2.983Z" transform="translate(0.923 0.923)" fill="#fff"/>
        <path id="Path_198073" data-name="Path 198073" d="M8.308,7.385V9.728" transform="translate(-0.496 -0.354)" fill="none" stroke="#fff" stroke-linecap="round" stroke-width="0.923"/>
        <path id="Path_198074" data-name="Path 198074" d="M8.308,2.77V5.113" transform="translate(-0.496 0.355)" fill="none" stroke="#fff" stroke-linecap="round" stroke-width="0.923"/>
        <path id="Path_198075" data-name="Path 198075" d="M8.308,12v2.343" transform="translate(-0.496 -1.064)" fill="none" stroke="#fff" stroke-linecap="round" stroke-width="0.923"/>
      </g>
    </g>
  </g>
</svg>
