<svg width="46" height="46" viewBox="0 0 46 46" fill="none" xmlns="http://www.w3.org/2000/svg">
<circle cx="23.2849" cy="22.6721" r="22.5104" fill="white"/>
<g clip-path="url(#clip0_1_4641)">
<path d="M23.5626 20.5878C23.3453 20.5878 23.1689 20.4115 23.1689 20.1941V15.8634C23.1689 15.6461 23.3453 15.4697 23.5626 15.4697C23.78 15.4697 23.9563 15.6461 23.9563 15.8634V20.1941C23.9563 20.4115 23.78 20.5878 23.5626 20.5878Z" fill="url(#paint0_linear_1_4641)"/>
<path d="M31.4367 22.5562H15.6887C15.0364 22.5562 14.5076 23.085 14.5076 23.7373V26.4932C14.5076 27.1455 15.0364 27.6743 15.6887 27.6743H31.4367C32.089 27.6743 32.6178 27.1455 32.6178 26.4932V23.7373C32.6178 23.085 32.089 22.5562 31.4367 22.5562Z" fill="url(#paint1_linear_1_4641)"/>
<path d="M28.2876 19.0127H18.8388C17.5342 19.0127 16.4766 20.0703 16.4766 21.3749V28.8552C16.4766 30.1598 17.5342 31.2174 18.8388 31.2174H28.2876C29.5922 31.2174 30.6498 30.1598 30.6498 28.8552V21.3749C30.6498 20.0703 29.5922 19.0127 28.2876 19.0127Z" fill="url(#paint2_linear_1_4641)"/>
<path d="M26.3189 25.3122C27.1887 25.3122 27.8938 24.6071 27.8938 23.7374C27.8938 22.8677 27.1887 22.1626 26.3189 22.1626C25.4492 22.1626 24.7441 22.8677 24.7441 23.7374C24.7441 24.6071 25.4492 25.3122 26.3189 25.3122Z" fill="white"/>
<path d="M26.3187 24.525C26.7535 24.525 27.1061 24.1725 27.1061 23.7376C27.1061 23.3027 26.7535 22.9502 26.3187 22.9502C25.8838 22.9502 25.5312 23.3027 25.5312 23.7376C25.5312 24.1725 25.8838 24.525 26.3187 24.525Z" fill="url(#paint3_linear_1_4641)"/>
<path d="M20.807 25.3122C21.6767 25.3122 22.3818 24.6071 22.3818 23.7374C22.3818 22.8677 21.6767 22.1626 20.807 22.1626C19.9372 22.1626 19.2322 22.8677 19.2322 23.7374C19.2322 24.6071 19.9372 25.3122 20.807 25.3122Z" fill="white"/>
<path d="M20.8072 24.525C21.242 24.525 21.5946 24.1725 21.5946 23.7376C21.5946 23.3027 21.242 22.9502 20.8072 22.9502C20.3723 22.9502 20.0198 23.3027 20.0198 23.7376C20.0198 24.1725 20.3723 24.525 20.8072 24.525Z" fill="url(#paint4_linear_1_4641)"/>
<path d="M23.5627 28.4618C22.6769 28.4618 21.7981 28.2508 21.0206 27.8512C20.8273 27.7516 20.7509 27.5146 20.8501 27.3209C20.9493 27.128 21.1863 27.0512 21.3804 27.1504C22.7328 27.8457 24.3926 27.8457 25.745 27.1504C25.9383 27.0512 26.1757 27.1276 26.2753 27.3209C26.3745 27.5142 26.2985 27.7516 26.1048 27.8512C25.3273 28.2508 24.4481 28.4618 23.5627 28.4618Z" fill="white"/>
<path d="M23.5635 17.0445C24.3245 17.0445 24.9415 16.4276 24.9415 15.6665C24.9415 14.9055 24.3245 14.2886 23.5635 14.2886C22.8025 14.2886 22.1855 14.9055 22.1855 15.6665C22.1855 16.4276 22.8025 17.0445 23.5635 17.0445Z" fill="url(#paint5_linear_1_4641)"/>
</g>
<defs>
<linearGradient id="paint0_linear_1_4641" x1="23.5626" y1="17.0496" x2="23.5626" y2="19.013" gradientUnits="userSpaceOnUse">
<stop stop-color="#C6CBCC"/>
<stop offset="1" stop-color="#9FA5A6"/>
</linearGradient>
<linearGradient id="paint1_linear_1_4641" x1="23.5627" y1="22.3754" x2="23.5627" y2="27.705" gradientUnits="userSpaceOnUse">
<stop stop-color="#C6CBCC"/>
<stop offset="1" stop-color="#F4F5F7"/>
</linearGradient>
<linearGradient id="paint2_linear_1_4641" x1="18.0266" y1="21.3233" x2="27.2192" y2="31.9986" gradientUnits="userSpaceOnUse">
<stop stop-color="#4793EB"/>
<stop offset="1" stop-color="#2367EC"/>
</linearGradient>
<linearGradient id="paint3_linear_1_4641" x1="26.3187" y1="22.8946" x2="26.3187" y2="24.5344" gradientUnits="userSpaceOnUse">
<stop stop-color="#C6CBCC"/>
<stop offset="1" stop-color="#9FA5A6"/>
</linearGradient>
<linearGradient id="paint4_linear_1_4641" x1="20.8072" y1="22.8946" x2="20.8072" y2="24.5344" gradientUnits="userSpaceOnUse">
<stop stop-color="#C6CBCC"/>
<stop offset="1" stop-color="#9FA5A6"/>
</linearGradient>
<linearGradient id="paint5_linear_1_4641" x1="23.5635" y1="14.1913" x2="23.5635" y2="17.061" gradientUnits="userSpaceOnUse">
<stop stop-color="#C6CBCC"/>
<stop offset="1" stop-color="#F4F5F7"/>
</linearGradient>
<clipPath id="clip0_1_4641">
<rect width="18.8977" height="18.8977" fill="white" transform="translate(14.1143 13.501)"/>
</clipPath>
</defs>
</svg>
