<svg width="46" height="46" viewBox="0 0 46 46" fill="none" xmlns="http://www.w3.org/2000/svg">
<circle cx="23.0173" cy="22.6721" r="22.5104" fill="white"/>
<path d="M18.0846 22.5334C19.5811 22.5334 20.7942 21.3203 20.7942 19.8238C20.7942 18.3274 19.5811 17.1143 18.0846 17.1143C16.5881 17.1143 15.375 18.3274 15.375 19.8238C15.375 21.3203 16.5881 22.5334 18.0846 22.5334Z" fill="#8FA5A5"/>
<path d="M18.0849 21.6992C17.035 21.7004 16.0284 22.1181 15.286 22.8605C14.5436 23.6029 14.126 24.6095 14.1248 25.6594V27.5353C14.1254 28.0878 14.3452 28.6176 14.736 29.0084C15.1267 29.3991 15.6565 29.6189 16.2091 29.6196H19.9608C20.5134 29.6189 21.0432 29.3991 21.4339 29.0084C21.8246 28.6176 22.0444 28.0878 22.0451 27.5353V25.6594C22.0439 24.6095 21.6263 23.6029 20.8839 22.8605C20.1414 22.1181 19.1349 21.7004 18.0849 21.6992Z" fill="url(#paint0_linear_1_4662)"/>
<path d="M18.0846 22.5334C19.5811 22.5334 20.7942 21.3203 20.7942 19.8238C20.7942 18.3274 19.5811 17.1143 18.0846 17.1143C16.5881 17.1143 15.375 18.3274 15.375 19.8238C15.375 21.3203 16.5881 22.5334 18.0846 22.5334Z" fill="url(#paint1_linear_1_4662)"/>
<path d="M28.5065 22.533C30.0029 22.533 31.2161 21.3198 31.2161 19.8234C31.2161 18.3269 30.0029 17.1138 28.5065 17.1138C27.01 17.1138 25.7969 18.3269 25.7969 19.8234C25.7969 21.3198 27.01 22.533 28.5065 22.533Z" fill="#8FA5A5"/>
<path d="M28.507 21.6992C27.4571 21.7004 26.4505 22.1181 25.7081 22.8605C24.9657 23.6029 24.5481 24.6095 24.5469 25.6594V27.5353C24.5475 28.0878 24.7673 28.6176 25.1581 29.0084C25.5488 29.3991 26.0786 29.6189 26.6312 29.6196H30.3829C30.9355 29.6189 31.4653 29.3991 31.856 29.0084C32.2467 28.6176 32.4666 28.0878 32.4672 27.5353V25.6594C32.466 24.6095 32.0484 23.6029 31.306 22.8605C30.5636 22.1181 29.557 21.7004 28.507 21.6992Z" fill="url(#paint2_linear_1_4662)"/>
<path d="M28.5065 22.533C30.0029 22.533 31.2161 21.3198 31.2161 19.8234C31.2161 18.3269 30.0029 17.1138 28.5065 17.1138C27.01 17.1138 25.7969 18.3269 25.7969 19.8234C25.7969 21.3198 27.01 22.533 28.5065 22.533Z" fill="url(#paint3_linear_1_4662)"/>
<path d="M23.2954 21.2822C22.0797 21.2837 20.9142 21.7672 20.0546 22.6269C19.195 23.4865 18.7114 24.652 18.71 25.8677V28.3688C18.7106 28.9214 18.9304 29.4512 19.3212 29.8419C19.7119 30.2327 20.2417 30.4525 20.7943 30.4531H25.7966C26.3492 30.4525 26.8789 30.2327 27.2697 29.8419C27.6604 29.4512 27.8802 28.9214 27.8809 28.3688V25.8677C27.8794 24.652 27.3959 23.4865 26.5362 22.6269C25.6766 21.7672 24.5111 21.2837 23.2954 21.2822Z" fill="url(#paint4_linear_1_4662)"/>
<path d="M23.2958 22.1161C25.1376 22.1161 26.6307 20.623 26.6307 18.7812C26.6307 16.9394 25.1376 15.4463 23.2958 15.4463C21.454 15.4463 19.9609 16.9394 19.9609 18.7812C19.9609 20.623 21.454 22.1161 23.2958 22.1161Z" fill="url(#paint5_radial_1_4662)"/>
<defs>
<linearGradient id="paint0_linear_1_4662" x1="18.0849" y1="21.4196" x2="18.0849" y2="29.6671" gradientUnits="userSpaceOnUse">
<stop stop-color="#C6CBCC"/>
<stop offset="1" stop-color="#F4F5F7"/>
</linearGradient>
<linearGradient id="paint1_linear_1_4662" x1="18.0846" y1="16.9229" x2="18.0846" y2="22.566" gradientUnits="userSpaceOnUse">
<stop stop-color="#C6CBCC"/>
<stop offset="1" stop-color="#F4F5F7"/>
</linearGradient>
<linearGradient id="paint2_linear_1_4662" x1="28.507" y1="21.4196" x2="28.507" y2="29.6671" gradientUnits="userSpaceOnUse">
<stop stop-color="#C6CBCC"/>
<stop offset="1" stop-color="#F4F5F7"/>
</linearGradient>
<linearGradient id="paint3_linear_1_4662" x1="28.5065" y1="16.9224" x2="28.5065" y2="22.5655" gradientUnits="userSpaceOnUse">
<stop stop-color="#C6CBCC"/>
<stop offset="1" stop-color="#F4F5F7"/>
</linearGradient>
<linearGradient id="paint4_linear_1_4662" x1="19.7129" y1="23.0184" x2="26.6978" y2="30.0034" gradientUnits="userSpaceOnUse">
<stop stop-color="#4793EB"/>
<stop offset="1" stop-color="#2367EC"/>
</linearGradient>
<radialGradient id="paint5_radial_1_4662" cx="0" cy="0" r="1" gradientUnits="userSpaceOnUse" gradientTransform="translate(22.2091 17.754) scale(6.93614)">
<stop stop-color="#4793EB"/>
<stop offset="1" stop-color="#2367EC"/>
</radialGradient>
</defs>
</svg>
