<svg width="48" height="48" viewBox="0 0 48 48" fill="none" xmlns="http://www.w3.org/2000/svg">
<path d="M24 0.5C36.9787 0.5 47.5 11.0213 47.5 24C47.5 36.9787 36.9787 47.5 24 47.5C11.0213 47.5 0.5 36.9787 0.5 24C0.5 11.0213 11.0213 0.5 24 0.5Z" fill="#F7F7F7"/>
<path d="M24 0.5C36.9787 0.5 47.5 11.0213 47.5 24C47.5 36.9787 36.9787 47.5 24 47.5C11.0213 47.5 0.5 36.9787 0.5 24C0.5 11.0213 11.0213 0.5 24 0.5Z" stroke="#CCCCCC"/>
<circle cx="24" cy="24" r="2" stroke="#292929" stroke-width="1.2"/>
<path d="M17.3983 17.8791C16.4686 18.8812 15.7935 20.0704 15.4004 21.3445L16.9997 22.2678C18.333 23.0376 18.333 24.9621 16.9997 25.7319L15.3987 26.6563C15.5939 27.2863 15.8618 27.9046 16.2055 28.4999C16.5492 29.0952 16.9506 29.6363 17.3986 30.1204L18.9997 29.196C20.333 28.4262 21.9997 29.3885 21.9997 30.9281L21.9997 32.7749C23.2996 33.0715 24.6671 33.0814 25.9998 32.7773L25.9998 30.9282C25.9998 29.3886 27.6665 28.4263 28.9998 29.1961L30.6012 30.1207C31.5309 29.1186 32.206 27.9294 32.5991 26.6553L30.9998 25.7319C29.6664 24.9621 29.6664 23.0376 30.9998 22.2678L32.6008 21.3434C32.4056 20.7134 32.1377 20.0952 31.794 19.4999C31.4503 18.9046 31.0488 18.3634 30.6008 17.8793L28.9998 18.8037C27.6665 19.5735 25.9998 18.6112 25.9998 17.0716L25.9998 15.2249C24.6999 14.9283 23.3324 14.9183 21.9997 15.2225L21.9997 17.0716C21.9997 18.6112 20.333 19.5735 18.9997 18.8037L17.3983 17.8791Z" stroke="#292929" stroke-width="1.2" stroke-linejoin="round"/>
</svg>
