<svg xmlns="http://www.w3.org/2000/svg" width="71" height="71" viewBox="0 0 71 71">
  <g id="Group_486" data-name="Group 486" transform="translate(-161 -299)">
    <circle id="Ellipse_218" data-name="Ellipse 218" cx="35.5" cy="35.5" r="35.5" transform="translate(161 299)" fill="#f7f7fc"/>
    <path id="Path_1612" data-name="Path 1612" d="M188.652,332.1c3.017-5.339,4.526-8.008,6.6-8.7a5.541,5.541,0,0,1,3.5,0c2.07.687,3.579,3.356,6.6,8.7s4.526,8.008,4.073,10.183a5.82,5.82,0,0,1-1.752,3.1c-1.618,1.488-4.635,1.488-10.669,1.488s-9.051,0-10.669-1.488a5.82,5.82,0,0,1-1.752-3.1C184.126,340.112,185.635,337.442,188.652,332.1Z" fill="none" stroke="#141b34" stroke-width="1.875"/>
    <path id="Path_1613" data-name="Path 1613" d="M197.3,341.25v-5c0-.589,0-.884-.183-1.067s-.478-.183-1.067-.183" fill="none" stroke="#141b34" stroke-linecap="round" stroke-linejoin="round" stroke-width="1.875"/>
    <path id="Path_1614" data-name="Path 1614" d="M196.99,331.25H197" fill="none" stroke="#141b34" stroke-linecap="round" stroke-linejoin="round" stroke-width="2.5"/>
  </g>
</svg>
