<svg xmlns="http://www.w3.org/2000/svg" width="76" height="76" viewBox="0 0 76 76">
  <g id="Group_110056" data-name="Group 110056" transform="translate(-231 -414)">
    <circle id="Ellipse_477" data-name="Ellipse 477" cx="38" cy="38" r="38" transform="translate(231 414)" fill="#f7f7fc"/>
    <g id="Group_110013" data-name="Group 110013" transform="translate(257 440)">
      <path id="Path_198866" data-name="Path 198866" d="M18.99,19H19m-.01,0c-.623.618-1.751.464-2.543.464a2.518,2.518,0,0,0-2.133.883C13.725,20.937,12.934,22,12,22s-1.725-1.063-2.315-1.653a2.518,2.518,0,0,0-2.133-.883c-.791,0-1.92.154-2.543-.464s-.473-1.756-.473-2.552A2.584,2.584,0,0,0,3.6,14.262C2.533,13.2,2,12.662,2,12s.533-1.2,1.6-2.262a2.842,2.842,0,0,0,.937-2.186c0-.791-.154-1.92.464-2.543s1.756-.473,2.552-.473A2.842,2.842,0,0,0,9.738,3.6C10.8,2.533,11.337,2,12,2s1.2.533,2.262,1.6a2.842,2.842,0,0,0,2.186.937c.791,0,1.92-.154,2.543.464s.473,1.756.473,2.552A2.585,2.585,0,0,0,20.4,9.738C21.467,10.8,22,11.337,22,12s-.533,1.2-1.6,2.262a2.584,2.584,0,0,0-.937,2.186C19.464,17.244,19.618,18.378,18.99,19Z" fill="none" stroke="#000" stroke-width="1.5"/>
      <path id="Path_198867" data-name="Path 198867" d="M9,12.893A5.571,5.571,0,0,1,10.8,14.5s1.8-3.75,4.2-5" fill="none" stroke="#000" stroke-linecap="round" stroke-linejoin="round" stroke-width="1.5"/>
    </g>
  </g>
</svg>
