<svg width="21" height="20" viewBox="0 0 21 20" fill="none" xmlns="http://www.w3.org/2000/svg">
<path d="M14.1002 5.17509C14.0139 5.10679 13.915 5.05625 13.809 5.02639C13.7031 4.99653 13.5924 4.98794 13.4831 5.00111C13.3739 5.01428 13.2684 5.04895 13.1726 5.10313C13.0768 5.15731 12.9927 5.22991 12.9252 5.31676L7.09182 12.8168L4.23349 9.33342C4.16645 9.24418 4.08215 9.16931 3.98562 9.11326C3.88908 9.05722 3.78227 9.02114 3.67152 9.00717C3.56077 8.9932 3.44835 9.00162 3.34092 9.03193C3.23349 9.06225 3.13324 9.11383 3.04613 9.18363C2.95902 9.25343 2.88682 9.34002 2.83382 9.43826C2.78082 9.5365 2.74809 9.64439 2.73759 9.75552C2.72708 9.86665 2.73901 9.97875 2.77266 10.0852C2.80631 10.1916 2.86101 10.2902 2.93349 10.3751L6.40849 14.6918C6.48692 14.7884 6.58602 14.8663 6.6985 14.9197C6.81099 14.973 6.934 15.0005 7.05849 15.0001C7.19064 15.006 7.32229 14.9803 7.44257 14.9253C7.56284 14.8702 7.66828 14.7873 7.75016 14.6834L14.2752 6.35009C14.3417 6.26178 14.39 6.16111 14.4172 6.05395C14.4444 5.9468 14.4501 5.83529 14.4338 5.72593C14.4175 5.61658 14.3796 5.51155 14.3223 5.41698C14.2651 5.32241 14.1895 5.24018 14.1002 5.17509Z" fill="white"/>
<path d="M18.2669 5.17509C18.1806 5.10679 18.0817 5.05625 17.9758 5.02639C17.8699 4.99653 17.7591 4.98794 17.6498 5.00111C17.5406 5.01428 17.4351 5.04895 17.3393 5.10313C17.2435 5.15731 17.1594 5.22991 17.0919 5.31676L11.2585 12.8168L10.7502 12.1918L9.7002 13.5418L10.6169 14.6834C10.6953 14.7801 10.7944 14.858 10.9069 14.9113C11.0194 14.9647 11.1424 14.9922 11.2669 14.9918C11.392 14.9912 11.5155 14.9624 11.628 14.9076C11.7405 14.8528 11.8393 14.7733 11.9169 14.6751L18.4419 6.34176C18.5071 6.2537 18.5543 6.15365 18.5808 6.04733C18.6073 5.941 18.6126 5.83049 18.5963 5.72213C18.5801 5.61376 18.5426 5.50966 18.4861 5.4158C18.4295 5.32193 18.3551 5.24013 18.2669 5.17509Z" fill="white"/>
<path d="M7.50835 10.8839L8.58335 9.53389L8.41668 9.33389C8.35089 9.24274 8.26734 9.16585 8.17105 9.10783C8.07476 9.04982 7.96773 9.01188 7.85641 8.99631C7.74508 8.98074 7.63175 8.98786 7.52324 9.01723C7.41473 9.0466 7.31329 9.09762 7.22501 9.16723C7.13941 9.23599 7.06824 9.321 7.01559 9.41737C6.96295 9.51373 6.92987 9.61955 6.91825 9.72874C6.90663 9.83793 6.91671 9.94834 6.94791 10.0536C6.9791 10.1589 7.03079 10.257 7.10001 10.3422L7.50835 10.8839Z" fill="white"/>
</svg>
