<svg xmlns="http://www.w3.org/2000/svg" width="17.505" height="17.805" viewBox="0 0 17.505 17.805">
  <g id="Group_99861" data-name="Group 99861" transform="translate(0.75 0.75)">
    <path id="Path_190180" data-name="Path 190180" d="M1178.524,1027.737l-.246-.34a2.95,2.95,0,0,1-.53-1.381,3.01,3.01,0,0,1,.18-1.476" transform="translate(-1168.526 -1011.733)" fill="none" stroke="#8f8f8f" stroke-linecap="round" stroke-width="1.5"/>
    <path id="Path_190181" data-name="Path 190181" d="M1174.34,1027.737l.255-.34a3.166,3.166,0,0,0,.53-1.381,3.123,3.123,0,0,0-.18-1.476" transform="translate(-1168.343 -1011.733)" fill="none" stroke="#8f8f8f" stroke-linecap="round" stroke-width="1.5"/>
    <path id="Path_190182" data-name="Path 190182" d="M1172.23,1027.92h8" transform="translate(-1168.229 -1011.915)" fill="none" stroke="#8f8f8f" stroke-linecap="round" stroke-width="1.5"/>
    <path id="Path_190183" data-name="Path 190183" d="M1177.6,1011h-3.2c-2.63,0-3.935,0-4.871.653a3.532,3.532,0,0,0-.88.88c-.653.936-.653,2.242-.653,4.871s0,3.935.653,4.862a3.736,3.736,0,0,0,.88.889c.936.643,2.242.643,4.871.643h3.2c2.62,0,3.935,0,4.862-.643a3.778,3.778,0,0,0,.889-.889c.653-.927.653-2.242.653-4.862s0-3.935-.653-4.871a3.572,3.572,0,0,0-.889-.88C1181.536,1011,1180.221,1011,1177.6,1011Z" transform="translate(-1168 -1011)" fill="none" stroke="#8f8f8f" stroke-linecap="round" stroke-width="1.5"/>
  </g>
</svg>
