<svg xmlns="http://www.w3.org/2000/svg" xmlns:xlink="http://www.w3.org/1999/xlink" width="61" height="60" viewBox="0 0 61 60">
  <defs>
    <clipPath id="clip-path">
      <rect id="Rectangle_40551" data-name="Rectangle 40551" width="34" height="34" fill="#fff"/>
    </clipPath>
  </defs>
  <g id="Group_109021" data-name="Group 109021" transform="translate(-286 -539)">
    <g id="Group_109013" data-name="Group 109013" transform="translate(-5490 -4016)">
      <g id="Group_100089" data-name="Group 100089" transform="translate(5755.457 3829.39)">
        <ellipse id="Ellipse_13" data-name="Ellipse 13" cx="30.5" cy="30" rx="30.5" ry="30" transform="translate(20.543 725.61)" fill="#009af1"/>
      </g>
    </g>
    <g id="Group_109017" data-name="Group 109017" transform="translate(300 552)" clip-path="url(#clip-path)">
      <path id="Path_198578" data-name="Path 198578" d="M10.081,8.665a5.665,5.665,0,1,1,5.665,5.665A5.665,5.665,0,0,1,10.081,8.665Zm0,8.5A7.081,7.081,0,0,0,3,24.242a4.249,4.249,0,0,0,4.248,4.248H24.242a4.248,4.248,0,0,0,4.248-4.248,7.081,7.081,0,0,0-7.081-7.081Z" transform="translate(1.248 1.248)" fill="#fff" fill-rule="evenodd"/>
    </g>
  </g>
</svg>
