<svg width="87" height="24" viewBox="0 0 87 24" fill="none" xmlns="http://www.w3.org/2000/svg">
<rect width="87" height="24" rx="12" fill="url(#paint0_linear_47806_38469)"/>
<g clip-path="url(#clip0_47806_38469)">
<path d="M17.8399 15.5996H10.1599C9.76298 15.5996 9.43994 15.9226 9.43994 16.3196C9.43994 16.7166 9.76298 17.0396 10.1599 17.0396H17.8399C18.2369 17.0396 18.5599 16.7166 18.5599 16.3196C18.5599 15.9226 18.2369 15.5996 17.8399 15.5996Z" fill="white"/>
<path d="M19.04 8.39898C18.5106 8.39898 18.08 8.82955 18.08 9.35898C18.08 9.71467 18.2768 10.0223 18.5653 10.1884C18.0099 11.5036 17.1435 12.3105 16.3337 12.2375C15.4333 12.1641 14.6989 11.0995 14.2937 9.31818C14.8131 9.18665 15.2 8.71865 15.2 8.15898C15.2 7.49706 14.6619 6.95898 14 6.95898C13.3381 6.95898 12.8 7.49706 12.8 8.15898C12.8 8.71867 13.1869 9.18667 13.7062 9.31818C13.3011 11.0995 12.5667 12.1641 11.6662 12.2375C10.8598 12.3105 9.98956 11.5036 9.4347 10.1884C9.72317 10.0223 9.91998 9.71465 9.91998 9.35898C9.91998 8.82955 9.48941 8.39898 8.95998 8.39898C8.43057 8.39898 8 8.82955 8 9.35898C8 9.85148 8.37439 10.2537 8.85247 10.3084L9.77696 15.119H18.223L19.1475 10.3084C19.6256 10.2537 20 9.85148 20 9.35898C20 8.82955 19.5694 8.39898 19.04 8.39898Z" fill="white"/>
</g>
<path d="M27.1126 16V7.36H30.7726C31.3966 7.36 31.9286 7.464 32.3686 7.672C32.8086 7.88 33.1446 8.176 33.3766 8.56C33.6166 8.944 33.7366 9.4 33.7366 9.928C33.7366 10.464 33.6166 10.928 33.3766 11.32C33.1446 11.704 32.8046 12.004 32.3566 12.22C31.9166 12.436 31.3886 12.544 30.7726 12.544H28.0846V11.488H30.7126C31.2806 11.488 31.7126 11.352 32.0086 11.08C32.3126 10.808 32.4646 10.428 32.4646 9.94C32.4646 9.444 32.3166 9.064 32.0206 8.8C31.7246 8.536 31.2886 8.404 30.7126 8.404H28.3846V16H27.1126ZM35.0342 16V9.88H36.2222V11.404H36.2822V16H35.0342ZM36.2822 12.808L36.1262 11.356C36.2702 10.836 36.5182 10.44 36.8702 10.168C37.2222 9.896 37.6422 9.76 38.1302 9.76C38.3142 9.76 38.4422 9.776 38.5142 9.808V10.984C38.4742 10.968 38.4182 10.96 38.3462 10.96C38.2742 10.952 38.1862 10.948 38.0822 10.948C37.4822 10.948 37.0302 11.104 36.7262 11.416C36.4302 11.728 36.2822 12.192 36.2822 12.808ZM42.0922 16.12C41.4762 16.12 40.9322 15.984 40.4602 15.712C39.9962 15.44 39.6322 15.064 39.3682 14.584C39.1042 14.104 38.9722 13.552 38.9722 12.928C38.9722 12.296 39.1002 11.744 39.3562 11.272C39.6202 10.792 39.9882 10.42 40.4602 10.156C40.9322 9.892 41.4722 9.76 42.0802 9.76C42.6722 9.76 43.1842 9.888 43.6162 10.144C44.0562 10.392 44.3922 10.74 44.6242 11.188C44.8642 11.636 44.9842 12.168 44.9842 12.784C44.9842 12.88 44.9802 12.972 44.9722 13.06C44.9722 13.14 44.9642 13.224 44.9482 13.312H39.8122V12.376H44.0722L43.7602 12.748C43.7602 12.092 43.6122 11.592 43.3162 11.248C43.0202 10.904 42.6082 10.732 42.0802 10.732C41.5122 10.732 41.0602 10.928 40.7242 11.32C40.3962 11.704 40.2322 12.24 40.2322 12.928C40.2322 13.624 40.3962 14.168 40.7242 14.56C41.0602 14.952 41.5242 15.148 42.1162 15.148C42.4762 15.148 42.7882 15.076 43.0522 14.932C43.3162 14.78 43.5122 14.56 43.6402 14.272H44.8162C44.6162 14.848 44.2762 15.3 43.7962 15.628C43.3242 15.956 42.7562 16.12 42.0922 16.12ZM46.2608 16V9.88H47.4488V11.32H47.5088V16H46.2608ZM50.3888 16V12.004C50.3888 11.588 50.2928 11.284 50.1008 11.092C49.9088 10.9 49.6328 10.804 49.2728 10.804C48.9368 10.804 48.6328 10.884 48.3608 11.044C48.0968 11.196 47.8888 11.412 47.7368 11.692C47.5848 11.964 47.5088 12.288 47.5088 12.664L47.3528 11.236C47.5528 10.78 47.8528 10.42 48.2528 10.156C48.6608 9.892 49.1168 9.76 49.6208 9.76C50.2288 9.76 50.7128 9.936 51.0728 10.288C51.4408 10.64 51.6248 11.104 51.6248 11.68V16H50.3888ZM54.5168 16V12.004C54.5168 11.588 54.4168 11.284 54.2168 11.092C54.0248 10.9 53.7488 10.804 53.3888 10.804C53.0608 10.804 52.7608 10.884 52.4888 11.044C52.2248 11.196 52.0128 11.412 51.8528 11.692C51.7008 11.964 51.6248 12.288 51.6248 12.664L51.3728 11.236C51.5808 10.78 51.8928 10.42 52.3088 10.156C52.7328 9.892 53.2048 9.76 53.7248 9.76C54.3408 9.76 54.8328 9.94 55.2008 10.3C55.5688 10.652 55.7528 11.124 55.7528 11.716V16H54.5168ZM57.4053 16V9.88H58.6533V16H57.4053ZM57.3453 8.68V7.276H58.7253V8.68H57.3453ZM62.327 16.12C61.919 16.12 61.559 16.036 61.247 15.868C60.935 15.692 60.691 15.452 60.515 15.148C60.347 14.844 60.263 14.496 60.263 14.104V9.88H61.511V13.816C61.511 14.24 61.615 14.556 61.823 14.764C62.031 14.972 62.327 15.076 62.711 15.076C63.055 15.076 63.359 14.996 63.623 14.836C63.895 14.676 64.107 14.456 64.259 14.176C64.419 13.888 64.499 13.556 64.499 13.18L64.655 14.644C64.455 15.092 64.147 15.452 63.731 15.724C63.323 15.988 62.855 16.12 62.327 16.12ZM64.547 16V14.56H64.499V9.88H65.735V16H64.547ZM67.4834 16V9.88H68.6714V11.32H68.7314V16H67.4834ZM71.6114 16V12.004C71.6114 11.588 71.5154 11.284 71.3234 11.092C71.1314 10.9 70.8554 10.804 70.4954 10.804C70.1594 10.804 69.8554 10.884 69.5834 11.044C69.3194 11.196 69.1114 11.412 68.9594 11.692C68.8074 11.964 68.7314 12.288 68.7314 12.664L68.5754 11.236C68.7754 10.78 69.0754 10.42 69.4754 10.156C69.8834 9.892 70.3394 9.76 70.8434 9.76C71.4514 9.76 71.9354 9.936 72.2954 10.288C72.6634 10.64 72.8474 11.104 72.8474 11.68V16H71.6114ZM75.7394 16V12.004C75.7394 11.588 75.6394 11.284 75.4394 11.092C75.2474 10.9 74.9714 10.804 74.6114 10.804C74.2834 10.804 73.9834 10.884 73.7114 11.044C73.4474 11.196 73.2354 11.412 73.0754 11.692C72.9234 11.964 72.8474 12.288 72.8474 12.664L72.5954 11.236C72.8034 10.78 73.1154 10.42 73.5314 10.156C73.9554 9.892 74.4274 9.76 74.9474 9.76C75.5634 9.76 76.0554 9.94 76.4234 10.3C76.7914 10.652 76.9754 11.124 76.9754 11.716V16H75.7394Z" fill="white"/>
<defs>
<linearGradient id="paint0_linear_47806_38469" x1="0" y1="12" x2="87" y2="12" gradientUnits="userSpaceOnUse">
<stop stop-color="#8E2DE2"/>
<stop offset="1" stop-color="#4A00E0"/>
</linearGradient>
<clipPath id="clip0_47806_38469">
<rect width="12" height="12" fill="white" transform="translate(8 6)"/>
</clipPath>
</defs>
</svg>
