<svg xmlns="http://www.w3.org/2000/svg" width="21.5" height="19.5" viewBox="0 0 21.5 19.5">
  <path id="Path_198665" data-name="Path 198665" d="M4.953,2.25H19.047a14.68,14.68,0,0,1,1.693.057,2.276,2.276,0,0,1,1.334.558,2.1,2.1,0,0,1,.614,1.3,12.165,12.165,0,0,1,.063,1.6V6.54c0,.489,0,.911-.036,1.263a2.51,2.51,0,0,1-.331,1.076,2.647,2.647,0,0,1-.8.805c-.3.208-.681.423-1.13.676l-2.942,1.656a7.336,7.336,0,0,0-1.059.648A1.932,1.932,0,0,0,15.8,13.75a5.964,5.964,0,0,0-.046,1.123V17.6a15.928,15.928,0,0,1-.093,2.255,2.145,2.145,0,0,1-.928,1.6,2.347,2.347,0,0,1-1.86.184,18.824,18.824,0,0,1-2.243-.784l-.087-.034c-.419-.164-.785-.307-1.076-.457a2.2,2.2,0,0,1-.823-.673,2.074,2.074,0,0,1-.354-1,10.33,10.33,0,0,1-.036-1.116V14.873A5.962,5.962,0,0,0,8.2,13.75a1.933,1.933,0,0,0-.659-1.086,7.337,7.337,0,0,0-1.059-.648L3.545,10.36c-.449-.253-.831-.468-1.13-.676a2.648,2.648,0,0,1-.8-.805A2.51,2.51,0,0,1,1.286,7.8C1.25,7.451,1.25,7.029,1.25,6.54V5.815q0-.026,0-.051a12.175,12.175,0,0,1,.063-1.6,2.1,2.1,0,0,1,.614-1.3A2.276,2.276,0,0,1,3.26,2.307,14.679,14.679,0,0,1,4.953,2.25ZM3.448,3.8a.83.83,0,0,0-.5.164c-.049.046-.113.127-.155.418A11.547,11.547,0,0,0,2.75,5.815V6.5c0,.534,0,.878.028,1.144A1.04,1.04,0,0,0,2.9,8.1a1.185,1.185,0,0,0,.369.348c.234.162.553.343,1.04.617l2.913,1.64.081.045a7.645,7.645,0,0,1,1.226.777,3.43,3.43,0,0,1,1.139,1.893,6.467,6.467,0,0,1,.082,1.361q0,.044,0,.088v2.67a9.614,9.614,0,0,0,.027.981.61.61,0,0,0,.087.3.747.747,0,0,0,.289.209c.212.11.505.225.967.406a18.334,18.334,0,0,0,2.1.743c.479.114.636.055.718,0s.173-.129.241-.562a15.431,15.431,0,0,0,.074-2.084V14.785a6.467,6.467,0,0,1,.082-1.361,3.43,3.43,0,0,1,1.139-1.893,7.644,7.644,0,0,1,1.226-.777l.081-.045,2.913-1.64c.487-.274.806-.455,1.04-.617A1.186,1.186,0,0,0,21.1,8.1a1.04,1.04,0,0,0,.123-.455c.028-.266.028-.61.028-1.144v-.69A11.554,11.554,0,0,0,21.2,4.377c-.042-.291-.106-.372-.155-.418a.83.83,0,0,0-.5-.164A14.078,14.078,0,0,0,19,3.75H5A14.076,14.076,0,0,0,3.448,3.8Z" transform="translate(-1.25 -2.25)" fill-rule="evenodd"/>
</svg>
