<svg width="29" height="29" viewBox="0 0 29 29" fill="none" xmlns="http://www.w3.org/2000/svg">
<path fill-rule="evenodd" clip-rule="evenodd" d="M14.4998 1.8125C21.5058 1.8125 27.1874 7.49415 27.1874 14.5001C27.1874 21.506 21.5058 27.1877 14.4998 27.1877C7.49391 27.1877 1.81226 21.506 1.81226 14.5001C1.81226 7.49415 7.49391 1.8125 14.4998 1.8125ZM13.1406 15.5919V9.06172C13.1406 8.3131 13.7512 7.70246 14.4998 7.70246C15.2485 7.70246 15.8591 8.31877 15.8591 9.06172V15.5919C15.8591 16.3348 15.2484 16.9511 14.4998 16.9511C13.7512 16.9511 13.1406 16.3405 13.1406 15.5919ZM14.494 18.409C15.3447 18.409 16.0346 19.0989 16.0346 19.9496C16.0346 20.8003 15.3447 21.4903 14.494 21.4903C13.6433 21.4903 12.9534 20.8003 12.9534 19.9496C12.9534 19.0989 13.6433 18.409 14.494 18.409Z" fill="#FF0000"/>
</svg>
