<svg width="18" height="15" viewBox="0 0 18 15" fill="none" xmlns="http://www.w3.org/2000/svg">
<path d="M11.9171 10.2592L9.07215 7.40968M9.07215 7.40968L6.22716 10.2592M9.07215 7.40968V13.8211M15.0395 11.9618C15.7332 11.583 16.2812 10.9836 16.5971 10.2582C16.9129 9.53283 16.9785 8.72276 16.7837 7.95585C16.5888 7.18895 16.1444 6.50888 15.5208 6.02299C14.8972 5.5371 14.1297 5.27306 13.3396 5.27253H12.4435C12.2282 4.43851 11.8269 3.66422 11.2699 3.00787C10.7128 2.35152 10.0144 1.8302 9.22728 1.4831C8.4401 1.136 7.58461 0.972147 6.72512 1.00386C5.86562 1.03558 5.02449 1.26204 4.26495 1.66622C3.50542 2.0704 2.84724 2.64179 2.33992 3.33741C1.83259 4.03304 1.48931 4.8348 1.33589 5.68243C1.18247 6.53007 1.22289 7.40151 1.45412 8.23124C1.68536 9.06097 2.10138 9.8274 2.67092 10.4729" stroke="black" stroke-linecap="round" stroke-linejoin="round"/>
</svg>
