<svg width="178" height="494" viewBox="0 0 178 494" fill="none" xmlns="http://www.w3.org/2000/svg">
<path d="M37.3679 222.601L42.6165 223.909L46.1157 219.548C45.6784 209.371 44.8036 188.755 44.8036 187.708C44.8036 186.662 43.9288 180.003 43.4914 176.805C28.6203 177.241 15.9359 180.73 10.6873 182.475C6.48841 183.87 7.18823 186.545 8.063 187.708C9.81255 192.942 28.1827 195.123 31.2444 195.995C33.6938 196.693 33.723 197.449 33.4314 197.74L37.3679 198.612V222.601Z" fill="#D9D9D9"/>
<path d="M37.3679 310.358L42.6165 311.666L46.1157 307.305C45.6784 297.128 44.8036 276.512 44.8036 275.465C44.8036 274.419 43.9288 267.76 43.4914 264.562C28.6203 264.998 15.9359 268.487 10.6873 270.232C6.48841 271.627 7.18823 274.302 8.063 275.465C9.81255 280.699 28.1827 282.88 31.2444 283.752C33.6938 284.45 33.723 285.206 33.4314 285.497L37.3679 286.369V310.358Z" fill="#D9D9D9"/>
<path d="M140.685 222.601L135.436 223.909L131.937 219.548C132.374 209.371 133.249 188.755 133.249 187.708C133.249 186.662 134.124 180.003 134.561 176.805C149.432 177.241 162.117 180.73 167.365 182.475C171.564 183.87 170.864 186.545 169.989 187.708C168.24 192.942 149.87 195.123 146.808 195.995C144.359 196.693 144.33 197.449 144.621 197.74L140.685 198.612V222.601Z" fill="#D9D9D9"/>
<path d="M140.685 310.358L135.436 311.666L131.937 307.305C132.374 297.128 133.249 276.512 133.249 275.465C133.249 274.419 134.124 267.76 134.561 264.562C149.432 264.998 162.117 268.487 167.365 270.232C171.564 271.627 170.864 274.302 169.989 275.465C168.24 280.699 149.87 282.88 146.808 283.752C144.359 284.45 144.33 285.206 144.621 285.497L140.685 286.369V310.358Z" fill="#D9D9D9"/>
<path d="M0.946533 364.458V384.582L36.7591 389.099L177.106 382.324V364.472C177.106 362.145 175.875 359.988 173.703 359.156C157.713 353.029 113.734 347.504 90.3167 347.802C46.115 346.223 16.1004 354.546 4.7063 358.825C2.37631 359.7 0.946533 361.97 0.946533 364.458Z" fill="#D9D9D9"/>
<path fill-rule="evenodd" clip-rule="evenodd" d="M43.2121 73.561L41.2763 93.8871L40.3084 102.276V119.526C40.3084 119.64 40.3239 119.754 40.3545 119.864L41.8766 125.343C41.9065 125.451 41.922 125.562 41.9226 125.674L43.1561 326.424C43.1932 332.451 42.1168 338.432 39.9813 344.067C34.4394 358.692 27.5125 374.685 13.0251 380.575C9.72808 381.916 6.57804 382.315 4.00111 381.094C2.87912 380.562 0.997545 381.293 1.01971 382.534L2.55646 468.592C2.5588 468.723 2.57861 468.847 2.62363 468.97C5.86316 477.843 27.433 494.981 88.7038 493.956H89.6716C150.938 494.981 172.509 477.846 175.751 468.972C175.797 468.848 175.816 468.723 175.818 468.59L177.048 382.509C177.066 381.27 175.196 380.551 174.079 381.088C171.559 382.297 168.501 381.93 165.297 380.637C150.795 374.782 143.936 358.692 138.394 344.067C136.259 338.432 135.182 332.451 135.219 326.424L136.453 125.674C136.453 125.562 136.469 125.451 136.499 125.343L138.021 119.864C138.052 119.754 138.067 119.64 138.067 119.526V102.276L137.099 93.8871L135.163 73.561C134.755 69.2738 132.506 68.1838 122.622 63.3941C122.093 63.1375 121.542 62.8703 120.967 62.5914C113.553 58.99 100.415 57.3157 91.7214 56.7123C91.6564 56.7078 91.6076 56.6539 91.6076 56.5888C91.6076 56.5189 91.55 56.4629 91.4802 56.465C90.7895 56.4855 90.021 56.5164 89.1877 56.559C88.3543 56.5164 87.5859 56.4855 86.8952 56.465C86.8255 56.4629 86.7679 56.519 86.7679 56.5888C86.7679 56.6539 86.719 56.7078 86.654 56.7123C77.9607 57.3157 64.8227 58.99 57.4081 62.5914C56.8339 62.8703 56.2825 63.1375 55.753 63.3941C45.8696 68.1838 43.6205 69.2738 43.2121 73.561Z" fill="url(#paint0_linear_53_1782)"/>
<rect x="48.0515" y="180.031" width="81.9496" height="120.666" rx="4.51691" fill="#1F1F1F"/>
<path d="M1.2666 395.55C5.19535 402.276 28.3402 415.659 88.2271 414.122C113.817 413.801 167.102 409.386 176.786 395.55V410.703C174.875 413.479 169.903 419.246 164.041 420.527C163.344 420.68 162.762 420.804 162.283 420.902L158.626 429.175L130.912 438.143C129.001 438.357 123.522 437.182 116.896 433.338H88.2271H64.9732L53.5055 437.502C44.5861 437.716 25.4096 436.221 20.058 428.534L17.5096 424.05L15.2798 422.449C10.714 419.993 1.58228 414.186 1.58228 410.599C1.58228 407.012 1.2666 398.966 1.2666 395.55Z" fill="#111111"/>
<circle cx="89.0261" cy="42.9106" r="42.9106" fill="url(#paint1_linear_53_1782)"/>
<rect x="65.3501" y="29" width="16.4155" height="16.4155" rx="3.78819" fill="white"/>
<rect x="95.6555" y="29" width="16.4155" height="16.4155" rx="3.78819" fill="white"/>
<rect x="48" y="189" width="82.0001" height="112.028" rx="4.52" fill="#1F1F1F"/>
<mask id="mask0_53_1782" style="mask-type:alpha" maskUnits="userSpaceOnUse" x="48" y="189" width="83" height="113">
<rect x="48" y="189" width="82.0001" height="112.028" rx="4.52" fill="black"/>
</mask>
<g mask="url(#mask0_53_1782)">
<g clip-path="url(#clip0_53_1782)">
<path d="M103.085 284.911C100.168 288.541 94.6676 299.068 87.2959 309.342C94.8228 311.509 102.729 311.961 112.133 307.497H128.609C121.177 292.314 112.455 273.251 103.085 284.911Z" fill="url(#paint2_linear_53_1782)"/>
<path d="M56.7261 296.065C41.9396 296.272 33.7747 304.813 26.1069 313.257C30.6306 317.467 35.5939 322.166 41.1464 327.224C64.1036 348.147 84.8105 328.736 99.3355 308.495C85.6842 304.566 73.0934 295.832 56.7261 296.062V296.065Z" fill="url(#paint3_linear_53_1782)"/>
<path d="M-101.052 298.571C-108.544 299.824 -114.562 304.146 -122.181 301.502C-128.541 299.295 -133.861 294.019 -136.275 287.753C-139.968 278.171 -137.844 267.135 -133.036 258.062C-130.964 254.148 -127.38 250.01 -123.015 250.762C-120.241 251.242 -118.198 253.613 -116.778 256.048C-113.562 261.563 -110.823 266.25 -103.679 266.489C-99.3763 266.633 -95.1947 265.178 -91.151 263.698C-87.1074 262.218 -82.9775 260.675 -78.6723 260.632C-61.4486 260.456 -54.8529 279.583 -48.1479 291.966C-41.9172 303.474 -32.2405 317.229 -18.6582 318.085C-6.75134 318.838 6.19011 308.725 13.8377 300.514C22.4826 291.234 31.4293 281.183 41.2783 272.97C65.1638 253.05 77.3696 281.497 97.381 289.728C109.118 294.556 117.686 290.147 124.623 279.902C130.351 271.444 134.268 261.336 142.45 255.223C148.075 251.018 157.72 250.136 160.844 256.424C163.479 261.727 159.542 267.808 155.812 272.406C148.822 281.022 141.766 289.705 133.156 296.7C124.549 303.698 114.159 308.977 103.086 309.67C81.4592 311.027 59.8355 295.096 39.3557 302.172C29.3916 305.615 22.04 313.886 14.2602 321.002C6.47751 328.115 -3.32558 334.656 -13.7753 333.265C-24.0497 331.9 -31.6111 323.422 -39.6783 316.912C-56.9796 302.951 -79.1292 294.904 -101.058 298.568L-101.052 298.571Z" fill="url(#paint4_linear_53_1782)"/>
<path d="M142.594 287.342C141.456 290.869 138.789 293.674 136.038 296.157C128.049 303.376 118.95 310.337 108.333 313.036C94.1791 316.634 81.5452 309.041 68.6411 304.575C61.0883 301.959 52.8027 300.721 45.1579 303.051C28.4545 308.144 10.064 339.442 -8.17994 339.597C-23.2366 339.726 -32.2408 329.271 -42.0841 321.629C-49.292 316.036 -56.6321 309.644 -64.3975 305.213C-74.7064 299.321 -85.7597 296.875 -98.2327 304.299C-98.3649 304.376 -98.4914 304.454 -98.6236 304.532C-105.254 308.578 -113.614 314.932 -121.322 309.558C-125.521 306.632 -127.007 301.175 -127.849 296.125C-127.961 295.438 -128.07 294.751 -128.171 294.067C-128.274 293.378 -128.369 292.691 -128.455 292.001C-129.981 280.12 -129.593 267.998 -127.3 256.238C-126.829 253.821 -125.699 250.895 -123.245 250.742C-120.661 250.582 -119.23 253.591 -118.327 256.016C-114.011 267.613 -106.326 276.7 -97.0256 284.075C-87.5243 291.61 -76.3389 297.347 -65.3344 302.126C-65.2655 302.158 -65.1965 302.186 -65.1275 302.215C-56.9166 305.773 -49.1253 309.823 -40.923 313.337C-24.5041 320.373 -7.38672 322.715 8.46318 312.82C23.0457 303.715 33.0672 286.727 52.2423 287.722C70.2017 288.647 79.953 309.883 97.4957 309.139C103.382 308.889 108.805 305.575 112.834 301.273C117.958 295.803 120.766 288.797 125.293 282.908C126.074 281.888 126.914 280.893 127.836 279.991C128.96 278.893 130.204 277.939 131.615 277.258C134.188 276.019 137.409 275.835 139.803 277.39C142.907 279.41 143.735 283.816 142.6 287.342H142.594Z" fill="url(#paint5_linear_53_1782)"/>
<path style="mix-blend-mode:overlay" d="M108.334 313.033C111.717 312.173 114.944 310.88 118.031 309.282C66.1357 270.737 60.8591 280.011 19.9626 322.321C28.6162 314.093 37.0828 305.509 45.1558 303.046C52.7977 300.715 61.0862 301.954 68.639 304.569C81.5431 309.035 94.177 316.628 108.331 313.03L108.334 313.033Z" fill="url(#paint6_linear_53_1782)"/>
</g>
</g>
<path d="M78.3855 238.416H75.4629V233.789H71.4038V238.416H68.4813V227.051H71.4038V231.516H75.4629V227.051H78.3855V238.416ZM83.5076 231.678C83.0746 231.678 82.8581 231.894 82.8581 232.327V233.22H85.6183V232.327C85.6183 231.894 85.4018 231.678 84.9688 231.678H83.5076ZM88.1349 238.254C86.0458 238.47 84.1516 238.578 82.4522 238.578C81.7161 238.578 81.1262 238.356 80.6824 237.913C80.2386 237.469 80.0167 236.879 80.0167 236.143V232.246C80.0167 231.434 80.244 230.801 80.6987 230.347C81.1641 229.881 81.8027 229.648 82.6146 229.648H85.8618C86.6737 229.648 87.3069 229.881 87.7615 230.347C88.2269 230.801 88.4597 231.434 88.4597 232.246V235.25H82.8581V235.899C82.8581 236.062 82.9122 236.197 83.0205 236.305C83.1287 236.414 83.264 236.468 83.4264 236.468C84.498 236.468 86.0675 236.386 88.1349 236.224V238.254ZM94.2984 238.416C93.5732 238.524 92.8804 238.578 92.2202 238.578C91.5707 238.578 91.0241 238.356 90.5803 237.913C90.1365 237.469 89.9146 236.879 89.9146 236.143V227.051H92.756V235.737C92.756 235.899 92.8101 236.035 92.9183 236.143C93.0266 236.251 93.1619 236.305 93.3242 236.305H94.2984V238.416ZM99.8163 238.416C99.091 238.524 98.3983 238.578 97.738 238.578C97.0886 238.578 96.5419 238.356 96.0981 237.913C95.6543 237.469 95.4324 236.879 95.4324 236.143V227.051H98.2738V235.737C98.2738 235.899 98.3279 236.035 98.4362 236.143C98.5444 236.251 98.6797 236.305 98.8421 236.305H99.8163V238.416ZM109.718 235.981C109.718 236.792 109.485 237.431 109.02 237.896C108.565 238.351 107.932 238.578 107.12 238.578H103.386C102.574 238.578 101.935 238.351 101.47 237.896C101.015 237.431 100.788 236.792 100.788 235.981V232.246C100.788 231.434 101.015 230.801 101.47 230.347C101.935 229.881 102.574 229.648 103.386 229.648H107.12C107.932 229.648 108.565 229.881 109.02 230.347C109.485 230.801 109.718 231.434 109.718 232.246V235.981ZM106.877 232.49C106.877 232.057 106.66 231.84 106.227 231.84H104.279C103.846 231.84 103.629 232.057 103.629 232.49V235.737C103.629 236.17 103.846 236.386 104.279 236.386H106.227C106.66 236.386 106.877 236.17 106.877 235.737V232.49Z" fill="white"/>
<path d="M82.5789 53.4063C81.7069 53.4063 80.9834 54.1208 81.1656 54.9736C81.2606 55.4182 81.3961 55.8543 81.5709 56.2764C81.9478 57.1863 82.5003 58.0131 83.1967 58.7096C83.8931 59.406 84.7199 59.9585 85.6299 60.3354C86.5398 60.7123 87.5151 60.9063 88.5 60.9063C89.4849 60.9063 90.4602 60.7123 91.3701 60.3354C92.2801 59.9585 93.1069 59.406 93.8033 58.7096C94.4997 58.0131 95.0522 57.1863 95.4291 56.2764C95.6039 55.8543 95.7394 55.4182 95.8344 54.9736C96.0166 54.1208 95.2931 53.4063 94.4211 53.4063L88.5 53.4063L82.5789 53.4063Z" fill="white"/>
<defs>
<linearGradient id="paint0_linear_53_1782" x1="89.0337" y1="56.465" x2="89.0337" y2="494" gradientUnits="userSpaceOnUse">
<stop/>
<stop offset="1" stop-color="#242424"/>
</linearGradient>
<linearGradient id="paint1_linear_53_1782" x1="89.0261" y1="-3.05176e-05" x2="89.0261" y2="85.8212" gradientUnits="userSpaceOnUse">
<stop stop-color="#101010"/>
<stop offset="1" stop-color="#1D1D1D"/>
</linearGradient>
<linearGradient id="paint2_linear_53_1782" x1="121.033" y1="282.781" x2="109.509" y2="305.365" gradientUnits="userSpaceOnUse">
<stop stop-color="#5A0389"/>
<stop offset="1" stop-color="#553BD2"/>
</linearGradient>
<linearGradient id="paint3_linear_53_1782" x1="26.9433" y1="339.861" x2="98.3842" y2="285.934" gradientUnits="userSpaceOnUse">
<stop stop-color="#5A0389"/>
<stop offset="1" stop-color="#553BD2"/>
</linearGradient>
<linearGradient id="paint4_linear_53_1782" x1="12.0271" y1="263.333" x2="8.47204" y2="336.024" gradientUnits="userSpaceOnUse">
<stop stop-color="#F44CE1"/>
<stop offset="0.99" stop-color="#565DE9"/>
</linearGradient>
<linearGradient id="paint5_linear_53_1782" x1="2.20656" y1="336.823" x2="7.50327" y2="270.854" gradientUnits="userSpaceOnUse">
<stop stop-color="#FF4B9A"/>
<stop offset="1" stop-color="#FFEC7E"/>
</linearGradient>
<linearGradient id="paint6_linear_53_1782" x1="70.8864" y1="312.998" x2="87.9405" y2="287.647" gradientUnits="userSpaceOnUse">
<stop stop-color="#FF17D0"/>
<stop offset="0.6" stop-color="#FF88AC"/>
<stop offset="1" stop-color="#FFD394"/>
</linearGradient>
<clipPath id="clip0_53_1782">
<rect x="-138.148" y="250.673" width="299.855" height="100.727" rx="4.52" fill="white"/>
</clipPath>
</defs>
</svg>
