<svg width="2451" height="1884" viewBox="0 0 2451 1884" fill="none" xmlns="http://www.w3.org/2000/svg">
<path d="M2351.09 1678.3L83.0999 1883.03C49.2499 1885.79 0.669922 1841.02 0.669922 1807.05V89.9C0.669922 58.11 26.2099 32.2201 57.9899 31.7801L2345.55 0.150049C2377.96 -0.299951 2439.23 23.6 2439.23 56.02L2404.48 1620.37C2404.48 1650.64 2381.25 1675.84 2351.08 1678.3H2351.09Z" fill="#9A9A9A"/>
<path d="M2397.17 1694.18L109.61 1880.87C75.7599 1883.63 46.7499 1856.9 46.7499 1822.94V105.78C46.7499 73.99 72.2899 48.1 104.07 47.66L2391.63 16.03C2424.04 15.58 2450.56 41.73 2450.56 74.15V1636.25C2450.56 1666.52 2427.33 1691.72 2397.16 1694.18H2397.17Z" fill="black"/>
<path d="M311.73 1811.19L2249.36 1656.9C2280.29 1654.44 2304.14 1628.61 2304.14 1597.58V115.52C2304.14 82.3001 2276.94 55.5101 2243.72 56.0201L306.09 85.7701C273.59 86.2701 247.5 112.76 247.5 145.27V1751.87C247.5 1786.6 277.11 1813.94 311.73 1811.19Z" fill="url(#paint0_linear_87_353)"/>
<path d="M2385.07 906.08C2373.88 906.08 2364.81 897.01 2364.81 885.82V735.6C2364.81 724.41 2373.88 715.34 2385.07 715.34C2396.26 715.34 2405.33 724.41 2405.33 735.6V885.82C2405.33 897.01 2396.26 906.08 2385.07 906.08Z" fill="#F7F8FA"/>
<g style="mix-blend-mode:soft-light" opacity="0.9">
<path d="M1962.06 1326.68C1785.59 1172.76 1644.13 1232.97 1457.45 1076.57C1225.74 882.43 1341.11 703.42 1137.13 532.47C882.05 318.7 573.83 492.1 382.41 277.97C332.31 221.93 304.42 155.21 289.78 88.3201C265.28 95.7201 247.48 118.41 247.48 145.25V1751.85C247.48 1786.58 277.09 1813.92 311.71 1811.17L2167.14 1663.42C2133.22 1548.29 2072.8 1423.26 1962.05 1326.66L1962.06 1326.68Z" fill="white"/>
</g>
<path d="M1709.79 874.66C1689.39 1095.13 1494.1 1269.3 1272.91 1263.66C1050.97 1258 887.13 1073.56 907.66 851.72C928.18 629.88 1125.2 455.76 1347.01 462.79C1568.07 469.8 1730.19 654.19 1709.79 874.66Z" fill="#009AF1"/>
<path d="M1313.93 1116.58C1174.21 1116.58 1060.54 1002.91 1060.54 863.19C1060.54 723.47 1174.21 609.8 1313.93 609.8C1453.65 609.8 1567.32 723.47 1567.32 863.19C1567.32 1002.91 1453.65 1116.58 1313.93 1116.58ZM1313.93 703C1225.6 703 1153.74 774.86 1153.74 863.19C1153.74 951.52 1225.6 1023.38 1313.93 1023.38C1402.26 1023.38 1474.12 951.52 1474.12 863.19C1474.12 774.86 1402.26 703 1313.93 703Z" fill="white"/>
<path d="M1196.73 1038.25C1184.85 1038.25 1172.97 1033.74 1163.88 1024.7C1145.63 1006.55 1145.54 977.05 1163.68 958.79L1416.64 704.33C1434.79 686.07 1464.29 685.99 1482.55 704.13C1500.8 722.28 1500.89 751.78 1482.75 770.04L1229.79 1024.5C1220.68 1033.66 1208.71 1038.25 1196.74 1038.25H1196.73Z" fill="white"/>
<g style="mix-blend-mode:multiply" opacity="0.2">
<path d="M1275.62 1157.46C1246.56 1106.04 1305.36 1063.73 1307.76 961.19C1311.4 805.48 1179.42 749.02 1197.1 617.67C1202.02 581.15 1220.17 526.52 1288.27 465.17C1091.41 487.27 926.35 649.69 907.65 851.71C887.13 1073.55 1050.96 1257.99 1272.9 1263.65C1348.57 1265.58 1421.19 1246.46 1484.83 1211.65C1402 1217.23 1306.36 1211.86 1275.61 1157.45L1275.62 1157.46Z" fill="url(#paint1_linear_87_353)"/>
</g>
<defs>
<linearGradient id="paint0_linear_87_353" x1="247.5" y1="933.7" x2="2304.14" y2="933.7" gradientUnits="userSpaceOnUse">
<stop offset="0.49" stop-color="#EBEFF2"/>
<stop offset="1" stop-color="white"/>
</linearGradient>
<linearGradient id="paint1_linear_87_353" x1="909.807" y1="830.571" x2="1515.14" y2="886.513" gradientUnits="userSpaceOnUse">
<stop stop-color="#FF9085"/>
<stop offset="1" stop-color="#FB6FBB"/>
</linearGradient>
</defs>
</svg>
