<svg width="40" height="40" viewBox="0 0 40 40" fill="none" xmlns="http://www.w3.org/2000/svg">
<path fill-rule="evenodd" clip-rule="evenodd" d="M19.9997 36.6668C29.2044 36.6668 36.6663 29.2049 36.6663 20.0002C36.6663 10.7954 29.2044 3.3335 19.9997 3.3335C10.7949 3.3335 3.33301 10.7954 3.33301 20.0002C3.33301 23.9951 4.73858 27.6618 7.08217 30.5326L3.82043 33.8217C2.77919 34.8716 3.51664 36.6668 4.98917 36.6668H19.9997ZM12.4997 16.6668C12.4997 15.7464 13.2459 15.0002 14.1663 15.0002H25.833C26.7535 15.0002 27.4997 15.7464 27.4997 16.6668C27.4997 17.5873 26.7535 18.3335 25.833 18.3335H14.1663C13.2459 18.3335 12.4997 17.5873 12.4997 16.6668ZM14.1663 21.6668C13.2459 21.6668 12.4997 22.413 12.4997 23.3335C12.4997 24.254 13.2459 25.0002 14.1663 25.0002H19.1663C20.0868 25.0002 20.833 24.254 20.833 23.3335C20.833 22.413 20.0868 21.6668 19.1663 21.6668H14.1663Z" fill="black"/>
</svg>
