<svg width="29" height="29" viewBox="0 0 29 29" fill="none" xmlns="http://www.w3.org/2000/svg">
<path fill-rule="evenodd" clip-rule="evenodd" d="M14.5052 1.81982C21.5111 1.81982 27.1928 7.50148 27.1928 14.5074C27.1928 21.5133 21.5111 27.195 14.5052 27.195C7.49928 27.195 1.81763 21.5133 1.81763 14.5074C1.81763 7.50148 7.49928 1.81982 14.5052 1.81982ZM11.8705 18.6284L8.76424 15.5196C8.23505 14.9901 8.23494 14.1266 8.76424 13.5972C9.29365 13.0679 10.161 13.0712 10.6865 13.5972L12.8764 15.7888L18.3241 10.3412C18.8535 9.81174 19.7171 9.81174 20.2464 10.3412C20.7758 10.8705 20.775 11.7348 20.2464 12.2634L13.836 18.6738C13.3073 19.2025 12.443 19.2032 11.9137 18.6738C11.8988 18.6589 11.8845 18.6438 11.8705 18.6284Z" fill="#00BA00"/>
</svg>
