<svg xmlns="http://www.w3.org/2000/svg" width="21.5" height="21.5" viewBox="0 0 21.5 21.5">
  <g id="Group_99566" data-name="Group 99566" transform="translate(0.75 -42.25)">
    <g id="Group_10" data-name="Group 10" transform="translate(0 43)">
      <g id="Group_17" data-name="Group 17">
        <g id="Group_16" data-name="Group 16">
          <path id="Path_7" data-name="Path 7" d="M37,163c0-1.54,0-2.311.347-2.876a2.35,2.35,0,0,1,.777-.777C38.689,159,39.46,159,41,159s2.311,0,2.876.347a2.35,2.35,0,0,1,.777.777C45,160.689,45,161.46,45,163s0,2.311-.347,2.876a2.35,2.35,0,0,1-.777.777C43.311,167,42.54,167,41,167s-2.311,0-2.876-.347a2.35,2.35,0,0,1-.777-.777C37,165.311,37,164.54,37,163Z" transform="translate(-37 -147)" fill="none" stroke="#fff" stroke-width="1.5"/>
          <path id="Path_8" data-name="Path 8" d="M49,163c0-1.54,0-2.311.347-2.876a2.35,2.35,0,0,1,.777-.777C50.689,159,51.46,159,53,159s2.311,0,2.876.347a2.35,2.35,0,0,1,.777.777C57,160.689,57,161.46,57,163s0,2.311-.347,2.876a2.35,2.35,0,0,1-.777.777C55.311,167,54.54,167,53,167s-2.311,0-2.876-.347a2.35,2.35,0,0,1-.777-.777C49,165.311,49,164.54,49,163Z" transform="translate(-37 -147)" fill="none" stroke="#fff" stroke-width="1.5"/>
          <path id="Path_9" data-name="Path 9" d="M37,151c0-1.54,0-2.311.347-2.876a2.35,2.35,0,0,1,.777-.777C38.689,147,39.46,147,41,147s2.311,0,2.876.347a2.35,2.35,0,0,1,.777.777C45,148.689,45,149.46,45,151s0,2.311-.347,2.876a2.35,2.35,0,0,1-.777.777C43.311,155,42.54,155,41,155s-2.311,0-2.876-.347a2.35,2.35,0,0,1-.777-.777C37,153.311,37,152.54,37,151Z" transform="translate(-37 -147)" fill="none" stroke="#fff" stroke-width="1.5"/>
          <path id="Path_10" data-name="Path 10" d="M49,151c0-1.54,0-2.311.347-2.876a2.35,2.35,0,0,1,.777-.777C50.689,147,51.46,147,53,147s2.311,0,2.876.347a2.35,2.35,0,0,1,.777.777C57,148.689,57,149.46,57,151s0,2.311-.347,2.876a2.35,2.35,0,0,1-.777.777C55.311,155,54.54,155,53,155s-2.311,0-2.876-.347a2.35,2.35,0,0,1-.777-.777C49,153.311,49,152.54,49,151Z" transform="translate(-37 -147)" fill="none" stroke="#fff" stroke-width="1.5"/>
        </g>
      </g>
    </g>
  </g>
</svg>
