<svg width="115" height="115" viewBox="0 0 115 115" fill="none" xmlns="http://www.w3.org/2000/svg">
<g clip-path="url(#clip0_47865_38678)">
<path d="M103.471 21.0586H13.7634C12.5531 21.0593 11.3927 21.5404 10.5369 22.3962C9.68108 23.252 9.19997 24.4125 9.19922 25.6228V107.931C9.19997 109.141 9.68108 110.301 10.5369 111.157C11.3927 112.013 12.5531 112.494 13.7634 112.495H103.471C104.682 112.494 105.842 112.013 106.698 111.157C107.554 110.302 108.035 109.141 108.036 107.931V25.6228C108.035 24.4124 107.554 23.2519 106.698 22.3961C105.842 21.5403 104.682 21.0592 103.471 21.0586Z" fill="#C6C6C6"/>
<path d="M97.5661 83.8908H19.6701C17.1496 83.8908 15.106 81.8472 15.106 79.3266V6.60324C15.106 4.08267 17.1496 2.03906 19.6701 2.03906H97.5661C100.087 2.03906 102.13 4.08267 102.13 6.60324V79.3266C102.13 81.8472 100.087 83.8908 97.5661 83.8908Z" fill="#F9F9F9"/>
<path d="M16.551 80.7712V8.04828C16.551 5.52771 18.5946 3.4841 21.1152 3.4841H99.0112C99.9015 3.4841 100.729 3.74285 101.431 4.18353C100.624 2.89685 99.1969 2.03906 97.5661 2.03906H19.6701C17.1496 2.03906 15.106 4.08267 15.106 6.60324V79.3266C15.106 80.9578 15.9637 82.3845 17.2504 83.1918C16.8097 82.4896 16.551 81.6619 16.551 80.7716V80.7712Z" fill="url(#paint0_linear_47865_38678)"/>
<path d="M87.9817 17.4062H29.2549V20.753H87.9817V17.4062ZM87.9817 30.1854H29.2549V33.5322H87.9817V30.1854ZM87.9817 42.9674H29.2549V46.3141H87.9817V42.9674ZM87.9817 55.7465H29.2549V59.0937H87.9817V55.7465Z" fill="white"/>
<path d="M36.2534 44.9453L51.0107 59.703H36.2534V44.9453Z" fill="url(#paint1_linear_47865_38678)"/>
<path d="M108.036 60.9198V26.9651L102.13 21.0586V60.9193H108.036V60.9198Z" fill="#C6C6C6"/>
<path d="M114.954 63.9891L108.591 109.033C108.273 111.285 106.346 112.959 104.072 112.959H13.1642C10.8901 112.959 8.96288 111.285 8.64475 109.033L0.0456721 48.1676C-0.342217 45.4199 1.79 42.9648 4.56508 42.9648H32.6392C34.9133 42.9648 36.8405 44.6385 37.1586 46.8899L38.2855 54.8607C38.6037 57.1127 40.5309 58.7863 42.8049 58.7863H110.436C113.21 58.7863 115.343 61.2414 114.955 63.9891H114.954Z" fill="url(#paint2_linear_47865_38678)"/>
<path d="M92.4088 92.8696H24.8279C24.4575 92.8695 24.0998 92.7343 23.8219 92.4894C23.544 92.2444 23.365 91.9066 23.3183 91.5391L22.4728 84.8446C22.4459 84.6305 22.4649 84.413 22.5285 84.2068C22.592 84.0005 22.6987 83.8101 22.8415 83.6482C22.9843 83.4864 23.1598 83.3567 23.3565 83.2678C23.5532 83.179 23.7665 83.1329 23.9824 83.1328H93.2543C93.4702 83.1329 93.6835 83.179 93.8802 83.2678C94.0769 83.3567 94.2525 83.4864 94.3952 83.6482C94.538 83.8101 94.6447 84.0005 94.7083 84.2068C94.7718 84.413 94.7908 84.6305 94.7639 84.8446L93.9184 91.5391C93.8717 91.9066 93.6927 92.2444 93.4148 92.4894C93.1369 92.7343 92.7792 92.8695 92.4088 92.8696Z" fill="#D5D5D5"/>
</g>
<defs>
<linearGradient id="paint0_linear_47865_38678" x1="61.2945" y1="45.6363" x2="3.57297" y2="-12.0857" gradientUnits="userSpaceOnUse">
<stop stop-color="white"/>
</linearGradient>
<linearGradient id="paint1_linear_47865_38678" x1="46.0034" y1="62.0709" x2="28.1657" y2="44.2336" gradientUnits="userSpaceOnUse">
<stop stop-color="#C2CECE" stop-opacity="0"/>
<stop offset="0.179" stop-color="#AFBCBC" stop-opacity="0.179"/>
<stop offset="1" stop-color="#5B6A6A"/>
</linearGradient>
<linearGradient id="paint2_linear_47865_38678" x1="57.5" y1="42.9648" x2="57.5" y2="112.959" gradientUnits="userSpaceOnUse">
<stop stop-color="#EEF0F4"/>
<stop offset="0.927" stop-color="#E4E4E4"/>
</linearGradient>
<clipPath id="clip0_47865_38678">
<rect width="115" height="115" fill="white"/>
</clipPath>
</defs>
</svg>
