<svg xmlns="http://www.w3.org/2000/svg" width="76" height="76" viewBox="0 0 76 76">
  <g id="Group_110055" data-name="Group 110055" transform="translate(-609 -414)">
    <circle id="Ellipse_478" data-name="Ellipse 478" cx="38" cy="38" r="38" transform="translate(609 414)" fill="#f7f7fc"/>
    <g id="Group_110017" data-name="Group 110017" transform="translate(635 439.75)">
      <path id="Path_198868" data-name="Path 198868" d="M18.616,20h.49a4.263,4.263,0,0,0,2.886-1.256C24.078,16.883,19.174,15,17.5,15m-2-9.931A3.621,3.621,0,0,1,16.2,5a3.158,3.158,0,0,1,3.3,3,3.158,3.158,0,0,1-3.3,3,3.617,3.617,0,0,1-.7-.069" fill="none" stroke="#000" stroke-linecap="round" stroke-width="1.5"/>
      <path id="Path_198869" data-name="Path 198869" d="M4.481,16.111c-1.179.632-4.27,1.922-2.387,3.536A4.868,4.868,0,0,0,5.326,21h7.349a4.868,4.868,0,0,0,3.232-1.353c1.883-1.614-1.208-2.9-2.387-3.536A9.743,9.743,0,0,0,4.481,16.111Z" fill="none" stroke="#000" stroke-width="1.5"/>
      <path id="Path_198870" data-name="Path 198870" d="M13,7.5a4,4,0,1,1-4-4A4,4,0,0,1,13,7.5Z" fill="none" stroke="#000" stroke-width="1.5"/>
    </g>
  </g>
</svg>
