<svg xmlns="http://www.w3.org/2000/svg" width="19.539" height="19.5" viewBox="0 0 19.539 19.5">
  <g id="Group_100511" data-name="Group 100511" transform="translate(-2.211 -2.25)">
    <path id="Path_198123" data-name="Path 198123" d="M6.18,15.3c-1.258.737-4.555,2.242-2.547,4.126A4.979,4.979,0,0,0,7.081,21h7.838a4.979,4.979,0,0,0,3.447-1.578c2.008-1.883-1.289-3.389-2.547-4.126A9.608,9.608,0,0,0,6.18,15.3Z" fill="none" stroke="#8f8f8f" stroke-linecap="round" stroke-linejoin="round" stroke-width="1.5"/>
    <path id="Path_198124" data-name="Path 198124" d="M15,7a4,4,0,1,1-4-4A4,4,0,0,1,15,7Z" fill="none" stroke="#8f8f8f" stroke-width="1.5"/>
    <path id="Path_198125" data-name="Path 198125" d="M18,5.538a1.5,1.5,0,1,1,3,0,1.56,1.56,0,0,1-.238.831c-.448.715-1.262,1.4-1.262,2.246V9" fill="none" stroke="#8f8f8f" stroke-linecap="round" stroke-width="1.5"/>
    <path id="Path_198126" data-name="Path 198126" d="M19.5,11h.009" fill="none" stroke="#8f8f8f" stroke-linecap="round" stroke-linejoin="round" stroke-width="1.5"/>
  </g>
</svg>
