<svg width="60" height="24" viewBox="0 0 60 24" fill="none" xmlns="http://www.w3.org/2000/svg">
<rect width="60" height="24" rx="12" fill="url(#paint0_linear_47825_39414)"/>
<path d="M13.5 6C10.4674 6 8 8.46742 8 11.5C8 14.5326 10.4674 17 13.5 17C16.5326 17 19 14.5326 19 11.5C19 8.46742 16.5326 6 13.5 6ZM16.5739 10.0526L13.0589 13.5401C12.8521 13.7469 12.5213 13.7607 12.3008 13.5539L10.4398 11.8584C10.2193 11.6516 10.2055 11.307 10.3985 11.0865C10.6053 10.8659 10.9499 10.8521 11.1704 11.0589L12.6454 12.4098L15.7882 9.26692C16.0088 9.04637 16.3534 9.04637 16.5739 9.26692C16.7945 9.48747 16.7945 9.83208 16.5739 10.0526Z" fill="white"/>
<path d="M25.1888 16V7.36H26.4608V16H25.1888ZM25.8128 12.412V11.368H30.5648V12.412H25.8128ZM25.8128 8.404V7.36H30.8888V8.404H25.8128ZM32.1729 16V9.88H33.4209V16H32.1729ZM32.1129 8.68V7.276H33.4929V8.68H32.1129ZM35.1729 16V7.36H36.4209V16H35.1729ZM38.1729 16V7.36H39.4209V16H38.1729ZM43.8129 16.12C43.1969 16.12 42.6529 15.984 42.1809 15.712C41.7169 15.44 41.3529 15.064 41.0889 14.584C40.8249 14.104 40.6929 13.552 40.6929 12.928C40.6929 12.296 40.8209 11.744 41.0769 11.272C41.3409 10.792 41.7089 10.42 42.1809 10.156C42.6529 9.892 43.1929 9.76 43.8009 9.76C44.3929 9.76 44.9049 9.888 45.3369 10.144C45.7769 10.392 46.1129 10.74 46.3449 11.188C46.5849 11.636 46.7049 12.168 46.7049 12.784C46.7049 12.88 46.7009 12.972 46.6929 13.06C46.6929 13.14 46.6849 13.224 46.6689 13.312H41.5329V12.376H45.7929L45.4809 12.748C45.4809 12.092 45.3329 11.592 45.0369 11.248C44.7409 10.904 44.3289 10.732 43.8009 10.732C43.2329 10.732 42.7809 10.928 42.4449 11.32C42.1169 11.704 41.9529 12.24 41.9529 12.928C41.9529 13.624 42.1169 14.168 42.4449 14.56C42.7809 14.952 43.2449 15.148 43.8369 15.148C44.1969 15.148 44.5089 15.076 44.7729 14.932C45.0369 14.78 45.2329 14.56 45.3609 14.272H46.5369C46.3369 14.848 45.9969 15.3 45.5169 15.628C45.0449 15.956 44.4769 16.12 43.8129 16.12ZM47.9815 16V9.88H49.1695V11.404H49.2295V16H47.9815ZM49.2295 12.808L49.0735 11.356C49.2175 10.836 49.4655 10.44 49.8175 10.168C50.1695 9.896 50.5895 9.76 51.0775 9.76C51.2615 9.76 51.3895 9.776 51.4615 9.808V10.984C51.4215 10.968 51.3655 10.96 51.2935 10.96C51.2215 10.952 51.1335 10.948 51.0295 10.948C50.4295 10.948 49.9775 11.104 49.6735 11.416C49.3775 11.728 49.2295 12.192 49.2295 12.808Z" fill="white"/>
<defs>
<linearGradient id="paint0_linear_47825_39414" x1="0" y1="12" x2="60" y2="12" gradientUnits="userSpaceOnUse">
<stop stop-color="#3F51B5"/>
<stop offset="1" stop-color="#1A237E"/>
</linearGradient>
</defs>
</svg>
