<svg width="17" height="17" viewBox="0 0 17 17" fill="none" xmlns="http://www.w3.org/2000/svg">
<path d="M12.042 2.12586C12.228 1.93983 12.4489 1.79225 12.692 1.69157C12.935 1.59088 13.1956 1.53906 13.4587 1.53906C13.7218 1.53906 13.9823 1.59088 14.2254 1.69157C14.4684 1.79225 14.6893 1.93983 14.8753 2.12586C15.0614 2.3119 15.2089 2.53277 15.3096 2.77584C15.4103 3.01891 15.4621 3.27943 15.4621 3.54253C15.4621 3.80563 15.4103 4.06615 15.3096 4.30923C15.2089 4.5523 15.0614 4.77316 14.8753 4.9592L5.31283 14.5217L1.41699 15.5842L2.47949 11.6884L12.042 2.12586Z" stroke="black" stroke-width="1.41667" stroke-linecap="round" stroke-linejoin="round"/>
</svg>
