<svg xmlns="http://www.w3.org/2000/svg" width="25.65" height="16.49" viewBox="0 0 25.65 16.49">
  <g id="Group_108825" data-name="Group 108825" transform="translate(-1.25 -6.25)">
    <path id="Path_198156" data-name="Path 198156" d="M4.415,16.33a2.415,2.415,0,0,1,0-4.83" transform="translate(0 0.934)" fill="none" stroke="#fff" stroke-linecap="round" stroke-linejoin="round" stroke-width="1.5"/>
    <path id="Path_198157" data-name="Path 198157" d="M20,16.33a2.415,2.415,0,0,0,0-4.83" transform="translate(3.735 0.934)" fill="none" stroke="#fff" stroke-linecap="round" stroke-linejoin="round" stroke-width="1.5"/>
    <path id="Path_198158" data-name="Path 198158" d="M15.368,7H11.745C8.33,7,6.622,7,5.561,8.1S4.5,10.962,4.5,14.495s0,5.3,1.061,6.4,2.769,1.1,6.184,1.1h1.238c.956,0,6.4-.15,6.853-.251a3.328,3.328,0,0,0,1.715-.847c1.061-1.1,1.061-2.864,1.061-6.4s0-5.3-1.061-6.4S18.783,7,15.368,7Z" transform="translate(0.519)" fill="none" stroke="#fff" stroke-linejoin="round" stroke-width="1.5"/>
    <path id="Path_198159" data-name="Path 198159" d="M9.011,11H9" transform="translate(1.453 3.245)" fill="none" stroke="#fff" stroke-linecap="round" stroke-linejoin="round" stroke-width="2"/>
    <path id="Path_198160" data-name="Path 198160" d="M15.011,11H15" transform="translate(2.698 3.245)" fill="none" stroke="#fff" stroke-linecap="round" stroke-linejoin="round" stroke-width="2"/>
  </g>
</svg>
