<svg xmlns="http://www.w3.org/2000/svg" width="85" height="85" viewBox="0 0 85 85">
  <g id="Group_110366" data-name="Group 110366" transform="translate(-309 -1967)">
    <circle id="Ellipse_491" data-name="Ellipse 491" cx="42.5" cy="42.5" r="42.5" transform="translate(309 1967)" fill="#fff"/>
    <g id="Icon" transform="translate(331.524 1988.015)">
      <path id="Path_199073" data-name="Path 199073" d="M17.956,1.25A12.779,12.779,0,0,0,5.25,14.09c0,2.4,1.058,5.382,2.6,8.354A81.756,81.756,0,0,0,16.885,35.58a1.41,1.41,0,0,0,2.142,0,81.756,81.756,0,0,0,9.037-13.137c1.54-2.972,2.6-5.952,2.6-8.354A12.779,12.779,0,0,0,17.956,1.25Zm0,7.529a5.176,5.176,0,1,0,5.176,5.176A5.178,5.178,0,0,0,17.956,8.779Z" transform="translate(1.765)" fill="#c1bcbc" fill-rule="evenodd"/>
      <path id="Path_199074" data-name="Path 199074" d="M28.726,18.673a11.672,11.672,0,0,1,3.663,1.694c.565.429.979.849.979,1.361a1.33,1.33,0,0,1-.412.847,5.9,5.9,0,0,1-1.726,1.231c-2.594,1.327-6.788,2.157-11.509,2.157s-8.915-.83-11.509-2.157a5.9,5.9,0,0,1-1.726-1.231,1.33,1.33,0,0,1-.412-.847c0-.512.414-.932.979-1.361a11.672,11.672,0,0,1,3.663-1.694,1.412,1.412,0,0,0-.813-2.7A12.945,12.945,0,0,0,4.673,18.7,4.225,4.225,0,0,0,3.25,21.728a4.728,4.728,0,0,0,2.266,3.738c2.665,1.928,8.019,3.32,14.2,3.32s11.539-1.393,14.2-3.32a4.728,4.728,0,0,0,2.266-3.738A4.225,4.225,0,0,0,34.768,18.7a12.945,12.945,0,0,0-5.229-2.728,1.412,1.412,0,0,0-.813,2.7Z" transform="translate(0 12.934)" fill="#c1bcbc" fill-rule="evenodd"/>
    </g>
  </g>
</svg>
