<svg width="1440" height="900" viewBox="0 0 1440 900" fill="none" xmlns="http://www.w3.org/2000/svg">
<g clip-path="url(#clip0_49391_44205)">
<rect width="1440" height="900" fill="#F4F5F7"/>
<g clip-path="url(#clip1_49391_44205)">
<path d="M-9.67556 1179.84V-279.838L-9.83778 -279.676H1449.84L1449.68 -279.838V1179.84L1449.84 1179.68H-9.83778L-9.67556 1179.84ZM1450 1179.84V-280H-10V1180H1450V1179.84Z" fill="#3F3F3F" fill-opacity="0.3"/>
<path d="M1402.96 -279.838H1402.63V1179.84H1402.96V-279.838Z" fill="#3F3F3F" fill-opacity="0.3"/>
<path d="M1355.92 -279.838H1355.59V1179.84H1355.92V-279.838Z" fill="#3F3F3F" fill-opacity="0.3"/>
<path d="M1308.88 -279.838H1308.55V1179.84H1308.88V-279.838Z" fill="#3F3F3F" fill-opacity="0.3"/>
<path d="M1261.84 -279.838H1261.51V1179.84H1261.84V-279.838Z" fill="#3F3F3F" fill-opacity="0.3"/>
<path d="M1214.8 -279.838H1214.47V1179.84H1214.8V-279.838Z" fill="#3F3F3F" fill-opacity="0.3"/>
<path d="M1167.76 -279.838H1167.43V1179.84H1167.76V-279.838Z" fill="#3F3F3F" fill-opacity="0.3"/>
<path d="M1120.72 -279.838H1120.39V1179.84H1120.72V-279.838Z" fill="#3F3F3F" fill-opacity="0.3"/>
<path d="M1072.96 -279.838H1072.64V1179.84H1072.96V-279.838Z" fill="#3F3F3F" fill-opacity="0.3"/>
<path d="M1025.93 -279.838H1025.6V1179.84H1025.93V-279.838Z" fill="#3F3F3F" fill-opacity="0.3"/>
<path d="M978.884 -279.838H978.56V1179.84H978.884V-279.838Z" fill="#3F3F3F" fill-opacity="0.3"/>
<path d="M931.843 -279.838H931.519V1179.84H931.843V-279.838Z" fill="#3F3F3F" fill-opacity="0.3"/>
<path d="M884.805 -279.838H884.48V1179.84H884.805V-279.838Z" fill="#3F3F3F" fill-opacity="0.3"/>
<path d="M837.764 -279.838H837.439V1179.84H837.764V-279.838Z" fill="#3F3F3F" fill-opacity="0.3"/>
<path d="M790.723 -279.838H790.398V1179.84H790.723V-279.838Z" fill="#3F3F3F" fill-opacity="0.3"/>
<path d="M743.681 -279.838H743.356V1179.84H743.681V-279.838Z" fill="#3F3F3F" fill-opacity="0.3"/>
<path d="M696.643 -279.838H696.318V1179.84H696.643V-279.838Z" fill="#3F3F3F" fill-opacity="0.3"/>
<path d="M649.602 -279.838H649.277V1179.84H649.602V-279.838Z" fill="#3F3F3F" fill-opacity="0.3"/>
<path d="M602.561 -279.838H602.236V1179.84H602.561V-279.838Z" fill="#3F3F3F" fill-opacity="0.3"/>
<path d="M555.52 -279.838H555.195V1179.84H555.52V-279.838Z" fill="#3F3F3F" fill-opacity="0.3"/>
<path d="M508.482 -279.838H508.157V1179.84H508.482V-279.838Z" fill="#3F3F3F" fill-opacity="0.3"/>
<path d="M461.441 -279.838H461.116V1179.84H461.441V-279.838Z" fill="#3F3F3F" fill-opacity="0.3"/>
<path d="M414.4 -279.838H414.075V1179.84H414.4V-279.838Z" fill="#3F3F3F" fill-opacity="0.3"/>
<path d="M367.358 -279.838H367.033V1179.84H367.358V-279.838Z" fill="#3F3F3F" fill-opacity="0.3"/>
<path d="M319.607 -279.838H319.282V1179.84H319.607V-279.838Z" fill="#3F3F3F" fill-opacity="0.3"/>
<path d="M272.565 -279.838H272.24V1179.84H272.565V-279.838Z" fill="#3F3F3F" fill-opacity="0.3"/>
<path d="M225.528 -279.838H225.203V1179.84H225.528V-279.838Z" fill="#3F3F3F" fill-opacity="0.3"/>
<path d="M178.486 -279.838H178.161V1179.84H178.486V-279.838Z" fill="#3F3F3F" fill-opacity="0.3"/>
<path d="M131.445 -279.838H131.12V1179.84H131.445V-279.838Z" fill="#3F3F3F" fill-opacity="0.3"/>
<path d="M84.4035 -279.838H84.0791V1179.84H84.4035V-279.838Z" fill="#3F3F3F" fill-opacity="0.3"/>
<path d="M37.3655 -279.838H37.041V1179.84H37.3655V-279.838Z" fill="#3F3F3F" fill-opacity="0.3"/>
<path d="M1449.84 2.59766H-9.83789V2.9221H1449.84V2.59766Z" fill="#3F3F3F" fill-opacity="0.3"/>
<path d="M1449.84 49.6387H-9.83789V49.9631H1449.84V49.6387Z" fill="#3F3F3F" fill-opacity="0.3"/>
<path d="M1449.84 96.6799H-9.83789V97.0044H1449.84V96.6799Z" fill="#3F3F3F" fill-opacity="0.3"/>
<path d="M1449.84 143.718H-9.83789V144.042H1449.84V143.718Z" fill="#3F3F3F" fill-opacity="0.3"/>
<path d="M1449.84 190.759H-9.83789V191.084H1449.84V190.759Z" fill="#3F3F3F" fill-opacity="0.3"/>
<path d="M1449.84 237.8H-9.83789V238.125H1449.84V237.8Z" fill="#3F3F3F" fill-opacity="0.3"/>
<path d="M1449.84 285.195H-9.83789V285.52H1449.84V285.195Z" fill="#3F3F3F" fill-opacity="0.3"/>
<path d="M1449.84 332.236H-9.83789V332.561H1449.84V332.236Z" fill="#3F3F3F" fill-opacity="0.3"/>
<path d="M1449.84 379.278H-9.83789V379.602H1449.84V379.278Z" fill="#3F3F3F" fill-opacity="0.3"/>
<path d="M1449.84 426.319H-9.83789V426.643H1449.84V426.319Z" fill="#3F3F3F" fill-opacity="0.3"/>
<path d="M1449.84 473.357H-9.83789V473.681H1449.84V473.357Z" fill="#3F3F3F" fill-opacity="0.3"/>
<path d="M1449.84 520.398H-9.83789V520.722H1449.84V520.398Z" fill="#3F3F3F" fill-opacity="0.3"/>
<path d="M1449.84 567.439H-9.83789V567.764H1449.84V567.439Z" fill="#3F3F3F" fill-opacity="0.3"/>
<path d="M1449.84 614.48H-9.83789V614.805H1449.84V614.48Z" fill="#3F3F3F" fill-opacity="0.3"/>
<path d="M1449.84 661.875H-9.83789V662.2H1449.84V661.875Z" fill="#3F3F3F" fill-opacity="0.3"/>
<path d="M1449.84 708.917H-9.83789V709.241H1449.84V708.917Z" fill="#3F3F3F" fill-opacity="0.3"/>
<path d="M1449.84 755.958H-9.83789V756.282H1449.84V755.958Z" fill="#3F3F3F" fill-opacity="0.3"/>
<path d="M1449.84 802.996H-9.83789V803.32H1449.84V802.996Z" fill="#3F3F3F" fill-opacity="0.3"/>
<path d="M1449.84 850.037H-9.83789V850.361H1449.84V850.037Z" fill="#3F3F3F" fill-opacity="0.3"/>
<path d="M1449.84 897.078H-9.83789V897.403H1449.84V897.078Z" fill="#3F3F3F" fill-opacity="0.3"/>
</g>
</g>
<defs>
<clipPath id="clip0_49391_44205">
<rect width="1440" height="900" fill="white"/>
</clipPath>
<clipPath id="clip1_49391_44205">
<rect width="1460" height="1460" fill="white" transform="translate(-10 -280)"/>
</clipPath>
</defs>
</svg>
