<svg xmlns="http://www.w3.org/2000/svg" width="60" height="60" viewBox="0 0 60 60">
  <g id="Group_109034" data-name="Group 109034" transform="translate(0.487)">
    <circle id="Ellipse_2426" data-name="Ellipse 2426" cx="30" cy="30" r="30" transform="translate(-0.487)" fill="#f7f7fc"/>
    <g id="Group_109045" data-name="Group 109045" transform="translate(20.513 19)">
      <path id="Path_198749" data-name="Path 198749" d="M1,9C1,5.229,1,3.343,2.245,2.172S5.493,1,9.5,1h.773c3.261,0,4.892,0,6.024.8a4.133,4.133,0,0,1,.855.805C18,3.669,18,5.2,18,8.273v2.545c0,2.963,0,4.445-.469,5.628a7.233,7.233,0,0,1-4.369,4.112C11.9,21,10.33,21,7.182,21a11.254,11.254,0,0,1-3.417-.252,4.133,4.133,0,0,1-2.5-2.35A9.426,9.426,0,0,1,1,15.182Z" fill="none" stroke="#000" stroke-linejoin="round" stroke-width="1"/>
      <path id="Path_198750" data-name="Path 198750" d="M18,11a3.333,3.333,0,0,1-3.333,3.333,8.48,8.48,0,0,0-2.1.057,1.667,1.667,0,0,0-1.179,1.179,8.48,8.48,0,0,0-.057,2.1A3.333,3.333,0,0,1,8,21" fill="none" stroke="#000" stroke-linecap="round" stroke-linejoin="round" stroke-width="1"/>
      <path id="Path_198751" data-name="Path 198751" d="M5.5,6h7" fill="none" stroke="#000" stroke-linecap="round" stroke-linejoin="round" stroke-width="1"/>
      <path id="Path_198752" data-name="Path 198752" d="M5.5,10h3" fill="none" stroke="#000" stroke-linecap="round" stroke-linejoin="round" stroke-width="1"/>
    </g>
  </g>
</svg>
