<svg xmlns="http://www.w3.org/2000/svg" xmlns:xlink="http://www.w3.org/1999/xlink" width="20" height="20" viewBox="0 0 20 20">
  <defs>
    <clipPath id="clip-path">
      <rect id="Rectangle_40294" data-name="Rectangle 40294" width="20" height="20" transform="translate(0 0)" fill="none"/>
    </clipPath>
  </defs>
  <g id="Group_109534" data-name="Group 109534" transform="translate(0 0)">
    <g id="Group_100075" data-name="Group 100075" transform="translate(0 0)" clip-path="url(#clip-path)">
      <path id="Path_190547" data-name="Path 190547" d="M.65,17.52V16.058a4.476,4.476,0,0,1,4.476-4.476H9.992a4.457,4.457,0,0,1,1.919.432" transform="translate(-0.108 -1.93)" fill="none" stroke="#fff" stroke-linecap="round" stroke-linejoin="round" stroke-width="1.3"/>
      <path id="Path_190548" data-name="Path 190548" d="M11.72,4.023A3.374,3.374,0,1,1,8.346.65,3.373,3.373,0,0,1,11.72,4.023Z" transform="translate(-0.829 -0.108)" fill="none" stroke="#fff" stroke-linecap="round" stroke-linejoin="round" stroke-width="1.3"/>
      <path id="Path_190560" data-name="Path 190560" d="M19.008,17.18l-.2-.342c-.149-.258-.223-.388-.351-.44s-.27-.011-.558.071l-.488.137a.8.8,0,0,1-.543-.067l-.134-.077a.8.8,0,0,1-.316-.387l-.133-.4c-.088-.263-.132-.4-.236-.471s-.243-.076-.521-.076h-.446c-.277,0-.416,0-.521.076s-.148.207-.236.471l-.133.4a.8.8,0,0,1-.315.387l-.135.077a.8.8,0,0,1-.543.067l-.488-.137c-.287-.082-.431-.122-.557-.071s-.2.183-.351.44l-.2.342c-.14.242-.21.366-.2.493s.108.233.295.442l.411.461a.962.962,0,0,1,0,1.1l-.411.461c-.187.208-.281.313-.295.442s.057.251.2.493l.2.342c.149.259.224.388.351.44s.271.011.557-.071l.488-.137a.8.8,0,0,1,.543.068l.135.077a.8.8,0,0,1,.314.387l.133.4c.088.264.132.4.237.472s.243.075.521.075h.445c.278,0,.417,0,.521-.075s.148-.208.237-.472l.133-.4a.8.8,0,0,1,.315-.387l.135-.077a.8.8,0,0,1,.543-.068l.488.137c.287.082.431.122.558.071s.2-.182.351-.44l.2-.342c.14-.242.21-.366.2-.493s-.107-.233-.294-.442l-.412-.461a.965.965,0,0,1,0-1.1l.412-.461c.187-.208.281-.312.294-.442S19.148,17.422,19.008,17.18Z" transform="translate(-1.068 -4.364)" fill="none" stroke="#fff" stroke-linecap="round" stroke-linejoin="round" stroke-width="1.3"/>
      <path id="Path_190561" data-name="Path 190561" d="M17.187,19.641a1.4,1.4,0,1,1-1.4-1.4h0A1.4,1.4,0,0,1,17.187,19.641Z" transform="translate(-1.565 -4.883)" fill="none" stroke="#fff" stroke-linecap="round" stroke-linejoin="round" stroke-width="1.3"/>
    </g>
  </g>
</svg>
