<svg xmlns="http://www.w3.org/2000/svg" width="57" height="57" viewBox="0 0 57 57">
  <g id="Group_99766" data-name="Group 99766" transform="translate(-1259 -48)">
    <circle id="Ellipse_253" data-name="Ellipse 253" cx="28.5" cy="28.5" r="28.5" transform="translate(1259 48)" fill="#fff"/>
    <path id="Path_189936" data-name="Path 189936" d="M1295.65,72.249l-.43-.75c-.33-.567-.49-.85-.77-.963s-.59-.024-1.22.155l-1.07.3a1.716,1.716,0,0,1-1.18-.148l-.3-.17a1.81,1.81,0,0,1-.69-.847l-.29-.873c-.19-.577-.29-.866-.52-1.031s-.53-.165-1.14-.165h-.97c-.61,0-.91,0-1.14.165s-.33.454-.52,1.031l-.29.873a1.81,1.81,0,0,1-.69.847l-.3.17a1.736,1.736,0,0,1-1.19.148l-1.06-.3c-.63-.178-.95-.268-1.22-.155s-.44.4-.77.963l-.43.75c-.31.531-.46.8-.43,1.08s.23.511.64.966l.9,1.009a2.095,2.095,0,0,1,0,2.406l-.9,1.009c-.41.456-.61.684-.64.966s.12.549.43,1.08l.43.749c.33.567.49.85.77.963s.59.024,1.22-.155l1.06-.3a1.736,1.736,0,0,1,1.19.148l.3.17a1.81,1.81,0,0,1,.69.847l.29.873c.19.578.29.866.52,1.031s.53.165,1.14.165h.97c.61,0,.91,0,1.14-.165s.33-.454.52-1.031l.29-.873a1.809,1.809,0,0,1,.69-.847l.3-.17a1.715,1.715,0,0,1,1.18-.148l1.07.3c.63.178.95.268,1.22.155s.44-.4.77-.963l.43-.749c.31-.531.46-.8.43-1.08s-.23-.511-.64-.966l-.9-1.009a2.095,2.095,0,0,1,0-2.406l.9-1.009c.41-.456.61-.684.64-.966S1295.96,72.78,1295.65,72.249Z" fill="none" stroke="#141b34" stroke-linecap="round" stroke-width="1.313"/>
    <path id="Path_189976" data-name="Path 189976" d="M1290.58,76.5a3.065,3.065,0,1,1-3.06-3.062A3.061,3.061,0,0,1,1290.58,76.5Z" fill="none" stroke="#141b34" stroke-width="1.313"/>
  </g>
</svg>
