<svg width="48" height="48" viewBox="0 0 48 48" fill="none" xmlns="http://www.w3.org/2000/svg">
<path d="M24 0.5C36.9787 0.5 47.5 11.0213 47.5 24C47.5 36.9787 36.9787 47.5 24 47.5C11.0213 47.5 0.5 36.9787 0.5 24C0.5 11.0213 11.0213 0.5 24 0.5Z" fill="#F7F7F7"/>
<path d="M24 0.5C36.9787 0.5 47.5 11.0213 47.5 24C47.5 36.9787 36.9787 47.5 24 47.5C11.0213 47.5 0.5 36.9787 0.5 24C0.5 11.0213 11.0213 0.5 24 0.5Z" stroke="#CCCCCC"/>
<path d="M26 15.25C27.525 15.25 28.9875 15.8558 30.0659 16.9341C31.1442 18.0125 31.75 19.475 31.75 21V27C31.75 27.7293 31.4603 28.4288 30.9445 28.9445C30.4288 29.4603 29.7293 29.75 29 29.75H21C20.2707 29.75 19.5712 29.4603 19.0555 28.9445C18.5397 28.4288 18.25 27.7293 18.25 27V21C18.25 19.475 18.8558 18.0125 19.9341 16.9341C21.0125 15.8558 22.475 15.25 24 15.25H26ZM26 16.75H24C22.8728 16.75 21.7918 17.1978 20.9948 17.9948C20.1978 18.7918 19.75 19.8728 19.75 21V27C19.75 27.3315 19.8817 27.6495 20.1161 27.8839C20.3505 28.1183 20.6685 28.25 21 28.25H29C29.3315 28.25 29.6495 28.1183 29.8839 27.8839C30.1183 27.6495 30.25 27.3315 30.25 27V21C30.25 19.8728 29.8022 18.7918 29.0052 17.9948C28.2082 17.1978 27.1272 16.75 26 16.75ZM27 31.25C27.1989 31.25 27.3897 31.329 27.5303 31.4697C27.671 31.6103 27.75 31.8011 27.75 32C27.75 32.1989 27.671 32.3897 27.5303 32.5303C27.3897 32.671 27.1989 32.75 27 32.75H23C22.8011 32.75 22.6103 32.671 22.4697 32.5303C22.329 32.3897 22.25 32.1989 22.25 32C22.25 31.8011 22.329 31.6103 22.4697 31.4697C22.6103 31.329 22.8011 31.25 23 31.25H27Z" fill="black"/>
</svg>
