<svg xmlns="http://www.w3.org/2000/svg" width="20.557" height="20.5" viewBox="0 0 20.557 20.5">
  <g id="Group_100509" data-name="Group 100509" transform="translate(-1.722 -1.75)">
    <path id="Path_198116" data-name="Path 198116" d="M12,15v1.5" fill="none" stroke="#8f8f8f" stroke-linecap="round" stroke-linejoin="round" stroke-width="1.5"/>
    <path id="Path_198117" data-name="Path 198117" d="M3,15c.149,2.933.306,4.472,1.4,5.445C5.583,21.5,7.431,21.5,11.126,21.5h1.748c3.7,0,5.543,0,6.728-1.055,1.092-.973,1.249-2.512,1.4-5.445" fill="none" stroke="#8f8f8f" stroke-linecap="round" stroke-linejoin="round" stroke-width="1.5"/>
    <path id="Path_198118" data-name="Path 198118" d="M2.847,10.443C4.546,13.674,8.379,15,12,15s7.454-1.326,9.153-4.557C21.964,8.9,21.35,6,19.352,6H4.648C2.65,6,2.036,8.9,2.847,10.443Z" fill="none" stroke="#8f8f8f" stroke-width="1.5"/>
    <path id="Path_198119" data-name="Path 198119" d="M16,6l-.088-.309c-.44-1.54-.66-2.31-1.184-2.751s-1.219-.44-2.611-.44h-.234c-1.391,0-2.087,0-2.611.44s-.744,1.21-1.184,2.751L8,6" fill="none" stroke="#8f8f8f" stroke-width="1.5"/>
  </g>
</svg>
