<svg width="40" height="40" viewBox="0 0 40 40" fill="none" xmlns="http://www.w3.org/2000/svg">
<rect width="40" height="40" rx="20" fill="#F4F7FE"/>
<path d="M21 11.25C22.525 11.25 23.9875 11.8558 25.0659 12.9341C26.1442 14.0125 26.75 15.475 26.75 17V23C26.75 23.7293 26.4603 24.4288 25.9445 24.9445C25.4288 25.4603 24.7293 25.75 24 25.75H16C15.2707 25.75 14.5712 25.4603 14.0555 24.9445C13.5397 24.4288 13.25 23.7293 13.25 23V17C13.25 15.475 13.8558 14.0125 14.9341 12.9341C16.0125 11.8558 17.475 11.25 19 11.25H21ZM21 12.75H19C17.8728 12.75 16.7918 13.1978 15.9948 13.9948C15.1978 14.7918 14.75 15.8728 14.75 17V23C14.75 23.3315 14.8817 23.6495 15.1161 23.8839C15.3505 24.1183 15.6685 24.25 16 24.25H24C24.3315 24.25 24.6495 24.1183 24.8839 23.8839C25.1183 23.6495 25.25 23.3315 25.25 23V17C25.25 15.8728 24.8022 14.7918 24.0052 13.9948C23.2082 13.1978 22.1272 12.75 21 12.75ZM22 27.25C22.1989 27.25 22.3897 27.329 22.5303 27.4697C22.671 27.6103 22.75 27.8011 22.75 28C22.75 28.1989 22.671 28.3897 22.5303 28.5303C22.3897 28.671 22.1989 28.75 22 28.75H18C17.8011 28.75 17.6103 28.671 17.4697 28.5303C17.329 28.3897 17.25 28.1989 17.25 28C17.25 27.8011 17.329 27.6103 17.4697 27.4697C17.6103 27.329 17.8011 27.25 18 27.25H22Z" fill="#2997FC"/>
</svg>
