<svg xmlns="http://www.w3.org/2000/svg" width="24.59" height="17.663" viewBox="0 0 24.59 17.663">
  <g id="Group_628" data-name="Group 628" transform="translate(0.75 0.75)">
    <path id="Path_197864" data-name="Path 197864" d="M24.563,11.979c.351.492.526.738.526,1.1s-.175.61-.526,1.1c-1.577,2.212-5.6,6.979-11.018,6.979S4.1,16.4,2.526,14.184c-.351-.492-.526-.738-.526-1.1s.175-.61.526-1.1C4.1,9.767,8.131,5,13.545,5S22.986,9.767,24.563,11.979Z" transform="translate(-2 -5)" fill="none" stroke="#141b34" stroke-width="1.5"/>
    <path id="Path_197865" data-name="Path 197865" d="M15.927,12.463a3.463,3.463,0,1,0-3.463,3.463A3.463,3.463,0,0,0,15.927,12.463Z" transform="translate(-0.919 -4.382)" fill="none" stroke="#141b34" stroke-width="1.5"/>
  </g>
</svg>
