<svg xmlns="http://www.w3.org/2000/svg" width="22.118" height="21.51" viewBox="0 0 22.118 21.51">
  <g id="Pakage" transform="translate(0 -1.24)">
    <path id="Path_190562" data-name="Path 190562" d="M12,13.3a.746.746,0,0,1-.38-.1L2.79,8.09a.753.753,0,0,1,.76-1.3L12,11.68l8.4-4.86a.753.753,0,0,1,.76,1.3L12.39,13.2A.94.94,0,0,1,12,13.3Z" transform="translate(-1.63)" fill="#fff"/>
    <path id="Path_190563" data-name="Path 190563" d="M12,22.36a.755.755,0,0,1-.75-.75V12.54a.75.75,0,0,1,1.5,0v9.07A.755.755,0,0,1,12,22.36Z" transform="translate(-1.63)" fill="#fff"/>
    <path id="Path_190564" data-name="Path 190564" d="M12,22.75a5.086,5.086,0,0,1-2.44-.58L4.22,19.21a5.453,5.453,0,0,1-2.59-4.39V9.16A5.468,5.468,0,0,1,4.22,4.77L9.56,1.81a5.486,5.486,0,0,1,4.87,0l5.34,2.96a5.453,5.453,0,0,1,2.59,4.39v3.66a.75.75,0,0,1-1.5,0V9.16a4,4,0,0,0-1.81-3.07L13.71,3.13a3.991,3.991,0,0,0-3.41,0L4.96,6.09A3.99,3.99,0,0,0,3.15,9.16v5.66a4,4,0,0,0,1.81,3.07l5.34,2.96a4.139,4.139,0,0,0,3.41,0,.75.75,0,0,1,.73,1.31,4.977,4.977,0,0,1-2.44.59Z" transform="translate(-1.63)" fill="#fff"/>
    <path id="Path_190565" data-name="Path 190565" d="M19.2,22.15a3.95,3.95,0,1,1,3.95-3.95A3.952,3.952,0,0,1,19.2,22.15Zm0-6.4a2.45,2.45,0,1,0,2.45,2.45A2.454,2.454,0,0,0,19.2,15.75Z" transform="translate(-1.63)" fill="#fff"/>
    <path id="Path_190566" data-name="Path 190566" d="M23,22.75a.742.742,0,0,1-.53-.22l-1-1a.75.75,0,0,1,1.06-1.06l1,1a.754.754,0,0,1,0,1.06.742.742,0,0,1-.53.22Z" transform="translate(-1.63)" fill="#fff"/>
  </g>
</svg>
