<svg xmlns="http://www.w3.org/2000/svg" width="18.761" height="20.662" viewBox="0 0 18.761 20.662">
  <g id="Group_110031" data-name="Group 110031" transform="translate(11658.147 9639.331)">
    <path id="Path_198863" data-name="Path 198863" d="M0,4.844V19.952a.409.409,0,0,0,.409.409H17.052a.409.409,0,0,0,.409-.409V4.84a.41.41,0,0,0-.015-.111l-.323-1.145a.409.409,0,0,0-.143-.212L14.027,1.086A.409.409,0,0,0,13.777,1H3.817a.409.409,0,0,0-.245.082L.515,3.374a.409.409,0,0,0-.146.207L.018,4.724A.409.409,0,0,0,0,4.844Z" transform="translate(-11657.497 -9639.681)" fill="none" stroke="#fff" stroke-width="1.3"/>
    <path id="Path_198864" data-name="Path 198864" d="M-11654.886-9617.864v-11.541h13.5v11.541Z" transform="translate(-0.645 -1.455)" fill="none" stroke="#fff" stroke-width="1.3"/>
    <g id="Ellipse_483" data-name="Ellipse 483" transform="translate(-11651.783 -9635.319)" fill="#fff" stroke="#fff" stroke-width="1">
      <circle cx="1" cy="1" r="1" stroke="none"/>
      <circle cx="1" cy="1" r="0.5" fill="none"/>
    </g>
    <g id="Ellipse_484" data-name="Ellipse 484" transform="translate(-11647.783 -9635.319)" fill="#fff" stroke="#fff" stroke-width="1">
      <circle cx="1" cy="1" r="1" stroke="none"/>
      <circle cx="1" cy="1" r="0.5" fill="none"/>
    </g>
  </g>
</svg>
