<svg xmlns="http://www.w3.org/2000/svg" xmlns:xlink="http://www.w3.org/1999/xlink" width="76" height="76" viewBox="0 0 76 76">
  <defs>
    <clipPath id="clip-path">
      <rect id="Rectangle_40703" data-name="Rectangle 40703" width="24" height="24" transform="translate(-2844 -4089)" fill="#fff" stroke="#707070" stroke-width="1"/>
    </clipPath>
  </defs>
  <g id="Group_110053" data-name="Group 110053" transform="translate(-609 -268)">
    <circle id="Ellipse_481" data-name="Ellipse 481" cx="38" cy="38" r="38" transform="translate(609 268)" fill="#f7f7fc"/>
    <g id="Mask_Group_100491" data-name="Mask Group 100491" transform="translate(3479 4383)" clip-path="url(#clip-path)">
      <g id="Group_110028" data-name="Group 110028" transform="translate(-2845 -4088)">
        <path id="Path_198877" data-name="Path 198877" d="M4.073,6.219l.67-1.556c.556-1.292.835-1.938,1.38-2.3S7.363,2,8.752,2h8.5c1.388,0,2.082,0,2.628.362s.824,1.008,1.38,2.3l.67,1.556c.907,2.107,1.361,3.161.876,3.915s-1.618.754-3.882.754H7.079c-2.264,0-3.4,0-3.882-.754S3.166,8.327,4.073,6.219Z" transform="translate(0 0)" fill="none" stroke="#000" stroke-linecap="round" stroke-linejoin="round" stroke-width="1.5"/>
        <path id="Path_198878" data-name="Path 198878" d="M4.5,10v5.556c0,2.1,0,3.143.651,3.794.524.524,6.159.626,7.536.646m8.48-10v5.556c0,2.1,0,3.143-.651,3.794-.524.524-6.164.626-7.542.646" transform="translate(0.167 0.889)" fill="none" stroke="#000" stroke-linecap="round" stroke-linejoin="round" stroke-width="1.5"/>
        <path id="Path_198879" data-name="Path 198879" d="M10.111,2,9,10.889M14.556,2l1.111,8.889" transform="translate(0.667 0)" fill="none" stroke="#000" stroke-linecap="round" stroke-linejoin="round" stroke-width="1.5"/>
        <path id="Path_198880" data-name="Path 198880" d="M4,6H21.778" transform="translate(0.111 0.444)" fill="none" stroke="#000" stroke-linecap="round" stroke-linejoin="round" stroke-width="1.5"/>
      </g>
    </g>
  </g>
</svg>
