<svg xmlns="http://www.w3.org/2000/svg" width="76" height="76" viewBox="0 0 76 76">
  <g id="Group_110052" data-name="Group 110052" transform="translate(-231 -268)">
    <circle id="Ellipse_483" data-name="Ellipse 483" cx="38" cy="38" r="38" transform="translate(231 268)" fill="#f7f7fc"/>
    <g id="Group_110034" data-name="Group 110034" transform="translate(257 294)">
      <path id="Path_198882" data-name="Path 198882" d="M21,7.485a4.124,4.124,0,0,0-.276-2.109c-.276-.463-.785-.768-1.8-1.376l-1.294-.775c-1.6-.956-2.4-1.434-3.011-1.137S14,3.245,14,4.967V22h7Z" fill="none" stroke="#000" stroke-linejoin="round" stroke-width="1.5"/>
      <path id="Path_198883" data-name="Path 198883" d="M22,22H2" fill="none" stroke="#000" stroke-linecap="round" stroke-linejoin="round" stroke-width="1.5"/>
      <path id="Path_198884" data-name="Path 198884" d="M14,9H10" fill="none" stroke="#000" stroke-linecap="round" stroke-linejoin="round" stroke-width="1.5"/>
      <path id="Path_198885" data-name="Path 198885" d="M14,15H10" fill="none" stroke="#000" stroke-linecap="round" stroke-linejoin="round" stroke-width="1.5"/>
      <path id="Path_198886" data-name="Path 198886" d="M3,7.485a4.124,4.124,0,0,1,.276-2.109c.276-.463.785-.768,1.8-1.376l1.294-.775c1.6-.956,2.4-1.434,3.011-1.137S10,3.245,10,4.967V22H3Z" fill="none" stroke="#000" stroke-linejoin="round" stroke-width="1.5"/>
      <path id="Path_198887" data-name="Path 198887" d="M6.5,8H6.492M6.5,12H6.492M6.5,16H6.492" fill="none" stroke="#000" stroke-linecap="round" stroke-linejoin="round" stroke-width="2"/>
      <path id="Path_198888" data-name="Path 198888" d="M17.5,8h-.009m.009,4h-.009m.009,4h-.009" fill="none" stroke="#000" stroke-linecap="round" stroke-linejoin="round" stroke-width="2"/>
    </g>
  </g>
</svg>
