<svg xmlns="http://www.w3.org/2000/svg" width="21.5" height="21.444" viewBox="0 0 21.5 21.444">
  <g id="Group_109536" data-name="Group 109536" transform="translate(-1.25 -1.306)">
    <path id="Path_198690" data-name="Path 198690" d="M21,7.485a4.124,4.124,0,0,0-.276-2.109c-.276-.463-.785-.768-1.8-1.376l-1.294-.775c-1.6-.956-2.4-1.434-3.011-1.137S14,3.245,14,4.967V22h7Z" fill="none" stroke="#fff" stroke-linejoin="round" stroke-width="1.5"/>
    <path id="Path_198691" data-name="Path 198691" d="M22,22H2" fill="none" stroke="#fff" stroke-linecap="round" stroke-linejoin="round" stroke-width="1.5"/>
    <path id="Path_198692" data-name="Path 198692" d="M14,9H10" fill="none" stroke="#fff" stroke-linecap="round" stroke-linejoin="round" stroke-width="1.5"/>
    <path id="Path_198693" data-name="Path 198693" d="M14,15H10" fill="none" stroke="#fff" stroke-linecap="round" stroke-linejoin="round" stroke-width="1.5"/>
    <path id="Path_198694" data-name="Path 198694" d="M3,7.485a4.124,4.124,0,0,1,.276-2.109c.276-.463.785-.768,1.8-1.376l1.294-.775c1.6-.956,2.4-1.434,3.011-1.137S10,3.245,10,4.967V22H3Z" fill="none" stroke="#fff" stroke-linejoin="round" stroke-width="1.5"/>
    <path id="Path_198695" data-name="Path 198695" d="M6.5,8H6.492M6.5,12H6.492M6.5,16H6.492" fill="none" stroke="#fff" stroke-linecap="round" stroke-linejoin="round" stroke-width="2"/>
    <path id="Path_198696" data-name="Path 198696" d="M17.5,8h-.009m.009,4h-.009m.009,4h-.009" fill="none" stroke="#fff" stroke-linecap="round" stroke-linejoin="round" stroke-width="2"/>
  </g>
</svg>
