<svg width="48" height="48" viewBox="0 0 48 48" fill="none" xmlns="http://www.w3.org/2000/svg">
<path d="M24 0.5C36.9787 0.5 47.5 11.0213 47.5 24C47.5 36.9787 36.9787 47.5 24 47.5C11.0213 47.5 0.5 36.9787 0.5 24C0.5 11.0213 11.0213 0.5 24 0.5Z" fill="#F7F7F7"/>
<path d="M24 0.5C36.9787 0.5 47.5 11.0213 47.5 24C47.5 36.9787 36.9787 47.5 24 47.5C11.0213 47.5 0.5 36.9787 0.5 24C0.5 11.0213 11.0213 0.5 24 0.5Z" stroke="#CCCCCC"/>
<path d="M16 30C16 27.7909 17.7909 26 20 26H28C30.2091 26 32 27.7909 32 30V30C32 31.1046 31.1046 32 30 32H18C16.8954 32 16 31.1046 16 30V30Z" stroke="#292929" stroke-width="1.5" stroke-linejoin="round"/>
<circle cx="24" cy="19" r="3" stroke="#292929" stroke-width="1.5"/>
</svg>
