<svg xmlns="http://www.w3.org/2000/svg" width="16.421" height="16.492" viewBox="0 0 16.421 16.492">
  <g id="Group_109215" data-name="Group 109215" transform="translate(0.752 0.75)">
    <path id="Path_198663" data-name="Path 198663" d="M12.2,11.389A4.695,4.695,0,1,0,7.491,6.695a4.258,4.258,0,0,0,.548,2.074l-5.7,5.677a1.04,1.04,0,0,0,0,1.528L3,16.629a1.038,1.038,0,0,0,1.425,0l.767-.764a1.241,1.241,0,1,0,1.864-1.638l.219-.218a1.428,1.428,0,0,0,2.3,0,1.354,1.354,0,0,0,0-1.528c-.219-.437-.658-.437-.11-.983l.658-.655A3.84,3.84,0,0,0,12.2,11.389Z" transform="translate(-2 -2)" fill="none" stroke="#8b8b8b" stroke-linejoin="round" stroke-width="1.5"/>
    <path id="Path_198664" data-name="Path 198664" d="M16.765,7.736A1.644,1.644,0,1,1,15.121,6.1,1.641,1.641,0,0,1,16.765,7.736Z" transform="translate(-4.916 -3.041)" fill="none" stroke="#8b8b8b" stroke-width="1.5"/>
  </g>
</svg>
