<svg width="22" height="23" viewBox="0 0 22 23" fill="none" xmlns="http://www.w3.org/2000/svg">
<path d="M18.8384 14.0442V11.353C18.8384 6.89416 15.2238 3.27954 10.7649 3.27954C6.30603 3.27954 2.69141 6.89416 2.69141 11.353V14.0442" stroke="#292929" stroke-width="1.34558" stroke-linecap="round"/>
<path d="M2.69141 14.0442H5.38257C5.878 14.0442 6.27962 14.4458 6.27962 14.9412V17.6324C6.27962 18.6233 5.47637 19.4265 4.48551 19.4265V19.4265C3.49466 19.4265 2.69141 18.6233 2.69141 17.6324V14.0442Z" stroke="#292929" stroke-width="1.34558" stroke-linecap="round"/>
<path d="M15.25 14.9412C15.25 14.4458 15.6516 14.0442 16.1471 14.0442H18.8382V17.6324C18.8382 18.6233 18.035 19.4265 17.0441 19.4265V19.4265C16.0532 19.4265 15.25 18.6233 15.25 17.6324V14.9412Z" stroke="#292929" stroke-width="1.34558" stroke-linecap="round"/>
</svg>
