<svg width="46" height="46" viewBox="0 0 46 46" fill="none" xmlns="http://www.w3.org/2000/svg">
<circle cx="23.332" cy="22.6721" r="22.5104" fill="#F4F5F7"/>
<path d="M32.9893 34.4829H13.119C11.6251 34.4829 10.4094 33.2672 10.4094 31.7733V22.7413C10.4094 21.2474 11.6251 20.0317 13.119 20.0317H32.9893C34.4832 20.0317 35.6989 21.2474 35.6989 22.7413V31.7733C35.6989 33.2672 34.4832 34.4829 32.9893 34.4829Z" fill="url(#paint0_linear_1_4603)"/>
<path d="M30.2793 15.9675V34.483H15.8281V15.9675C15.8281 15.683 15.9618 15.4156 16.1894 15.2449L22.5118 10.5031C22.8333 10.262 23.2741 10.262 23.5956 10.5031L29.918 15.2449C30.1456 15.4156 30.2793 15.683 30.2793 15.9675Z" fill="url(#paint1_linear_1_4603)"/>
<path d="M26.6672 34.4828V30.87C26.6672 30.3714 26.2626 29.9668 25.764 29.9668H20.3448C19.8463 29.9668 19.4417 30.3714 19.4417 30.87V34.4828H26.6672Z" fill="white"/>
<path d="M21.2479 22.741H19.4415C18.943 22.741 18.5383 22.3372 18.5383 21.8378C18.5383 21.3383 18.943 20.9346 19.4415 20.9346H21.2479C21.7465 20.9346 22.1511 21.3383 22.1511 21.8378C22.1511 22.3372 21.7465 22.741 21.2479 22.741Z" fill="white"/>
<path d="M26.6669 22.7415H24.8605C24.3619 22.7415 23.9573 22.3377 23.9573 21.8383C23.9573 21.3388 24.3619 20.9351 24.8605 20.9351H26.6669C27.1654 20.9351 27.5701 21.3388 27.5701 21.8383C27.5701 22.3377 27.1654 22.7415 26.6669 22.7415Z" fill="white"/>
<path d="M21.2479 26.3542H19.4415C18.943 26.3542 18.5383 25.9505 18.5383 25.451C18.5383 24.9516 18.943 24.5479 19.4415 24.5479H21.2479C21.7465 24.5479 22.1511 24.9516 22.1511 25.451C22.1511 25.9505 21.7465 26.3542 21.2479 26.3542Z" fill="white"/>
<path d="M26.6669 26.3542H24.8605C24.3619 26.3542 23.9573 25.9505 23.9573 25.451C23.9573 24.9516 24.3619 24.5479 24.8605 24.5479H26.6669C27.1654 24.5479 27.5701 24.9516 27.5701 25.451C27.5701 25.9505 27.1654 26.3542 26.6669 26.3542Z" fill="white"/>
<path d="M23.054 18.2251C24.0516 18.2251 24.8603 17.4163 24.8603 16.4187C24.8603 15.4211 24.0516 14.6123 23.054 14.6123C22.0563 14.6123 21.2476 15.4211 21.2476 16.4187C21.2476 17.4163 22.0563 18.2251 23.054 18.2251Z" fill="white"/>
<path d="M31.183 17.3219C30.9888 17.3219 30.7937 17.2605 30.6293 17.1313L23.0551 11.2407L15.48 17.1313C15.0871 17.4384 14.519 17.3662 14.2128 16.9733C13.9066 16.5786 13.978 16.0123 14.3718 15.7061L22.4996 9.38371C22.8248 9.12991 23.2827 9.12991 23.6087 9.38371L31.7375 15.7061C32.1313 16.0123 32.2027 16.5795 31.8965 16.9733C31.7186 17.2018 31.4521 17.3219 31.183 17.3219Z" fill="url(#paint2_linear_1_4603)"/>
<defs>
<linearGradient id="paint0_linear_1_4603" x1="23.0542" y1="19.5215" x2="23.0542" y2="34.5696" gradientUnits="userSpaceOnUse">
<stop stop-color="#C6CBCC"/>
<stop offset="1" stop-color="#F4F5F7"/>
</linearGradient>
<linearGradient id="paint1_linear_1_4603" x1="23.0533" y1="10.6115" x2="23.0533" y2="37.4737" gradientUnits="userSpaceOnUse">
<stop stop-color="#4793EB"/>
<stop offset="1" stop-color="#2367EC"/>
</linearGradient>
<linearGradient id="paint2_linear_1_4603" x1="23.0542" y1="9.29068" x2="23.0542" y2="18.3281" gradientUnits="userSpaceOnUse">
<stop stop-color="#4793EB"/>
<stop offset="1" stop-color="#2367EC"/>
</linearGradient>
</defs>
</svg>
