<svg width="39" height="30" viewBox="0 0 39 30" fill="none" xmlns="http://www.w3.org/2000/svg">
<path d="M10.6383 29.471C8.21734 29.3109 5.91704 28.4963 4.06581 27.1434C2.21459 25.7906 0.907113 23.9686 0.330068 21.9377C-0.246977 19.9069 -0.0640805 17.7709 0.852641 15.8349C1.76936 13.8989 3.37304 12.2618 5.43467 11.1573C5.87335 8.21203 7.54341 5.50529 10.1323 3.54367C12.7212 1.58206 16.0515 0.5 19.5 0.5C22.9485 0.5 26.2788 1.58206 28.8677 3.54367C31.4566 5.50529 33.1266 8.21203 33.5653 11.1573C35.627 12.2618 37.2306 13.8989 38.1474 15.8349C39.0641 17.7709 39.247 19.9069 38.6699 21.9377C38.0929 23.9686 36.7854 25.7906 34.9342 27.1434C33.083 28.4963 30.7827 29.3109 28.3617 29.471V29.5H10.6383V29.471ZM21.2723 17.2909H26.5894L19.5 9.6602L12.4106 17.2909H17.7277V23.3954H21.2723V17.2909Z" fill="#2997FC"/>
</svg>
