<svg xmlns="http://www.w3.org/2000/svg" width="19.803" height="14.852" viewBox="0 0 19.803 14.852">
  <g id="Group_109948" data-name="Group 109948" transform="translate(0 -19077)">
    <g id="Group_100402" data-name="Group 100402" transform="translate(0 19077)">
      <g id="Group_100402-2" data-name="Group 100402" transform="translate(0)">
        <path id="Path_198072" data-name="Path 198072" d="M18.173,3.5l.236.667L18.88,4V3.5Zm0,6h.707V9l-.472-.167ZM-.216,9.5l-.236-.667L-.923,9v.5Zm0-6H-.923V4l.472.167ZM2.613-.923A3.536,3.536,0,0,0-.923,2.613H.491A2.122,2.122,0,0,1,2.613.491Zm12.731,0H2.613V.491H15.344ZM18.88,2.613A3.536,3.536,0,0,0,15.344-.923V.491a2.122,2.122,0,0,1,2.122,2.122Zm0,.888V2.613H17.466V3.5Zm-2.122,3a2.477,2.477,0,0,1,1.65-2.335l-.471-1.334A3.891,3.891,0,0,0,15.344,6.5Zm1.65,2.335A2.477,2.477,0,0,1,16.758,6.5H15.344a3.891,3.891,0,0,0,2.594,3.668Zm.472,1.555V9.5H17.466v.888Zm-3.536,3.536a3.536,3.536,0,0,0,3.536-3.536H17.466a2.122,2.122,0,0,1-2.122,2.122Zm-12.731,0H15.344V12.515H2.613ZM-.923,10.393a3.536,3.536,0,0,0,3.536,3.536V12.515A2.122,2.122,0,0,1,.491,10.393Zm0-.888v.888H.491V9.5ZM1.2,6.5A2.477,2.477,0,0,1-.451,8.838L.02,10.172A3.891,3.891,0,0,0,2.613,6.5ZM-.451,4.168A2.477,2.477,0,0,1,1.2,6.5H2.613A3.891,3.891,0,0,0,.02,2.835ZM-.923,2.613V3.5H.491V2.613Z" transform="translate(0.923 0.923)" fill="#fff"/>
        <path id="Path_198073" data-name="Path 198073" d="M8.308,7.385V9.506" transform="translate(-1.235 -1.019)" fill="none" stroke="#fff" stroke-linecap="round" stroke-width="0.923"/>
        <path id="Path_198074" data-name="Path 198074" d="M8.308,2.77V4.891" transform="translate(-1.235 0.06)" fill="none" stroke="#fff" stroke-linecap="round" stroke-width="0.923"/>
        <path id="Path_198075" data-name="Path 198075" d="M8.308,12v2.122" transform="translate(-1.235 -2.098)" fill="none" stroke="#fff" stroke-linecap="round" stroke-width="0.923"/>
      </g>
    </g>
  </g>
</svg>
