<svg id="Component_200_38" data-name="Component 200 – 38" xmlns="http://www.w3.org/2000/svg" width="116.019" height="16.308" viewBox="0 0 116.019 16.308">
  <path id="Path_200123" data-name="Path 200123" d="M18.638-24.415a4.5,4.5,0,0,1,3.3,1.362,4.5,4.5,0,0,1,1.362,3.3v6.979a4.5,4.5,0,0,1-1.362,3.3,4.5,4.5,0,0,1-3.3,1.361H4.663A4.5,4.5,0,0,1,1.37-9.47,4.483,4.483,0,0,1,0-12.772v-6.98a4.483,4.483,0,0,1,1.37-3.3,4.5,4.5,0,0,1,3.294-1.362Zm1.4,4.19a1.361,1.361,0,0,0-.407-.987,1.34,1.34,0,0,0-.995-.416H4.663a1.348,1.348,0,0,0-.987.416,1.348,1.348,0,0,0-.416.987V-12.3a1.348,1.348,0,0,0,.416.984,1.348,1.348,0,0,0,.987.416H18.638a1.34,1.34,0,0,0,1-.416,1.361,1.361,0,0,0,.4-.984Zm26.775-4.19a4.5,4.5,0,0,1,3.3,1.362,4.5,4.5,0,0,1,1.362,3.3v6.979a4.5,4.5,0,0,1-1.362,3.3,4.5,4.5,0,0,1-3.3,1.361H28.324a.125.125,0,0,1-.089-.041.144.144,0,0,1-.041-.106V-24.268a.144.144,0,0,1,.041-.106.125.125,0,0,1,.09-.041Zm1.4,4.19a1.361,1.361,0,0,0-.407-.986,1.34,1.34,0,0,0-.995-.416H31.451V-10.9H46.813a1.34,1.34,0,0,0,1-.417,1.361,1.361,0,0,0,.407-.986Zm11.415-4.044a.144.144,0,0,0-.041-.106.144.144,0,0,0-.106-.041H56.5a.125.125,0,0,0-.09.041.144.144,0,0,0-.041.106v16.03a.125.125,0,0,0,.041.089.125.125,0,0,0,.09.041h2.984a.144.144,0,0,0,.106-.041.125.125,0,0,0,.04-.093ZM69.185-10.9a1.34,1.34,0,0,1-.992-.417,1.361,1.361,0,0,1-.407-.987v-7.923a1.361,1.361,0,0,1,.407-.986,1.34,1.34,0,0,1,.995-.416H87.679a.144.144,0,0,0,.106-.041.125.125,0,0,0,.041-.09v-2.511a.144.144,0,0,0-.041-.106.144.144,0,0,0-.106-.041H69.188a4.5,4.5,0,0,0-3.3,1.362,4.5,4.5,0,0,0-1.362,3.3v6.98a4.5,4.5,0,0,0,1.362,3.3,4.5,4.5,0,0,0,3.3,1.361H83.622A4.054,4.054,0,0,0,86.6-9.339a4.035,4.035,0,0,0,1.231-2.96v-3.816a.144.144,0,0,0-.041-.106.144.144,0,0,0-.106-.041H84.7a.125.125,0,0,0-.09.041.144.144,0,0,0-.041.106V-12.3a1.348,1.348,0,0,1-.416.986,1.348,1.348,0,0,1-.986.416Zm42.168-13.518a4.5,4.5,0,0,1,3.3,1.362,4.5,4.5,0,0,1,1.362,3.3v6.979a4.5,4.5,0,0,1-1.362,3.3,4.5,4.5,0,0,1-3.3,1.361H97.381A4.5,4.5,0,0,1,94.087-9.47a4.483,4.483,0,0,1-1.37-3.3v-6.979a4.483,4.483,0,0,1,1.37-3.3,4.5,4.5,0,0,1,3.294-1.362Zm1.4,4.19a1.361,1.361,0,0,0-.407-.987,1.34,1.34,0,0,0-.995-.416H97.381a1.348,1.348,0,0,0-.986.416,1.348,1.348,0,0,0-.416.986V-12.3a1.348,1.348,0,0,0,.416.987,1.348,1.348,0,0,0,.987.416h13.975a1.34,1.34,0,0,0,.995-.416,1.361,1.361,0,0,0,.407-.987Z" transform="translate(0.001 24.416)" fill="#fff"/>
</svg>
