<svg xmlns="http://www.w3.org/2000/svg" width="437.782" height="457.01" viewBox="0 0 437.782 457.01">
  <g id="Group_99926" data-name="Group 99926" transform="translate(-11270 -684)">
    <path id="Path_190433" data-name="Path 190433" d="M11629,817.5a255.061,255.061,0,0,1-12,23.345c-2.2,3.783-4.5,7.537-7,11.22a123.928,123.928,0,0,1-8.1,10.893l-1.1,1.332-.6.665c-.2.227-.3.4-.7.808a13.607,13.607,0,0,1-6,3.938,11.85,11.85,0,0,1-8.3-.524,14.828,14.828,0,0,1-4.7-3.244,30.137,30.137,0,0,1-5-6.516c-1.2-2.048-2.2-4.157-3.2-6.318a125.719,125.719,0,0,1-7.8-25.442l8.1-2.535c1.8,3.711,3.6,7.55,5.5,11.205,1.8,3.654,3.8,7.309,5.9,10.666a46.785,46.785,0,0,0,3.1,4.746,18.307,18.307,0,0,0,3.2,3.343c.4.326.7.4.5.255a2.008,2.008,0,0,0-.7-.241,3.28,3.28,0,0,0-1.3.1c-.9.269-1,.468-.9.284l1.6-2.168A207.548,207.548,0,0,0,11602,832.5c3.9-7.239,7.7-14.8,11.2-22.127Z" fill="#ff8b7b"/>
    <path id="Path_190434" data-name="Path 190434" d="M11633.7,810.371c3,10.426-18.5,38.857-18.5,38.857l-21.8-14a139.831,139.831,0,0,1,15.1-25.5C11617.4,798.3,11630.3,798.925,11633.7,810.371Z"/>
    <path id="Path_190435" data-name="Path 190435" d="M11633.7,810.371c3,10.426-18.5,38.857-18.5,38.857l-21.8-14a139.831,139.831,0,0,1,15.1-25.5C11617.4,798.3,11630.3,798.925,11633.7,810.371Z" opacity="0.2"/>
    <path id="Path_190436" data-name="Path 190436" d="M11620.4,822.612c-4.5,1.912-11,12.749-14.5,20.682l9.3,5.935a170.912,170.912,0,0,0,13.8-21.758C11626.1,824.269,11622.8,821.606,11620.4,822.612Z" opacity="0.2"/>
    <path id="Path_190437" data-name="Path 190437" d="M11572.4,829.2l2.9-12.82-13-.1s-3.4,9.633,3.5,14.166Z" fill="#ff8b7b"/>
    <path id="Path_190438" data-name="Path 190438" d="M11573.8,804.365l-10.4,3.726-1.1,8.188,12.9.1Z" fill="#ff8b7b"/>
    <path id="Path_190439" data-name="Path 190439" d="M11684.4,805.754c-12.3,43.191-9.8,89.031-10.9,98.31-8.9-.638-42.4-3.145-60.7-4.505-7.9-64.723,8-97.97,8-97.97s3.9-.751,9.2-1.3c1.7-.17,3.5-.312,5.3-.411,1.1,0,2.1-.1,3.2-.113a228.445,228.445,0,0,1,25.8,1.912c1.6.2,3.2.453,4.8.708s2.9.525,4.3.794C11679.6,804.408,11684.4,805.754,11684.4,805.754Z"/>
    <path id="Path_190440" data-name="Path 190440" d="M11684.4,805.754c-12.3,43.191-9.8,89.031-10.9,98.31-8.9-.638-42.4-3.145-60.7-4.505-7.9-64.723,8-97.97,8-97.97s3.9-.751,9.2-1.3c1.7-.17,3.5-.312,5.3-.411,1.1,0,2.1-.1,3.2-.113a228.445,228.445,0,0,1,25.8,1.912c1.6.2,3.2.453,4.8.708s2.9.525,4.3.794C11679.6,804.408,11684.4,805.754,11684.4,805.754Z" opacity="0.2"/>
    <path id="Path_190441" data-name="Path 190441" d="M11671.4,824.283c-1.1,4.179.2,23.246,4.5,27.949.6-6.1,1.5-12.48,2.5-19Z" opacity="0.2"/>
    <path id="Path_190442" data-name="Path 190442" d="M11663.9,772.406c-2.3,8.174-5,23.26.4,29.224-4.9,4.151-11.2,8.882-21,8.5-9.9-.382-7.7-7.082-4.8-10.411,9.4-1.53,9.7-8.415,8.5-14.973Z" fill="#ff8b7b"/>
    <path id="Path_190443" data-name="Path 190443" d="M11663.4,799.322s-4.1,6.729-20.5,10.823c2.7,2.521,4,8.5,4,8.5s21.4-5.156,20.8-17.2A14.819,14.819,0,0,0,11663.4,799.322Z" fill="#263238"/>
    <path id="Path_190444" data-name="Path 190444" d="M11637,817.1s2.2-5.185,5.9-6.955c-1.7-1.771-4.3-7.083-2.8-11.064a13.441,13.441,0,0,0-3.8.241S11629.8,807.5,11637,817.1Z" fill="#263238"/>
    <path id="Path_190445" data-name="Path 190445" d="M11642.2,817.257c-.2,1.1-.9,1.927-1.5,1.813-.5-.113-.9-1.09-.7-2.2s.9-1.941,1.4-1.828C11642,815.161,11642.4,816.138,11642.2,817.257Z" fill="#263238"/>
    <path id="Path_190446" data-name="Path 190446" d="M11641.2,823.631c-.1,1.134-.7,2-1.3,1.941s-1-1.006-.9-2.125.7-2,1.3-1.94S11641.3,822.512,11641.2,823.631Z" fill="#263238"/>
    <path id="Path_190447" data-name="Path 190447" d="M11657,777.492l-9.9,7.3a23.9,23.9,0,0,1,.4,4.632c3.6-.255,8.8-3.768,9.4-7.437A13.544,13.544,0,0,0,11657,777.492Z" opacity="0.2"/>
    <path id="Path_190448" data-name="Path 190448" d="M11641.1,741.54c-8.8-.2-10.6,21.164-4.9,24.89C11642,770.155,11657.7,741.9,11641.1,741.54Z" fill="#263238"/>
    <path id="Path_190449" data-name="Path 190449" d="M11665.8,760.04c-1.5,11.177-1.9,17.807-8,23.147-9.2,8.032-22.6,1.856-24.5-9.548-1.6-10.27,1.1-26.829,12.5-30.484a15.206,15.206,0,0,1,19.1,9.182A14.511,14.511,0,0,1,11665.8,760.04Z" fill="#ff8b7b"/>
    <path id="Path_190450" data-name="Path 190450" d="M11664.2,770.989c-5.7,2.989-12.2-27.949,2.8-26.334C11685.9,746.666,11675.5,765.025,11664.2,770.989Z" fill="#263238"/>
    <path id="Path_190451" data-name="Path 190451" d="M11638.9,744.586c0,6.927,22.5,13.812,30.2,11.446s9.7-8.5,5.5-12.749C11667.6,735.959,11638.9,731.016,11638.9,744.586Z" fill="#263238"/>
    <path id="Path_190452" data-name="Path 190452" d="M11639.9,745.494a13.039,13.039,0,0,0,3.2,6.12c-2-.114-4-2.961-4.7-4.618C11637.8,745.338,11639.9,745.494,11639.9,745.494Z" fill="#263238"/>
    <path id="Path_190453" data-name="Path 190453" d="M11669.9,772.8a10.823,10.823,0,0,1-7,4.249c-3.7.539-5.1-2.918-3.6-6.176,1.3-2.932,4.8-6.743,8.3-5.779S11672,769.983,11669.9,772.8Z" fill="#ff8b7b"/>
    <path id="Path_190454" data-name="Path 190454" d="M11616.4,1140.72l19.2.29s-6.4-76.05-4.6-111.44c.5-10.76,2.6-25.82,5.5-41.957,3.6-20.342,5.3-28.445,9.9-54.141,3.3-18.331,6.3-30.9,6.3-30.9l-39.9-2.974s-16.9,91.623-16.5,126.368C11596.7,1062,11616.4,1140.72,11616.4,1140.72Z" fill="#263238"/>
    <path id="Path_190455" data-name="Path 190455" d="M11638.7,926.812c-7.2,17.849-7.3,59.666-4,71.438.5-3.485,1.1-7.083,1.8-10.681,3.6-20.342,5.3-28.445,9.9-54.141.1-.51.2-1.006.3-1.5A28.98,28.98,0,0,0,11638.7,926.812Z" opacity="0.2"/>
    <path id="Path_190456" data-name="Path 190456" d="M11634.4,901.158s3.5,95.888,6.1,129.092c3,36.38,30.2,110.72,30.2,110.72h20.8s-13.9-68-18.1-103.41c-4.9-40.231.1-133.526.1-133.526Z" fill="#263238"/>
    <path id="Path_190457" data-name="Path 190457" d="M11648.5,761.91c-.1.92-.6,1.629-1.2,1.572s-1-.822-1-1.728c.1-.907.6-1.615,1.2-1.572S11648.6,761.074,11648.5,761.91Z" fill="#263238"/>
    <path id="Path_190458" data-name="Path 190458" d="M11638.1,761.145c0,.92-.6,1.614-1.2,1.572s-1-.822-.9-1.728c0-.907.6-1.629,1.2-1.587S11638.2,760.224,11638.1,761.145Z" fill="#263238"/>
    <path id="Path_190459" data-name="Path 190459" d="M11641.4,761.84a32.339,32.339,0,0,1-4.9,7.508,4.366,4.366,0,0,0,2,1.031,5.073,5.073,0,0,0,2.2.1Z" fill="#ed893e"/>
    <path id="Path_190460" data-name="Path 190460" d="M11644.5,773.214a7.209,7.209,0,0,0,2.9-.742,6.972,6.972,0,0,0,2.4-1.865c.1-.025.1-.055.1-.087v-.208c0-.033,0-.062-.1-.087,0-.048-.1-.075-.2-.075,0,0-.1.027-.1.075a8.239,8.239,0,0,1-2.8,1.929,7.431,7.431,0,0,1-3.4.465.752.752,0,0,0-.2.063v.177c-.1.036,0,.072,0,.106v.093c0,.028.1.051.1.068s.1.027.1.031A9.264,9.264,0,0,0,11644.5,773.214Z" fill="#263238"/>
    <path id="Path_190461" data-name="Path 190461" d="M11651.9,758.807a.671.671,0,0,0,.3-.085c.1-.037.1-.086.2-.144v-.191c.1-.069.1-.14,0-.209v-.193a5.532,5.532,0,0,0-1.9-1.8,4.92,4.92,0,0,0-2.4-.752.668.668,0,0,0-.4.157.77.77,0,0,0,0,.761.67.67,0,0,0,.4.158,4.242,4.242,0,0,1,1.9.628,3.672,3.672,0,0,1,1.4,1.426c.1.088.1.158.2.2A.527.527,0,0,0,11651.9,758.807Z" fill="#263238"/>
    <path id="Path_190462" data-name="Path 190462" d="M11634,757.265c.1-.007.1-.035.2-.081s.2-.111.2-.188a4.556,4.556,0,0,1,1.3-1.5,4.949,4.949,0,0,1,1.9-.714c.1,0,.2-.021.2-.051.1-.031.1-.074.2-.127,0-.053.1-.114.1-.181v-.41a.171.171,0,0,1-.1-.169c-.1-.048-.2-.084-.2-.108a.9.9,0,0,0-.2-.03,5.235,5.235,0,0,0-2.4.874,5.314,5.314,0,0,0-1.7,1.86.193.193,0,0,0-.1.2v.21c0,.069.1.133.1.189.1.056.1.1.2.138A.644.644,0,0,0,11634,757.265Z" fill="#263238"/>
    <path id="Path_190463" data-name="Path 190463" d="M11687.3,812.836c4,7.961,7.5,15.922,10.8,24.082,1.6,4.079,3.2,8.23,4.7,12.409.7,2.11,1.4,4.249,2.1,6.346l.5,1.6.6,1.841c.4,1.261.6,2.522.9,3.768a70.984,70.984,0,0,1-1.3,28.657,118.251,118.251,0,0,1-4,13.089c-.8,2.125-1.7,4.25-2.6,6.276s-1.8,4.065-3,6.19l-7.8-3.4a118.783,118.783,0,0,0,2.9-12.111c.8-4.066,1.5-8.174,2-12.225a95.719,95.719,0,0,0,.5-11.984,46.232,46.232,0,0,0-1.6-11.092,21.4,21.4,0,0,0-.8-2.507c-.2-.411-.3-.751-.5-1.247l-.6-1.416-2.4-5.823c-1.7-3.909-3.5-7.776-5.2-11.672l-10.7-23.274Z" fill="#ff8b7b"/>
    <path id="Path_190464" data-name="Path 190464" d="M11684.4,805.753c10.3,3.259,20.5,38.432,20.5,38.432l-24,10.5s-7.7-17-12.2-30.315C11663.8,809.847,11671.8,801.815,11684.4,805.753Z"/>
    <path id="Path_190465" data-name="Path 190465" d="M11684.4,805.753c10.3,3.259,20.5,38.432,20.5,38.432l-24,10.5s-7.7-17-12.2-30.315C11663.8,809.847,11671.8,801.815,11684.4,805.753Z" opacity="0.2"/>
    <path id="Path_190466" data-name="Path 190466" d="M11688.8,911.783l-5.6,10.1,13.2,3.428s4-9.788-.7-12.9Z" fill="#ff8b7b"/>
    <path id="Path_190467" data-name="Path 190467" d="M11682.2,933.341l12.1,1.006,2.1-9.038-13.2-3.428Z" fill="#ff8b7b"/>
    <path id="Path_190468" data-name="Path 190468" d="M11574.4,988.109h-299.7l21.2-299.7h299.7Z" opacity="0.03"/>
    <path id="Path_190469" data-name="Path 190469" d="M11296.7,739.586l-8.8-.623,3.9-54.963h54.9v8.811H11300Z"/>
    <path id="Path_190470" data-name="Path 190470" d="M11325.6,992.513H11270l3.9-55.572,8.8.624-3.3,46.137h46.2Z"/>
    <path id="Path_190471" data-name="Path 190471" d="M11596.4,739.586l-8.8-.623,3.3-46.152h-46.2V684h55.6Z"/>
    <path id="Path_190472" data-name="Path 190472" d="M11578.5,992.513h-54.9V983.7h46.7l3.3-46.761,8.8.624Z"/>
    <g id="Group_99925" data-name="Group 99925" opacity="0.16">
      <path id="Path_190473" data-name="Path 190473" d="M11429.2,943.911a1.66,1.66,0,0,1-.7-.184c-.1,0-2.2-1.19-5.7-3.343-1.4-.893-3.2-1.984-5.1-3.216-6.2-4.009-12.1-8.23-17.7-12.551-1.4-1.048-2.7-2.125-4-3.23a183.354,183.354,0,0,1-14.1-12.55c-1.1-1.077-2.2-2.154-3.2-3.258a141.327,141.327,0,0,1-10.9-12.594c-.8-1.062-1.6-2.153-2.4-3.258a102.2,102.2,0,0,1-7.7-12.65c-.5-1.062-1.1-2.181-1.6-3.3a71.264,71.264,0,0,1-4.3-12.749,27.067,27.067,0,0,1-.7-3.315c-.1-.794-.3-1.629-.4-2.451-.4-3.244-.8-6.544-1.1-10.114-.1-1.063-.2-2.139-.3-3.2-.4-4.249-.7-8.4-.9-12.536v-.34c0-.935-.2-1.87-.2-2.833-.2-4.08-.3-8.287-.4-12.509V798c0-1.076,0-2.153.1-3.215.1-4.618.2-8.825.4-12.508v-.241c0-1.02.1-2.012.1-2.989.3-4.562.6-8.882.9-12.508.1-1.233.2-2.281.3-3.216.3-3.57.5-5.567.5-5.567a1.8,1.8,0,0,1,.5-.969,1.641,1.641,0,0,1,1-.448c.2,0,26.4-2.025,54.2-6.927,5.7-.991,11.1-2.068,16.3-3.187,7.6-1.672,14.6-3.485,20.8-5.4a1.4,1.4,0,0,1,.9,0c5.9,1.926,12.6,3.74,20,5.4q7.651,1.7,15.9,3.187c27.1,4.9,53,6.913,53.3,6.927a1.828,1.828,0,0,1,1,.511,2.013,2.013,0,0,1,.4,1.076s0,1.983-.2,5.567c0,.949-.1,2.026-.2,3.215-.2,3.641-.5,7.962-.9,12.509-.1.906-.2,1.813-.3,2.762v.468c-.3,3.7-.8,7.9-1.3,12.494-.1,1.09-.2,2.153-.4,3.229-.5,3.854-1,8.061-1.7,12.495l-.5,3.2c-.7,4.25-1.4,8.5-2.2,12.522-.2.907-.3,1.828-.5,2.749l-.1.481c-.8,4.108-1.7,8.33-2.7,12.509l-.8,3.229c-.8,3.57-1.7,6.871-2.5,10.1-.3.836-.5,1.658-.8,2.479-.4,1.2-.7,2.281-1.1,3.3a84.754,84.754,0,0,1-6.1,12.749c-.7,1.091-1.4,2.2-2.1,3.272a113.118,113.118,0,0,1-9.4,12.622c-.9,1.091-1.9,2.181-2.8,3.244a163.017,163.017,0,0,1-12.7,12.579q-1.8,1.644-3.6,3.23c-4.8,4.136-10.1,8.343-15.8,12.536-1.6,1.105-3.1,2.182-4.6,3.23-6.1,4.321-12.7,8.5-19.4,12.537-2.1,1.232-4,2.323-5.6,3.215-3.8,2.139-6.1,3.287-6.1,3.329A2.034,2.034,0,0,1,11429.2,943.911Zm-76.1-184.536c-.1.935-.3,2.351-.4,4.249q-.151,1.4-.3,3.1c-.3,3.683-.6,7.975-.9,12.522,0,.963-.1,1.941-.1,2.961v.241c-.2,3.654-.4,7.833-.5,12.423V813.7c.1,4.179.2,8.358.4,12.395,0,.935.1,1.856.1,2.833v.425c.3,4.094.6,8.273.9,12.409q.151,1.594.3,3.187c.4,3.528.8,6.814,1.2,10.016.1.779.2,1.558.3,2.323.2,1.161.5,2.167.7,3.13a73.576,73.576,0,0,0,4.1,12.183c.5,1.062,1,2.125,1.5,3.145a97.417,97.417,0,0,0,7.5,12.267c.8,1.063,1.5,2.125,2.3,3.159a138.5,138.5,0,0,0,10.7,12.338c1,1.077,2.1,2.139,3.1,3.188,4.2,4.065,8.8,8.216,13.9,12.352,1.4,1.091,2.7,2.153,4,3.2,5.5,4.249,11.3,8.428,17.4,12.38,1.9,1.219,3.7,2.295,5.1,3.173,2.3,1.417,3.9,2.352,4.8,2.834,1-.5,2.9-1.417,5.3-2.834,1.6-.892,3.5-1.969,5.6-3.2,6.6-3.952,13-8.117,19.2-12.4,1.4-1.034,2.9-2.1,4.4-3.2,5.7-4.137,10.9-8.287,15.6-12.367,1.2-1.048,2.4-2.111,3.6-3.2,4.3-3.906,8.5-8.029,12.4-12.353,1-1.048,1.9-2.1,2.8-3.159a109.158,109.158,0,0,0,9.3-12.3,26.475,26.475,0,0,0,1.9-3.159,70.991,70.991,0,0,0,6-12.239c.4-.977.7-2,1.1-3.145a20.813,20.813,0,0,0,.7-2.351c.9-3.2,1.7-6.474,2.6-10.015.2-1.063.5-2.125.7-3.187,1-4.151,1.9-8.33,2.7-12.41l.1-.495a25.742,25.742,0,0,1,.5-2.72c.7-4.023,1.5-8.2,2.1-12.423l.5-3.188c.7-4.4,1.3-8.584,1.8-12.423.1-1.062.2-2.111.4-3.159.5-4.59.9-8.769,1.3-12.452V781.8c.1-.935.1-1.856.2-2.748.4-4.505.7-8.8.9-12.409.1-1.19.1-2.253.2-3.2.1-1.728.1-3.088.1-4.009-5.9-.51-28.5-2.592-52-6.842-5.6-1.005-11-2.082-16-3.215-7.3-1.643-14-3.428-19.9-5.327-6.1,1.9-13,3.684-20.5,5.327q-7.95,1.7-16.5,3.215C11381.9,756.825,11358.7,758.907,11353.1,759.375Z"/>
      <path id="Path_190474" data-name="Path 190474" d="M11451.1,821.742c7.7-7.384,8.3-19.152,1.4-26.283s-18.7-6.927-26.3.458c-7.7,7.384-8.3,19.151-1.4,26.283S11443.5,829.127,11451.1,821.742Z"/>
      <path id="Path_190475" data-name="Path 190475" d="M11442.7,815.316h-9l-12.9,59.865h26.3Z"/>
      <g id="Group_99924" data-name="Group 99924" opacity="0.2">
        <path id="Path_190476" data-name="Path 190476" d="M11479.4,750.987h-73.3c5.4-.963,10.9-2.025,16.3-3.215h41.1Q11471.45,749.557,11479.4,750.987Z"/>
        <path id="Path_190477" data-name="Path 190477" d="M11532.4,766.655h-181.6c.1-1.19.2-2.252.3-3.215h181.5C11532.6,764.4,11532.5,765.465,11532.4,766.655Z"/>
        <path id="Path_190478" data-name="Path 190478" d="M11531.5,779.1c0,1.048-.1,2.125-.2,3.23h-181.5c0-1.1.1-2.182.2-3.23Z"/>
        <path id="Path_190479" data-name="Path 190479" d="M11529.9,794.785c-.1,1.063-.2,2.139-.4,3.216h-180.2c0-1.077,0-2.153.1-3.216Z"/>
        <path id="Path_190480" data-name="Path 190480" d="M11527.8,810.467c-.2,1.062-.3,2.125-.5,3.2h-178v-3.2Z"/>
        <path id="Path_190481" data-name="Path 190481" d="M11525.2,826.137l-.6,3.216h-174.7c0-1.077-.1-2.154-.1-3.216Z"/>
        <path id="Path_190482" data-name="Path 190482" d="M11521.9,841.819l-.8,3.2h-170c-.1-1.062-.2-2.139-.3-3.2Z"/>
        <path id="Path_190483" data-name="Path 190483" d="M11517.8,857.485c-.3,1.076-.7,2.153-1.1,3.215h-163.4c-.2-1.062-.5-2.139-.6-3.215Z"/>
        <path id="Path_190484" data-name="Path 190484" d="M11510.7,873.151c-.6,1.076-1.3,2.167-2,3.215h-149.6c-.5-1.048-1-2.139-1.5-3.215Z"/>
        <path id="Path_190485" data-name="Path 190485" d="M11499.4,888.832c-1,1.077-1.9,2.153-2.9,3.2H11369c-.8-1.049-1.6-2.125-2.3-3.2Z"/>
        <path id="Path_190486" data-name="Path 190486" d="M11484,904.5c-1.2,1.091-2.4,2.168-3.6,3.216H11383c-1.1-1.048-2.2-2.125-3.2-3.216Z"/>
        <path id="Path_190487" data-name="Path 190487" d="M11464.7,920.166c-1.5,1.1-3,2.182-4.5,3.216H11401c-1.3-1.034-2.7-2.111-4.1-3.216Z"/>
        <path id="Path_190488" data-name="Path 190488" d="M11440.9,935.85c-2.1,1.232-4,2.309-5.6,3.2h-11.6c-1.5-.892-3.2-1.969-5.2-3.2Z"/>
      </g>
    </g>
  </g>
</svg>
