<svg xmlns="http://www.w3.org/2000/svg" width="16.552" height="20.594" viewBox="0 0 16.552 20.594">
  <g id="_573765" data-name="573765" transform="translate(-16.849 -2.812)">
    <g id="Group_100087" data-name="Group 100087" transform="translate(16.849 2.812)">
      <path id="Path_189813" data-name="Path 189813" d="M30.5,11.963a2.79,2.79,0,0,0-1.985-.822h-.2V8.35a5.176,5.176,0,0,0-5.17-5.17h-.191a5.176,5.176,0,0,0-5.17,5.17V11.14h-.2a2.807,2.807,0,0,0-2.808,2.808v7.018a2.808,2.808,0,0,0,2.808,2.808H28.517a2.808,2.808,0,0,0,2.808-2.808V13.948a2.79,2.79,0,0,0-.822-1.986ZM19.137,8.35a3.82,3.82,0,0,1,3.815-3.815h.191A3.82,3.82,0,0,1,26.959,8.35V11.14H19.137ZM29.97,20.966a1.464,1.464,0,0,1-.426,1.027,1.444,1.444,0,0,1-1.028.426H17.58a1.454,1.454,0,0,1-1.453-1.453V13.948a1.453,1.453,0,0,1,1.453-1.453H28.516a1.453,1.453,0,0,1,1.453,1.453v7.018Z" transform="translate(-14.772 -3.18)" fill="#fff"/>
      <path id="Path_189814" data-name="Path 189814" d="M60.333,76.464a.677.677,0,0,0-.677.677v2.386a.677.677,0,1,0,1.354,0V77.141A.677.677,0,0,0,60.333,76.464Z" transform="translate(-52.057 -64.057)" fill="#fff"/>
    </g>
  </g>
</svg>
