<svg xmlns="http://www.w3.org/2000/svg" width="20.5" height="20.5" viewBox="0 0 20.5 20.5">
  <g id="Group_109958" data-name="Group 109958" transform="translate(-1.75 -1.75)">
    <path id="Path_198717" data-name="Path 198717" d="M12,21.5c-4.478,0-6.718,0-8.109-1.391S2.5,16.478,2.5,12s0-6.718,1.391-8.109S7.522,2.5,12,2.5s6.718,0,8.109,1.391S21.5,7.522,21.5,12s0,6.718-1.391,8.109S16.478,21.5,12,21.5Z" fill="none" stroke="#fff" stroke-width="1.5"/>
    <path id="ad" d="M16.137,6a.809.809,0,0,0-.809.809v3.51a2.832,2.832,0,1,0,.145,5.043.809.809,0,0,0,1.473-.461V6.809A.809.809,0,0,0,16.137,6Zm-2.023,8.092a1.214,1.214,0,1,1,1.214-1.214A1.215,1.215,0,0,1,14.114,14.092Zm-6.1-7.515a.809.809,0,0,0-1.55,0L4.034,14.668a.809.809,0,1,0,1.55.464L5.9,14.092h2.68l.312,1.041a.809.809,0,0,0,.775.577.833.833,0,0,0,.233-.034.809.809,0,0,0,.543-1.007L8.013,6.577Zm-1.63,5.9.854-2.848.854,2.848H6.382Z" transform="translate(1.527 0.5)" fill="#fff"/>
  </g>
</svg>
