<svg xmlns="http://www.w3.org/2000/svg" width="85" height="85" viewBox="0 0 85 85">
  <g id="Group_110365" data-name="Group 110365" transform="translate(-322 -1953)">
    <circle id="Ellipse_493" data-name="Ellipse 493" cx="42.5" cy="42.5" r="42.5" transform="translate(322 1953)" fill="#f7f7fc"/>
    <g id="user" transform="translate(349.674 1978.698)">
      <g id="Group_110329" data-name="Group 110329" transform="translate(6.081)">
        <g id="Group_110328" data-name="Group 110328">
          <path id="Path_199071" data-name="Path 199071" d="M130.121,0a9.121,9.121,0,1,0,9.121,9.121A9.132,9.132,0,0,0,130.121,0Z" transform="translate(-121)" fill="#c1bcbc"/>
        </g>
      </g>
      <g id="Group_110331" data-name="Group 110331" transform="translate(0 20.269)">
        <g id="Group_110330" data-name="Group 110330">
          <path id="Path_199072" data-name="Path 199072" d="M57.551,303.932A13,13,0,0,0,48.229,300H44.175a13,13,0,0,0-9.322,3.932A13.293,13.293,0,0,0,31,313.31a1.014,1.014,0,0,0,1.013,1.013H60.391A1.014,1.014,0,0,0,61.4,313.31,13.293,13.293,0,0,0,57.551,303.932Z" transform="translate(-31 -300)" fill="#c1bcbc"/>
        </g>
      </g>
    </g>
  </g>
</svg>
