<svg xmlns="http://www.w3.org/2000/svg" width="16.484" height="16.484" viewBox="0 0 16.484 16.484">
  <g id="Group_109213" data-name="Group 109213" transform="translate(0.751 0.815)">
    <path id="Path_198655" data-name="Path 198655" d="M14,2s1.823.166,4.144,2.486,2.486,4.144,2.486,4.144" transform="translate(-5.712 -2)" fill="none" stroke="#8b8b8b" stroke-linecap="round" stroke-width="1.5"/>
    <path id="Path_198656" data-name="Path 198656" d="M14.207,5.536A5.562,5.562,0,0,1,16.258,7a5.563,5.563,0,0,1,1.465,2.051" transform="translate(-5.747 -2.605)" fill="none" stroke="#8b8b8b" stroke-linecap="round" stroke-width="1.5"/>
    <path id="Path_198657" data-name="Path 198657" d="M9,5.091l.538.964A2.347,2.347,0,0,1,9.068,8.83h0s-.927.927.754,2.609,2.608.755,2.609.754h0a2.347,2.347,0,0,1,2.775-.474l.964.538a2.337,2.337,0,0,1,.314,3.73A3.843,3.843,0,0,1,14,17.256,9.26,9.26,0,0,1,7.04,14.221,9.26,9.26,0,0,1,4.005,7.26,3.844,3.844,0,0,1,5.275,4.777,2.337,2.337,0,0,1,9,5.091Z" transform="translate(-4 -2.342)" fill="none" stroke="#8b8b8b" stroke-linecap="round" stroke-width="1.5"/>
  </g>
</svg>
