<svg xmlns="http://www.w3.org/2000/svg" xmlns:xlink="http://www.w3.org/1999/xlink" width="98" height="44" viewBox="0 0 98 44">
  <defs>
    <clipPath id="clip-path">
      <rect id="Rectangle_40797" data-name="Rectangle 40797" width="98" height="44" fill="#fff"/>
    </clipPath>
  </defs>
  <g id="Kody_Robots_logo" data-name="Kody Robots logo" clip-path="url(#clip-path)">
    <path id="Path_199120" data-name="Path 199120" d="M64.771,57.6l-.779,2.506q-.072.222-.146.391a1.393,1.393,0,0,1-.158.283.6.6,0,0,1-.191.172.461.461,0,0,1-.229.057c-.029,0-.058,0-.086,0S63.127,61,63.1,61v-.273a.324.324,0,0,0,.047,0H63.2a.421.421,0,0,0,.326-.152,1.3,1.3,0,0,0,.238-.489L62.947,57.6h.243l.7,2.147.641-2.147Z" transform="translate(-19.174 -17.545)" fill="#fff"/>
    <path id="Path_199121" data-name="Path 199121" d="M41.988,57.6l-.779,2.506a4.018,4.018,0,0,1-.147.391,1.364,1.364,0,0,1-.157.283.6.6,0,0,1-.191.172.461.461,0,0,1-.229.057c-.029,0-.058,0-.086,0S40.344,61,40.316,61v-.273a.323.323,0,0,0,.047,0h.053a.421.421,0,0,0,.326-.152,1.3,1.3,0,0,0,.238-.489L40.164,57.6h.243l.7,2.147.641-2.147Z" transform="translate(-12.234 -17.545)" fill="#fff"/>
    <path id="Path_199122" data-name="Path 199122" d="M12.044,57.6l-.6,2.462h-.276L10.615,58l-.528,2.065H9.811L9.189,57.6h.249l.511,2.08.528-2.08h.276l.55,2.08L11.8,57.6Z" transform="translate(-2.799 -17.545)" fill="#fff"/>
    <path id="Path_199123" data-name="Path 199123" d="M133.653,60.1a.944.944,0,0,1-.407-.086.926.926,0,0,1-.315-.254,1.267,1.267,0,0,1-.2-.41,2.125,2.125,0,0,1,0-1.086,1.2,1.2,0,0,1,.2-.407.873.873,0,0,1,.3-.257.835.835,0,0,1,.387-.089.868.868,0,0,1,.4.089.849.849,0,0,1,.3.257,1.2,1.2,0,0,1,.191.407,2,2,0,0,1,.066.54v.057h-1.686a1.681,1.681,0,0,0,.08.435.983.983,0,0,0,.166.308.677.677,0,0,0,.234.181.711.711,0,0,0,.293.06.881.881,0,0,0,.221-.029.7.7,0,0,0,.2-.092.549.549,0,0,0,.152-.149.425.425,0,0,0,.072-.2h.218a.96.96,0,0,1-.108.311.866.866,0,0,1-.191.229.8.8,0,0,1-.257.14A.971.971,0,0,1,133.653,60.1Zm.688-1.493a1.118,1.118,0,0,0-.251-.632.626.626,0,0,0-.478-.21.671.671,0,0,0-.262.051.615.615,0,0,0-.218.156.918.918,0,0,0-.161.264,1.548,1.548,0,0,0-.091.372Z" transform="translate(-40.408 -17.517)" fill="#fff"/>
    <path id="Path_199124" data-name="Path 199124" d="M124.363,60.034h-.221V58.427a1,1,0,0,0-.1-.508.358.358,0,0,0-.334-.156.569.569,0,0,0-.345.127,1.488,1.488,0,0,0-.323.353v1.791h-.221V58.427a1.729,1.729,0,0,0-.022-.3.532.532,0,0,0-.069-.206.307.307,0,0,0-.133-.118.462.462,0,0,0-.2-.038.521.521,0,0,0-.332.127,1.657,1.657,0,0,0-.318.353v1.791h-.221V57.572h.221v.365a1.552,1.552,0,0,1,.207-.226,1.012,1.012,0,0,1,.186-.13.578.578,0,0,1,.166-.057.78.78,0,0,1,.152-.016.568.568,0,0,1,.354.111.634.634,0,0,1,.213.34,1.063,1.063,0,0,1,.175-.219.881.881,0,0,1,.188-.14.7.7,0,0,1,.193-.07.836.836,0,0,1,.188-.022q.595,0,.595.9Z" transform="translate(-37.017 -17.517)" fill="#fff"/>
    <path id="Path_199125" data-name="Path 199125" d="M102.448,59.716a1.715,1.715,0,0,1-.221.191,1.228,1.228,0,0,1-.213.118.922.922,0,0,1-.2.057,1.346,1.346,0,0,1-.207.016.671.671,0,0,1-.262-.051.6.6,0,0,1-.211-.137.7.7,0,0,1-.14-.219.791.791,0,0,1-.05-.286.776.776,0,0,1,.312-.658,1.568,1.568,0,0,1,.942-.235h.255a2.47,2.47,0,0,0-.017-.3.578.578,0,0,0-.077-.235.407.407,0,0,0-.179-.159.762.762,0,0,0-.324-.057.782.782,0,0,0-.453.108.45.45,0,0,0-.177.327H101a.727.727,0,0,1,.238-.518.926.926,0,0,1,.608-.171,1,1,0,0,1,.378.063.607.607,0,0,1,.254.184.718.718,0,0,1,.145.289,1.517,1.517,0,0,1,.044.381v1.607h-.221Zm0-.95h-.334a1.306,1.306,0,0,0-.718.159.516.516,0,0,0-.235.454.422.422,0,0,0,.15.343.713.713,0,0,0,.627.083.994.994,0,0,0,.2-.1,1.2,1.2,0,0,0,.171-.14,1.771,1.771,0,0,0,.138-.152Z" transform="translate(-30.746 -17.517)" fill="#fff"/>
    <path id="Path_199126" data-name="Path 199126" d="M94.975,57.509a.868.868,0,0,1,.4.089.815.815,0,0,1,.3.254,1.2,1.2,0,0,1,.19.407,2.219,2.219,0,0,1,0,1.089,1.228,1.228,0,0,1-.191.41.849.849,0,0,1-.3.254.94.94,0,0,1-.785,0,.827.827,0,0,1-.3-.251,1.265,1.265,0,0,1-.193-.41,2.005,2.005,0,0,1-.069-.553,2.031,2.031,0,0,1,.066-.543,1.244,1.244,0,0,1,.193-.407.827.827,0,0,1,.3-.251A.862.862,0,0,1,94.975,57.509Zm0,2.335a.677.677,0,0,0,.3-.063.641.641,0,0,0,.232-.2,1,1,0,0,0,.149-.327,1.7,1.7,0,0,0,.055-.457,1.653,1.653,0,0,0-.055-.451.922.922,0,0,0-.149-.324.612.612,0,0,0-.232-.194.65.65,0,0,0-.3-.067.673.673,0,0,0-.3.067.617.617,0,0,0-.229.194.922.922,0,0,0-.149.324,1.732,1.732,0,0,0-.052.451,1.783,1.783,0,0,0,.052.457,1,1,0,0,0,.149.327.648.648,0,0,0,.229.2A.7.7,0,0,0,94.975,59.843Z" transform="translate(-28.639 -17.517)" fill="#fff"/>
    <path id="Path_199127" data-name="Path 199127" d="M89.987,57.938a1.331,1.331,0,0,1,.21-.232.957.957,0,0,1,.2-.13.628.628,0,0,1,.188-.054,1.167,1.167,0,0,1,.166-.013q.661,0,.661.9v1.629h-.221V58.427a1.36,1.36,0,0,0-.028-.3.486.486,0,0,0-.086-.206.333.333,0,0,0-.155-.121.575.575,0,0,0-.232-.041.62.62,0,0,0-.359.124,1.639,1.639,0,0,0-.346.349v1.8h-.221V57.572h.221Z" transform="translate(-27.343 -17.517)" fill="#fff"/>
    <path id="Path_199128" data-name="Path 199128" d="M82.025,60.1a.879.879,0,0,1-.389-.086.852.852,0,0,1-.3-.251,1.226,1.226,0,0,1-.193-.407,2,2,0,0,1-.069-.553,2.067,2.067,0,0,1,.066-.546,1.243,1.243,0,0,1,.193-.407.85.85,0,0,1,.694-.34.842.842,0,0,1,.287.048.7.7,0,0,1,.238.14.745.745,0,0,1,.174.229,1,1,0,0,1,.1.311h-.215a.542.542,0,0,0-.064-.2.456.456,0,0,0-.124-.149.516.516,0,0,0-.18-.089.705.705,0,0,0-.215-.032.664.664,0,0,0-.3.067.61.61,0,0,0-.232.194.958.958,0,0,0-.149.327,1.732,1.732,0,0,0-.052.451,1.783,1.783,0,0,0,.052.457.959.959,0,0,0,.149.324.639.639,0,0,0,.232.2.692.692,0,0,0,.3.063.744.744,0,0,0,.207-.029.6.6,0,0,0,.177-.089.488.488,0,0,0,.2-.353h.215a1.063,1.063,0,0,1-.1.314.764.764,0,0,1-.174.226.652.652,0,0,1-.238.137A.837.837,0,0,1,82.025,60.1Z" transform="translate(-24.695 -17.517)" fill="#fff"/>
    <path id="Path_199129" data-name="Path 199129" d="M77.616,60.1a.942.942,0,0,1-.406-.086.913.913,0,0,1-.315-.254,1.247,1.247,0,0,1-.2-.41,2.126,2.126,0,0,1,0-1.086,1.2,1.2,0,0,1,.2-.407.872.872,0,0,1,.3-.257.837.837,0,0,1,.387-.089.866.866,0,0,1,.4.089.837.837,0,0,1,.3.257,1.188,1.188,0,0,1,.191.407,2.018,2.018,0,0,1,.066.54v.057H76.842a1.683,1.683,0,0,0,.08.435.969.969,0,0,0,.166.308.667.667,0,0,0,.235.181.709.709,0,0,0,.293.06.873.873,0,0,0,.221-.029.683.683,0,0,0,.2-.092.55.55,0,0,0,.152-.149.43.43,0,0,0,.072-.2h.218a.964.964,0,0,1-.108.311.853.853,0,0,1-.191.229.8.8,0,0,1-.257.14A.967.967,0,0,1,77.616,60.1ZM78.3,58.6a1.118,1.118,0,0,0-.251-.632.625.625,0,0,0-.478-.21.675.675,0,0,0-.263.051.624.624,0,0,0-.218.156.932.932,0,0,0-.16.264,1.542,1.542,0,0,0-.091.372Z" transform="translate(-23.339 -17.517)" fill="#fff"/>
    <path id="Path_199130" data-name="Path 199130" d="M55.141,57.509a.867.867,0,0,1,.4.089.812.812,0,0,1,.3.254,1.2,1.2,0,0,1,.191.407,2.227,2.227,0,0,1,0,1.089,1.232,1.232,0,0,1-.191.41.853.853,0,0,1-.3.254.94.94,0,0,1-.785,0,.83.83,0,0,1-.3-.251,1.272,1.272,0,0,1-.193-.41,2.25,2.25,0,0,1,0-1.1,1.233,1.233,0,0,1,.193-.407.824.824,0,0,1,.3-.251A.861.861,0,0,1,55.141,57.509Zm0,2.335a.676.676,0,0,0,.3-.063.64.64,0,0,0,.232-.2,1,1,0,0,0,.149-.327,1.7,1.7,0,0,0,.055-.457,1.654,1.654,0,0,0-.055-.451.921.921,0,0,0-.149-.324.611.611,0,0,0-.232-.194.649.649,0,0,0-.3-.067.673.673,0,0,0-.3.067.617.617,0,0,0-.229.194.922.922,0,0,0-.149.324,1.735,1.735,0,0,0-.053.451,1.786,1.786,0,0,0,.053.457,1,1,0,0,0,.149.327.647.647,0,0,0,.229.2A.7.7,0,0,0,55.141,59.843Z" transform="translate(-16.506 -17.517)" fill="#fff"/>
    <path id="Path_199131" data-name="Path 199131" d="M23.329,60.1a.942.942,0,0,1-.406-.086.915.915,0,0,1-.315-.254,1.245,1.245,0,0,1-.2-.41,2.128,2.128,0,0,1,0-1.086,1.2,1.2,0,0,1,.2-.407.873.873,0,0,1,.3-.257.837.837,0,0,1,.387-.089.867.867,0,0,1,.4.089.841.841,0,0,1,.3.257,1.2,1.2,0,0,1,.191.407,2.015,2.015,0,0,1,.066.54v.057H22.555a1.678,1.678,0,0,0,.08.435.98.98,0,0,0,.166.308.671.671,0,0,0,.235.181.711.711,0,0,0,.293.06.877.877,0,0,0,.221-.029.686.686,0,0,0,.2-.092.549.549,0,0,0,.152-.149.427.427,0,0,0,.072-.2h.218a.959.959,0,0,1-.108.311.857.857,0,0,1-.191.229.806.806,0,0,1-.257.14A.97.97,0,0,1,23.329,60.1Zm.688-1.493a1.118,1.118,0,0,0-.251-.632.625.625,0,0,0-.478-.21.674.674,0,0,0-.263.051.622.622,0,0,0-.218.156.927.927,0,0,0-.16.264,1.535,1.535,0,0,0-.091.372Z" transform="translate(-6.803 -17.517)" fill="#fff"/>
    <path id="Path_199132" data-name="Path 199132" d="M20.426,57.769a.32.32,0,0,0-.066-.006h-.08a.4.4,0,0,0-.182.044.752.752,0,0,0-.169.118,1.045,1.045,0,0,0-.149.162,1.225,1.225,0,0,0-.119.184v1.763H19.44V57.572h.221v.34a1.285,1.285,0,0,1,.185-.206.991.991,0,0,1,.18-.124.581.581,0,0,1,.169-.057.759.759,0,0,1,.146-.016.26.26,0,0,1,.041,0l.044,0Z" transform="translate(-5.921 -17.517)" fill="#fff"/>
    <path id="Path_199133" data-name="Path 199133" d="M15.809,60.1a.942.942,0,0,1-.406-.086.915.915,0,0,1-.315-.254,1.245,1.245,0,0,1-.2-.41,2.129,2.129,0,0,1,0-1.086,1.2,1.2,0,0,1,.2-.407.873.873,0,0,1,.3-.257.838.838,0,0,1,.387-.089.866.866,0,0,1,.4.089.841.841,0,0,1,.3.257,1.2,1.2,0,0,1,.191.407,2.015,2.015,0,0,1,.066.54v.057H15.036a1.681,1.681,0,0,0,.08.435.981.981,0,0,0,.166.308.671.671,0,0,0,.235.181.711.711,0,0,0,.293.06.877.877,0,0,0,.221-.029.687.687,0,0,0,.2-.092.549.549,0,0,0,.152-.149.427.427,0,0,0,.072-.2h.218a.959.959,0,0,1-.108.311.86.86,0,0,1-.191.229.807.807,0,0,1-.257.14A.97.97,0,0,1,15.809,60.1ZM16.5,58.6a1.118,1.118,0,0,0-.251-.632.625.625,0,0,0-.478-.21.674.674,0,0,0-.263.051.623.623,0,0,0-.218.156.926.926,0,0,0-.16.264,1.535,1.535,0,0,0-.091.372Z" transform="translate(-4.513 -17.517)" fill="#fff"/>
    <path id="Path_199134" data-name="Path 199134" d="M5.885,57.509a.867.867,0,0,1,.4.089.812.812,0,0,1,.3.254,1.2,1.2,0,0,1,.191.407,2.227,2.227,0,0,1,0,1.089,1.231,1.231,0,0,1-.191.41.853.853,0,0,1-.3.254.94.94,0,0,1-.785,0,.83.83,0,0,1-.3-.251A1.272,1.272,0,0,1,5,59.351a2.251,2.251,0,0,1,0-1.1,1.233,1.233,0,0,1,.193-.407.824.824,0,0,1,.3-.251A.861.861,0,0,1,5.885,57.509Zm0,2.335a.676.676,0,0,0,.3-.063.639.639,0,0,0,.232-.2,1,1,0,0,0,.149-.327,1.7,1.7,0,0,0,.055-.457,1.653,1.653,0,0,0-.055-.451.921.921,0,0,0-.149-.324.61.61,0,0,0-.232-.194.649.649,0,0,0-.3-.067.673.673,0,0,0-.3.067.617.617,0,0,0-.229.194.921.921,0,0,0-.149.324,1.734,1.734,0,0,0-.053.451,1.785,1.785,0,0,0,.053.457,1,1,0,0,0,.149.327.647.647,0,0,0,.229.2A.7.7,0,0,0,5.885,59.843Z" transform="translate(-1.502 -17.517)" fill="#fff"/>
    <path id="Path_199135" data-name="Path 199135" d="M130.71,59.8q-.047.006-.094.01c-.031,0-.063,0-.094,0a.519.519,0,0,1-.232-.045.324.324,0,0,1-.133-.14.692.692,0,0,1-.058-.229c-.009-.093-.014-.2-.014-.324V57.572h-.274v-.254h.274v-.645h.221v.645h.35v.254h-.35V59.1a1.213,1.213,0,0,0,.019.245.349.349,0,0,0,.058.14.185.185,0,0,0,.094.064.606.606,0,0,0,.13.013h.052l.05,0Z" transform="translate(-39.541 -17.263)" fill="#fff"/>
    <path id="Path_199136" data-name="Path 199136" d="M138.638,59.277a1.194,1.194,0,0,1-.2.213.909.909,0,0,1-.185.124.635.635,0,0,1-.175.054,1.05,1.05,0,0,1-.16.013.685.685,0,0,1-.357-.092.783.783,0,0,1-.259-.257,1.331,1.331,0,0,1-.161-.4,2.425,2.425,0,0,1-.052-.524,2.147,2.147,0,0,1,.063-.546,1.4,1.4,0,0,1,.179-.413.828.828,0,0,1,.271-.26.656.656,0,0,1,.337-.092,1.313,1.313,0,0,1,.157.01.715.715,0,0,1,.166.041.752.752,0,0,1,.177.089,1.125,1.125,0,0,1,.193.162V56.139h.221v3.478h-.221Zm0-1.576a1.1,1.1,0,0,0-.312-.267.722.722,0,0,0-.356-.089.542.542,0,0,0-.476.264,1.027,1.027,0,0,0-.133.33,2.02,2.02,0,0,0-.047.464,1.415,1.415,0,0,0,.168.762.531.531,0,0,0,.469.26.6.6,0,0,0,.365-.124,1.4,1.4,0,0,0,.321-.375Z" transform="translate(-41.759 -17.1)" fill="#fff"/>
    <path id="Path_199137" data-name="Path 199137" d="M127.915,59.617h-.222V57.155h.222Zm0-3.081H127.7v-.4h.222Z" transform="translate(-38.895 -17.1)" fill="#fff"/>
    <path id="Path_199138" data-name="Path 199138" d="M119.353,59.617h-.222V57.155h.222Zm0-3.081h-.222v-.4h.222Z" transform="translate(-36.287 -17.1)" fill="#fff"/>
    <path id="Path_199139" data-name="Path 199139" d="M116.45,59.617h-1.782V56.139h.221v3.224h1.561Z" transform="translate(-34.928 -17.1)" fill="#fff"/>
    <path id="Path_199140" data-name="Path 199140" d="M105.774,57.549a1.1,1.1,0,0,1,.179-.219.9.9,0,0,1,.188-.14.719.719,0,0,1,.183-.076.7.7,0,0,1,.522.07.739.739,0,0,1,.259.257,1.288,1.288,0,0,1,.161.4,2.278,2.278,0,0,1,.055.521,2.1,2.1,0,0,1-.066.546,1.4,1.4,0,0,1-.182.413.861.861,0,0,1-.271.267.644.644,0,0,1-.334.092.936.936,0,0,1-.693-.321v.257h-.221V56.139h.221Zm0,1.48a1.47,1.47,0,0,0,.309.289.636.636,0,0,0,.36.108.55.55,0,0,0,.478-.27,1.441,1.441,0,0,0,.179-.794,1.392,1.392,0,0,0-.168-.759.533.533,0,0,0-.47-.257.572.572,0,0,0-.367.137,1.55,1.55,0,0,0-.321.384Z" transform="translate(-32.151 -17.1)" fill="#fff"/>
    <path id="Path_199141" data-name="Path 199141" d="M98.905,59.617h-.222V56.139h.222Z" transform="translate(-30.059 -17.1)" fill="#fff"/>
    <path id="Path_199142" data-name="Path 199142" d="M85.575,57.52a1.509,1.509,0,0,1,.2-.222.937.937,0,0,1,.2-.13.781.781,0,0,1,.182-.06.946.946,0,0,1,.166-.016q.661,0,.661.9v1.629h-.221V58.01a1.364,1.364,0,0,0-.028-.3.487.487,0,0,0-.086-.206.335.335,0,0,0-.155-.121.575.575,0,0,0-.232-.041.585.585,0,0,0-.351.124,1.76,1.76,0,0,0-.337.349v1.8h-.221V56.139h.221Z" transform="translate(-25.999 -17.1)" fill="#fff"/>
    <path id="Path_199143" data-name="Path 199143" d="M74.01,56.393H72.952v3.224h-.221V56.393H71.684v-.254H74.01Z" transform="translate(-21.835 -17.1)" fill="#fff"/>
    <path id="Path_199144" data-name="Path 199144" d="M60.168,59.277a1.21,1.21,0,0,1-.2.213.9.9,0,0,1-.185.124.629.629,0,0,1-.174.054,1.056,1.056,0,0,1-.16.013.683.683,0,0,1-.356-.092.78.78,0,0,1-.26-.257,1.335,1.335,0,0,1-.16-.4,2.41,2.41,0,0,1-.053-.524,2.15,2.15,0,0,1,.064-.546,1.385,1.385,0,0,1,.18-.413.827.827,0,0,1,.271-.26.657.657,0,0,1,.337-.092,1.324,1.324,0,0,1,.158.01.72.72,0,0,1,.166.041.754.754,0,0,1,.177.089,1.132,1.132,0,0,1,.193.162V56.139h.221v3.478h-.221Zm0-1.576a1.108,1.108,0,0,0-.312-.267.723.723,0,0,0-.357-.089.542.542,0,0,0-.475.264,1.025,1.025,0,0,0-.133.33,2.019,2.019,0,0,0-.047.464,1.411,1.411,0,0,0,.169.762.53.53,0,0,0,.47.26.6.6,0,0,0,.365-.124,1.4,1.4,0,0,0,.321-.375Z" transform="translate(-17.857 -17.1)" fill="#fff"/>
    <path id="Path_199145" data-name="Path 199145" d="M51.591,59.617h-.3l-1.208-1.9-.616.686v1.213H49.25V56.139h.221v1.912l1.716-1.912h.307L50.248,57.53Z" transform="translate(-15.002 -17.1)" fill="#fff"/>
    <path id="Path_199146" data-name="Path 199146" d="M36.28,57.549a1.1,1.1,0,0,1,.18-.219.9.9,0,0,1,.188-.14.718.718,0,0,1,.182-.076A.689.689,0,0,1,37,57.092a.678.678,0,0,1,.354.092.741.741,0,0,1,.26.257,1.293,1.293,0,0,1,.16.4,2.277,2.277,0,0,1,.055.521,2.086,2.086,0,0,1-.066.546,1.387,1.387,0,0,1-.182.413.857.857,0,0,1-.271.267.643.643,0,0,1-.334.092.938.938,0,0,1-.694-.321v.257h-.221V56.139h.221Zm0,1.48a1.477,1.477,0,0,0,.31.289.637.637,0,0,0,.359.108.55.55,0,0,0,.478-.27,1.439,1.439,0,0,0,.18-.794,1.4,1.4,0,0,0-.169-.759.532.532,0,0,0-.47-.257.572.572,0,0,0-.368.137,1.571,1.571,0,0,0-.321.384Z" transform="translate(-10.983 -17.1)" fill="#fff"/>
    <path id="Path_199147" data-name="Path 199147" d="M28.314,59.277a1.21,1.21,0,0,1-.2.213.9.9,0,0,1-.185.124.629.629,0,0,1-.174.054,1.056,1.056,0,0,1-.16.013.683.683,0,0,1-.356-.092.78.78,0,0,1-.26-.257,1.337,1.337,0,0,1-.16-.4,2.41,2.41,0,0,1-.053-.524,2.15,2.15,0,0,1,.064-.546,1.385,1.385,0,0,1,.18-.413.827.827,0,0,1,.271-.26.657.657,0,0,1,.337-.092,1.324,1.324,0,0,1,.158.01.72.72,0,0,1,.166.041.752.752,0,0,1,.177.089,1.134,1.134,0,0,1,.193.162V56.139h.221v3.478h-.221Zm0-1.576A1.107,1.107,0,0,0,28,57.435a.723.723,0,0,0-.357-.089.542.542,0,0,0-.475.264,1.025,1.025,0,0,0-.133.33,2.015,2.015,0,0,0-.047.464,1.412,1.412,0,0,0,.169.762.53.53,0,0,0,.47.26.6.6,0,0,0,.365-.124,1.4,1.4,0,0,0,.321-.375Z" transform="translate(-8.154 -17.1)" fill="#fff"/>
    <path id="Path_199148" data-name="Path 199148" d="M0,56.139H1.1a2.14,2.14,0,0,1,.426.041.919.919,0,0,1,.359.152.744.744,0,0,1,.249.3,1.061,1.061,0,0,1,.094.476,1.021,1.021,0,0,1-.282.778,1.14,1.14,0,0,1-.818.267H.221v1.468H0ZM.221,57.9h.915a1.34,1.34,0,0,0,.4-.051A.657.657,0,0,0,1.8,57.7a.568.568,0,0,0,.152-.241A1.1,1.1,0,0,0,2,57.117a.838.838,0,0,0-.072-.375.516.516,0,0,0-.191-.219.688.688,0,0,0-.276-.1,2.078,2.078,0,0,0-.332-.025h-.9Z" transform="translate(0 -17.1)" fill="#fff"/>
    <path id="Path_199149" data-name="Path 199149" d="M105.554,45.445a4.722,4.722,0,0,1-4.712-4.719v-1.7h1.285v1.7a3.436,3.436,0,0,0,3.427,3.435,3.429,3.429,0,0,0,3.405-3.054h1.289a4.715,4.715,0,0,1-4.695,4.338Zm-6.763-9.231V34.931h9.5v1.284Z" transform="translate(-30.092 -10.64)" fill="#fff"/>
    <path id="Path_199150" data-name="Path 199150" d="M0,45.445V39.676a4.734,4.734,0,0,1,9.454-.382H8.165a3.448,3.448,0,0,0-6.875.382v5.769H0Z" transform="translate(0 -10.64)" fill="#fff"/>
    <path id="Path_199151" data-name="Path 199151" d="M124.445,44.2V42.91h7.62a1.662,1.662,0,0,0,1.657-1.661,1.641,1.641,0,0,0-.476-1.189,1.607,1.607,0,0,0-1.147-.477h-4.712a2.95,2.95,0,0,1,0-5.9h4.5v1.288h-4.5a1.661,1.661,0,0,0,0,3.323H132.1a2.914,2.914,0,0,1,2.908,2.915,2.957,2.957,0,0,1-2.938,2.989h-7.624Z" transform="translate(-37.906 -10.26)" fill="#fff"/>
    <path id="Path_199152" data-name="Path 199152" d="M78.928,44.935a5.626,5.626,0,1,1,5.612-5.626A5.626,5.626,0,0,1,78.928,44.935Zm0-9.964a4.338,4.338,0,1,0,4.327,4.338A4.337,4.337,0,0,0,78.928,34.972Z" transform="translate(-22.332 -10.26)" fill="#fff"/>
    <path id="Path_199153" data-name="Path 199153" d="M28.542,44.935a5.626,5.626,0,1,1,5.612-5.626A5.626,5.626,0,0,1,28.542,44.935Zm0-9.964a4.338,4.338,0,1,0,4.327,4.338A4.337,4.337,0,0,0,28.542,34.972Z" transform="translate(-6.984 -10.26)" fill="#fff"/>
    <path id="Path_199154" data-name="Path 199154" d="M53.82,44.021A5.432,5.432,0,0,1,48.4,38.591V29.941h1.281v8.649a4.137,4.137,0,1,0,4.137-4.147H52.474V33.156H53.82a5.431,5.431,0,0,1,0,10.861Z" transform="translate(-14.743 -9.12)" fill="#fff"/>
    <path id="Path_199155" data-name="Path 199155" d="M80.7,18.679l4.093-2,.58,1.119-4.093,2Zm-.437-2.555a5.262,5.262,0,0,1-5.249-5.257V5.614H76.3v5.253A3.973,3.973,0,0,0,80.26,14.84a3.964,3.964,0,0,0,3.963-3.973V5.614H85.5v5.253a5.251,5.251,0,0,1-5.244,5.262Z" transform="translate(-22.85 -1.71)" fill="#009af1"/>
    <path id="Path_199156" data-name="Path 199156" d="M30.227,15.618a5.626,5.626,0,1,1,5.612-5.626A5.626,5.626,0,0,1,30.227,15.618Zm0-9.964a4.338,4.338,0,1,0,4.327,4.338A4.337,4.337,0,0,0,30.227,5.654Z" transform="translate(-7.498 -1.33)" fill="#009af1"/>
    <path id="Path_199157" data-name="Path 199157" d="M9.242,14.335V12.874a2.668,2.668,0,0,0-2.661-2.668H4.8l.056-1.518L8.5,3.825H10.1L6.326,8.874,7,8.944a3.94,3.94,0,0,1,3.526,3.934V14.34H9.242ZM0,.624H1.281V14.331H0Z" transform="translate(0 -0.19)" fill="#009af1"/>
    <path id="Path_199158" data-name="Path 199158" d="M55.544,14.08a5.431,5.431,0,0,1,0-10.861H56.89V4.507H55.544a4.147,4.147,0,1,0,4.137,4.147V0h1.281V8.649A5.432,5.432,0,0,1,55.544,14.08Z" transform="translate(-15.269)" fill="#009af1"/>
  </g>
</svg>
