<svg width="14" height="13" viewBox="0 0 14 13" fill="none" xmlns="http://www.w3.org/2000/svg">
<path d="M3.75 10.1292V11.375C3.75 11.5187 3.69293 11.6564 3.59135 11.758C3.48977 11.8596 3.35199 11.9167 3.20833 11.9167C3.06467 11.9167 2.9269 11.8596 2.82532 11.758C2.72374 11.6564 2.66667 11.5187 2.66667 11.375V8.66668C2.66667 8.52302 2.72374 8.38524 2.82532 8.28366C2.9269 8.18208 3.06467 8.12501 3.20833 8.12501H5.91667C6.06033 8.12501 6.1981 8.18208 6.29968 8.28366C6.40127 8.38524 6.45833 8.52302 6.45833 8.66668C6.45833 8.81034 6.40127 8.94811 6.29968 9.04969C6.1981 9.15127 6.06033 9.20834 5.91667 9.20834H4.34583C4.87911 9.73106 5.55486 10.0847 6.28833 10.2248C7.0218 10.365 7.78032 10.2854 8.46876 9.99619C9.15719 9.70693 9.74489 9.22083 10.1581 8.59886C10.5714 7.97689 10.7918 7.24675 10.7917 6.50001C10.7917 6.35635 10.8487 6.21858 10.9503 6.11699C11.0519 6.01541 11.1897 5.95834 11.3333 5.95834C11.477 5.95834 11.6148 6.01541 11.7164 6.11699C11.8179 6.21858 11.875 6.35635 11.875 6.50001C11.8741 7.44071 11.6011 8.36108 11.0889 9.15009C10.5767 9.93911 9.8471 10.5631 8.98818 10.9467C8.12927 11.3304 7.17769 11.4573 6.24824 11.3123C5.31879 11.1672 4.45116 10.7563 3.75 10.1292ZM10.25 2.87084V1.62501C10.25 1.48135 10.3071 1.34358 10.4087 1.24199C10.5102 1.14041 10.648 1.08334 10.7917 1.08334C10.9353 1.08334 11.0731 1.14041 11.1747 1.24199C11.2763 1.34358 11.3333 1.48135 11.3333 1.62501V4.33334C11.3333 4.477 11.2763 4.61478 11.1747 4.71636C11.0731 4.81794 10.9353 4.87501 10.7917 4.87501H8.08333C7.93967 4.87501 7.8019 4.81794 7.70032 4.71636C7.59874 4.61478 7.54167 4.477 7.54167 4.33334C7.54167 4.18968 7.59874 4.05191 7.70032 3.95033C7.8019 3.84875 7.93967 3.79168 8.08333 3.79168H9.65417C9.12089 3.26896 8.44514 2.91535 7.71167 2.77519C6.9782 2.63503 6.21968 2.71457 5.53124 3.00383C4.84281 3.29309 4.25511 3.77919 3.84186 4.40116C3.42862 5.02313 3.20823 5.75327 3.20833 6.50001C3.20833 6.64367 3.15127 6.78144 3.04968 6.88303C2.9481 6.98461 2.81033 7.04168 2.66667 7.04168C2.52301 7.04168 2.38523 6.98461 2.28365 6.88303C2.18207 6.78144 2.125 6.64367 2.125 6.50001C2.12586 5.55931 2.39887 4.63894 2.9111 3.84993C3.42333 3.06091 4.1529 2.43695 5.01182 2.0533C5.87073 1.66965 6.82231 1.5427 7.75176 1.68776C8.68121 1.83283 9.54884 2.24371 10.25 2.87084Z" fill="black"/>
</svg>
