<svg id="Master" xmlns="http://www.w3.org/2000/svg" width="21.929" height="18.328" viewBox="0 0 21.929 18.328">
  <path id="Path_190590" data-name="Path 190590" d="M21.219,3.371H19.1l-.076-.3a4.082,4.082,0,0,0-7.909,0l-.076.3H.71a.71.71,0,1,0,0,1.42H11.039l.076.3a4.082,4.082,0,0,0,7.909,0l.077-.3h2.118a.71.71,0,1,0,0-1.42M15.07,6.742a2.671,2.671,0,0,1-2.659-2.619V4.094s0-.009,0-.013,0-.009,0-.013V4.04a2.66,2.66,0,1,1,2.659,2.7" fill="#fff"/>
  <path id="Path_190591" data-name="Path 190591" d="M21.219,232.483H10.9l-.072-.308a4.1,4.1,0,0,0-1.421-2.248,4.036,4.036,0,0,0-2.552-.9h0a4.034,4.034,0,0,0-2.552.9,4.1,4.1,0,0,0-1.421,2.248l-.072.308H.71a.71.71,0,0,0,0,1.421H2.843l.081.293a4.09,4.09,0,0,0,3.935,3,4.044,4.044,0,0,0,2.492-.851,4.111,4.111,0,0,0,1.442-2.144l.081-.293H21.219a.71.71,0,0,0,0-1.421m-12.48,2.509a2.652,2.652,0,0,1-1.88.78h0a2.664,2.664,0,1,1,1.88-.78" transform="translate(0 -218.863)" fill="#fff"/>
</svg>
