<svg xmlns="http://www.w3.org/2000/svg" width="20.5" height="21.5" viewBox="0 0 20.5 21.5">
  <g id="Group_100510" data-name="Group 100510" transform="translate(-1.75 -1.25)">
    <path id="Path_198120" data-name="Path 198120" d="M4,10C4,6.229,4,4.343,5.172,3.172S8.229,2,12,2h1.5c3.771,0,5.657,0,6.828,1.172S21.5,6.229,21.5,10v4c0,3.771,0,5.657-1.172,6.828S17.271,22,13.5,22H12c-3.771,0-5.657,0-6.828-1.172S4,17.771,4,14Z" fill="none" stroke="#8f8f8f" stroke-width="1.5"/>
    <path id="Path_198121" data-name="Path 198121" d="M9.8,11.974a6.271,6.271,0,0,1-.757-1.967,2.463,2.463,0,0,1,.933-2.368.5.5,0,0,1,.806.154l.393.7c.311.559.467.838.436,1.134s-.241.537-.661,1.02Zm0,0A10.356,10.356,0,0,0,13.526,15.7m0,0a6.272,6.272,0,0,0,1.967.757,2.463,2.463,0,0,0,2.368-.933.5.5,0,0,0-.154-.806l-.7-.393c-.559-.311-.838-.467-1.134-.436s-.537.241-1.02.661Z" fill="none" stroke="#8f8f8f" stroke-linejoin="round" stroke-width="1.5"/>
    <path id="Path_198122" data-name="Path 198122" d="M5,6H2.5M5,12H2.5M5,18H2.5" fill="none" stroke="#8f8f8f" stroke-linecap="round" stroke-linejoin="round" stroke-width="1.5"/>
  </g>
</svg>
