<svg xmlns="http://www.w3.org/2000/svg" width="60" height="60" viewBox="0 0 60 60">
  <g id="Group_109034" data-name="Group 109034" transform="translate(0.487)">
    <circle id="Ellipse_2426" data-name="Ellipse 2426" cx="30" cy="30" r="30" transform="translate(-0.487)" fill="#f7f7fc"/>
    <g id="Group_109044" data-name="Group 109044" transform="translate(19.513 19)">
      <path id="Path_198745" data-name="Path 198745" d="M9.471,21c-3.993,0-5.99,0-7.23-1.172S1,16.771,1,13V9C1,5.229,1,3.343,2.24,2.172S5.478,1,9.471,1h1.059c3.993,0,5.99,0,7.23,1.172S19,5.229,19,9M9.5,21H11" fill="none" stroke="#000" stroke-linecap="round" stroke-width="1"/>
      <path id="Path_198746" data-name="Path 198746" d="M5.375,5.375h8" transform="translate(0.625 0.625)" fill="none" stroke="#000" stroke-linecap="round" stroke-width="1"/>
      <path id="Path_198747" data-name="Path 198747" d="M5.375,9.75h5" transform="translate(0.625 1.25)" fill="none" stroke="#000" stroke-linecap="round" stroke-width="1"/>
      <path id="Path_198748" data-name="Path 198748" d="M13.875,16.215l-.9,3.153a.2.2,0,0,0,.268.235l1.986-.793a.4.4,0,0,1,.3,0l2,.8a.2.2,0,0,0,.27-.227l-.764-3.268m1.341-2.5a3,3,0,1,0-3,3A3,3,0,0,0,18.375,13.62Z" transform="translate(1.625 1.375)" fill="none" stroke="#000" stroke-linejoin="round" stroke-width="1"/>
    </g>
  </g>
</svg>
