<svg xmlns="http://www.w3.org/2000/svg" width="7.5" height="10.5" viewBox="0 0 7.5 10.5">
  <g id="Group_109458" data-name="Group 109458" transform="translate(-8.25 -6.25)">
    <path id="Path_198716" data-name="Path 198716" d="M9,15.25a.75.75,0,0,0,0,1.5Zm6,1.5a.75.75,0,0,0,0-1.5Zm-.443-5.119a.75.75,0,1,0-1.113-1.005Zm-1.5.538.557.5h0Zm-2.121,0-.557.5Zm-.383-1.543a.75.75,0,1,0-1.113,1.005ZM12.75,7a.75.75,0,0,0-1.5,0ZM9,16.75h6v-1.5H9Zm4.443-6.124L12.5,11.667l1.114,1.005.939-1.041ZM11.5,11.667l-.939-1.041L9.443,11.631l.939,1.041Zm1.008,0a6.745,6.745,0,0,1-.529.553c-.1.087-.075.031.025.031v1.5a1.446,1.446,0,0,0,.943-.385,7.771,7.771,0,0,0,.674-.693Zm-2.121,1.005a7.771,7.771,0,0,0,.674.693A1.446,1.446,0,0,0,12,13.75v-1.5c.1,0,.127.056.025-.031a6.745,6.745,0,0,1-.529-.553ZM12.75,13V7h-1.5v6Z" fill="#fff"/>
  </g>
</svg>
