<svg width="17" height="18" viewBox="0 0 17 18" fill="none" xmlns="http://www.w3.org/2000/svg">
<path d="M12.1378 2.75781H4.50809C4.50809 2.75781 4.34872 4.04181 4.50809 4.83864C4.83151 6.45577 6.65482 7.89482 7.65912 8.57878C8.06244 8.85347 8.58343 8.85347 8.98675 8.57878C9.99105 7.89482 11.8144 6.45577 12.1378 4.83864C12.2972 4.04181 12.1378 2.75781 12.1378 2.75781Z" stroke="#2997FC" stroke-width="1.38722" stroke-linejoin="round"/>
<path d="M12.139 15.2422H4.50931C4.50931 15.2422 4.34994 13.9582 4.50931 13.1614C4.83273 11.5442 6.65605 10.1052 7.66034 9.42122C8.06366 9.14653 8.58465 9.14653 8.98797 9.42122C9.99227 10.1052 11.8156 11.5442 12.139 13.1614C12.2984 13.9582 12.139 15.2422 12.139 15.2422Z" stroke="#2997FC" stroke-width="1.38722" stroke-linejoin="round"/>
<path d="M10.3789 13.5087C10.3789 13.7002 10.2236 13.8555 10.0321 13.8555H6.61463C6.42309 13.8555 6.26782 13.7002 6.26782 13.5087V13.3088C6.26782 13.2111 6.27285 13.1107 6.31848 13.0244C6.60981 12.4731 7.85183 12.207 8.22007 12.1393C8.28908 12.1266 8.35765 12.1266 8.42666 12.1393C8.79489 12.207 10.0369 12.4731 10.3282 13.0244C10.3739 13.1107 10.3789 13.2111 10.3789 13.3088V13.5087Z" fill="#2997FC"/>
<path d="M7.3899 5.53223C7.16912 5.53223 7.0122 5.73792 7.13455 5.9217C7.36066 6.26134 7.74009 6.55093 8.00933 6.72926C8.20087 6.85612 8.44487 6.85612 8.63641 6.72926C8.90565 6.55093 9.28508 6.26134 9.51119 5.9217C9.63353 5.73792 9.47662 5.53223 9.25584 5.53223H7.3899Z" fill="#2997FC"/>
<path d="M13.5252 2.75781H3.12109" stroke="#2997FC" stroke-width="1.38722" stroke-linecap="round" stroke-linejoin="round"/>
<path d="M13.5252 15.2422H3.12109" stroke="#2997FC" stroke-width="1.38722" stroke-linecap="round" stroke-linejoin="round"/>
</svg>
