<svg xmlns="http://www.w3.org/2000/svg" width="188" height="111" viewBox="0 0 188 111">
  <g id="Group_110137" data-name="Group 110137" transform="translate(-86 -2113)">
    <rect id="ee24deaa91b12fa6061f29e51c795704" width="188" height="111" rx="20" transform="translate(86 2113)" fill="#fff"/>
    <g id="Group_109583" data-name="Group 109583" transform="translate(114.624 2154)">
      <path id="Path_198853" data-name="Path 198853" d="M84.76,57.632A11.733,11.733,0,0,1,73.316,45.658a11.455,11.455,0,1,1,22.887,0A11.733,11.733,0,0,1,84.76,57.632Zm0-21.207a9.242,9.242,0,1,0,8.823,9.232A9.044,9.044,0,0,0,84.76,36.426Z" transform="translate(-32.94 -27.664)" fill="#c1c1c1"/>
      <path id="Path_198859" data-name="Path 198859" d="M61.173,29.968A11.328,11.328,0,0,1,50.127,18.409,11.328,11.328,0,0,1,61.173,6.85h2.744V9.592H61.173a8.649,8.649,0,0,0-8.435,8.826,8.443,8.443,0,1,0,16.87,0V0H72.22V18.409A11.328,11.328,0,0,1,61.173,29.968Z" transform="translate(18.222)" fill="#c1c1c1"/>
    </g>
  </g>
</svg>
