<svg width="12" height="12" viewBox="0 0 12 12" fill="none" xmlns="http://www.w3.org/2000/svg">
<path d="M9.83994 9.59961H2.15994C1.76298 9.59961 1.43994 9.92265 1.43994 10.3196C1.43994 10.7166 1.76298 11.0396 2.15994 11.0396H9.83994C10.2369 11.0396 10.5599 10.7166 10.5599 10.3196C10.5599 9.92265 10.2369 9.59961 9.83994 9.59961Z" fill="white"/>
<path d="M11.04 2.39898C10.5106 2.39898 10.08 2.82955 10.08 3.35898C10.08 3.71467 10.2768 4.02234 10.5653 4.18841C10.0099 5.50361 9.14351 6.31049 8.33374 6.23753C7.43327 6.1641 6.69886 5.09945 6.29374 3.31818C6.81309 3.18665 7.19998 2.71865 7.19998 2.15898C7.19998 1.49706 6.6619 0.958984 5.99998 0.958984C5.33805 0.958984 4.79998 1.49706 4.79998 2.15898C4.79998 2.71867 5.18686 3.18667 5.70621 3.31818C5.30109 5.09945 4.56668 6.1641 3.66621 6.23753C2.85982 6.31049 1.98956 5.50361 1.4347 4.18841C1.72317 4.02234 1.91998 3.71465 1.91998 3.35898C1.91998 2.82955 1.48941 2.39898 0.959977 2.39898C0.43057 2.39898 0 2.82955 0 3.35898C0 3.85148 0.374391 4.25371 0.852469 4.30841L1.77696 9.11899H10.223L11.1475 4.30841C11.6256 4.25371 12 3.85148 12 3.35898C12 2.82955 11.5694 2.39898 11.04 2.39898Z" fill="white"/>
</svg>
