<svg width="21" height="21" viewBox="0 0 21 21" fill="none" xmlns="http://www.w3.org/2000/svg">
<path d="M1.71216 5.99239C1.71216 5.04681 2.4787 4.28027 3.42428 4.28027H17.1212C18.0668 4.28027 18.8333 5.04681 18.8333 5.99239V14.553C18.8333 15.4986 18.0668 16.2651 17.1212 16.2651H3.42428C2.4787 16.2651 1.71216 15.4986 1.71216 14.553V5.99239Z" stroke="#2997FC" stroke-width="1.71212" stroke-linecap="round" stroke-linejoin="round"/>
<path d="M10.2723 12.8409C11.6906 12.8409 12.8405 11.6911 12.8405 10.2728C12.8405 8.8544 11.6906 7.70459 10.2723 7.70459C8.85391 7.70459 7.7041 8.8544 7.7041 10.2728C7.7041 11.6911 8.85391 12.8409 10.2723 12.8409Z" stroke="#2997FC" stroke-width="1.71212" stroke-linecap="round" stroke-linejoin="round"/>
<path d="M1.71216 7.70451C3.60331 7.70451 5.13639 6.17143 5.13639 4.28027" stroke="#2997FC" stroke-width="1.71212" stroke-linecap="round" stroke-linejoin="round"/>
<path d="M15.4092 16.2651C15.4092 14.3739 16.9423 12.8408 18.8334 12.8408" stroke="#2997FC" stroke-width="1.71212" stroke-linecap="round" stroke-linejoin="round"/>
</svg>
