<svg xmlns="http://www.w3.org/2000/svg" width="59.21" height="53.539" viewBox="0 0 59.21 53.539">
  <g id="Group_109454" data-name="Group 109454" transform="translate(-0.75 -1.75)">
    <path id="Path_198714" data-name="Path 198714" d="M45.887,20.044h.064a12.785,12.785,0,0,1,1.418,25.488M45.887,20.044q.063-.7.064-1.42a15.595,15.595,0,0,0-31.133-1.356m31.069,2.776a15.569,15.569,0,0,1-3.5,8.522m-27.568-11.3a14.21,14.21,0,0,0-1.476,28.058m1.476-28.058q.671-.064,1.36-.065a14.1,14.1,0,0,1,8.508,2.841" transform="translate(0 0)" fill="none" stroke="#8d8d8d" stroke-linecap="round" stroke-linejoin="round" stroke-width="2.5"/>
    <path id="Path_198715" data-name="Path 198715" d="M16.589,13V35.684m0-22.684c-1.985,0-5.7,5.655-7.089,7.089M16.589,13c1.985,0,5.7,5.655,7.089,7.089" transform="translate(13.766 18.355)" fill="none" stroke="#8d8d8d" stroke-linecap="round" stroke-linejoin="round" stroke-width="2.5"/>
  </g>
</svg>
