<svg xmlns="http://www.w3.org/2000/svg" width="27.805" height="21.842" viewBox="0 0 27.805 21.842">
  <g id="Group_108723" data-name="Group 108723" transform="translate(1883.144 -1782.908)">
    <g id="Group_108722" data-name="Group 108722" transform="translate(-1879 1783)">
      <path id="Path_198141" data-name="Path 198141" d="M5.18,15.3c-1.258.737-4.555,2.242-2.547,4.126A4.979,4.979,0,0,0,6.081,21h7.838a4.979,4.979,0,0,0,3.447-1.578c2.008-1.883-1.289-3.389-2.547-4.126A9.608,9.608,0,0,0,5.18,15.3Z" fill="none" stroke="#fff" stroke-linecap="round" stroke-linejoin="round" stroke-width="1.5"/>
      <path id="Path_198142" data-name="Path 198142" d="M14,7a4,4,0,1,1-4-4A4,4,0,0,1,14,7Z" fill="none" stroke="#fff" stroke-width="1.5"/>
    </g>
    <path id="Path_198143" data-name="Path 198143" d="M3.655,4.5,4.4,3.8c.4-.375.6-.562.6-.8s-.2-.421-.6-.8l-.748-.7M4.979,3H1" transform="translate(-1877 1797.5) rotate(180)" fill="none" stroke="#fff" stroke-linecap="round" stroke-linejoin="round" stroke-width="1.5"/>
    <path id="Path_198144" data-name="Path 198144" d="M3.655,4.5,4.4,3.8c.4-.375.6-.562.6-.8s-.2-.421-.6-.8l-.748-.7M4.979,3H1" transform="translate(-1862 1791.5)" fill="none" stroke="#fff" stroke-linecap="round" stroke-linejoin="round" stroke-width="1.5"/>
    <path id="Path_198145" data-name="Path 198145" d="M2.655,0,3.4.7c.4.375.6.562.6.8s-.2.42-.6.8L2.655,3M3.979,1.5H0" transform="translate(-1878.5 1788.799) rotate(-150)" fill="none" stroke="#fff" stroke-linecap="round" stroke-linejoin="round" stroke-width="1.5"/>
    <path id="Path_198146" data-name="Path 198146" d="M2.655,3,3.4,2.3c.4-.375.6-.562.6-.8s-.2-.42-.6-.8L2.655,0M3.979,1.5H0" transform="translate(-1861.482 1786.201) rotate(-30)" fill="none" stroke="#fff" stroke-linecap="round" stroke-linejoin="round" stroke-width="1.5"/>
  </g>
</svg>
